<?xml version="1.0" standalone="no"?>
<!DOCTYPE svg PUBLIC "-//W3C//DTD SVG 1.1//EN" "http://www.w3.org/Graphics/SVG/1.1/DTD/svg11.dtd" >
<svg xmlns="http://www.w3.org/2000/svg" xmlns:xlink="http://www.w3.org/1999/xlink" version="1.1">
<metadata>
Created by FontForge 20161003 at Fri Jun  7 17:45:21 2019
 By www-data
</metadata>
<defs>
<font id="ISFkut" horiz-adv-x="891" >
  <font-face 
    font-family="ISF kut"
    font-weight="400"
    font-stretch="normal"
    units-per-em="2048"
    panose-1="2 0 0 0 0 0 0 0 0 0"
    ascent="1638"
    descent="-410"
    x-height="1102"
    cap-height="1449"
    bbox="-486 -700 2739 2134"
    underline-thickness="100"
    underline-position="-800"
    unicode-range="U+001D-FEFF"
  />
<missing-glyph horiz-adv-x="582" 
d="M5 1257h485v-1107h-485v1107zM76 1186v-966h343v966h-343z" />
    <glyph glyph-name=".notdef" unicode="&#x640;&#x651;&#x650;" horiz-adv-x="582" 
d="M5 1257h485v-1107h-485v1107zM76 1186v-966h343v966h-343z" />
    <glyph glyph-name="shaddawithfathatanisolated" unicode="&#x651;&#x64b;" horiz-adv-x="425" 
d="M398 1823q6 -11 6 -16q0 -4 -1 -6.5t-1 -7.5q0 -2 0.5 -5t2.5 -8q15 -41 15 -83q0 -24 -5.5 -46.5t-17 -40t-29 -27.5t-41.5 -10q-17 0 -29 6t-26 16q-5 -14 -14 -31t-24 -33t-38 -26.5t-54 -10.5q-22 0 -36.5 8t-23.5 21.5t-12.5 30.5t-3.5 34q0 22 4.5 41.5t9.5 30.5
q0 -1 1 -1t4.5 4t8 9t8.5 9t6 4q1 0 1 -1q-3 -14 -5.5 -27.5t-2.5 -24.5q0 -19 8 -31t29 -12q25 0 40.5 8t24.5 21t13 29.5t5.5 33.5t3 32.5t4.5 27.5l1 -1q2 0 5 3.5t6 8t6.5 8t5.5 3.5q1 0 2 -1q-1 -5 -1 -13q0 -38 19.5 -64t47.5 -26q5 0 13.5 2t16.5 6.5t14 11.5t6 17
q0 20 -14 42t-29 37q5 10 14.5 15.5t20 10t20 9.5t15.5 13zM390 2031l-340 -193l17 91l340 193zM401 1903l-340 -193l17 91l340 193z" />
    <glyph glyph-name="uniFC5E" unicode="&#x651;&#x64c;" horiz-adv-x="484" arabic-form="isolated" 
d="M425 1928q-9 -15 -30 -38t-49 -44.5t-60.5 -37t-64.5 -15.5q-33 0 -49 13.5t-16 30.5q0 19 9 39.5t9 35.5q0 10 -7 16t-27 6q-15 0 -38.5 -4t-58.5 -13q25 29 58.5 43.5t64.5 14.5q30 0 51 -14.5t21 -43.5q0 -14 -5.5 -31t-18.5 -37q48 17 89.5 38t75.5 53
q-48 10 -67.5 30.5t-19.5 45.5q0 22 12 43t31.5 37.5t44.5 27t50 10.5q21 -2 28.5 -19t7.5 -40q0 -26 -5.5 -50t-9.5 -33l40 -10l-18 -65zM396 1846q26 -31 39.5 -69.5t13.5 -78.5q0 -25 -5.5 -48t-17.5 -40t-30 -27.5t-42 -10.5q-17 0 -28.5 6.5t-25.5 16.5
q-5 -12 -13.5 -29t-23 -32.5t-36 -26.5t-50.5 -11q-26 0 -43.5 12.5t-28 33t-14.5 45t-4 48.5q0 26 4 47t9 32q0 -1 1 -1t5 4l8.5 8.5l8.5 8.5t6 4q1 0 1 -1q-3 -12 -5 -26.5t-2 -29.5q0 -17 2.5 -33t9 -28.5t16.5 -20t25 -7.5q33 0 48 17.5t21 42t7.5 49.5t6.5 40l1 -1
q2 0 5 3.5t6.5 8t6.5 8t5 3.5t2 -1q-1 -5 -1 -14q0 -38 19.5 -64t47.5 -26q5 0 13.5 2t16.5 6t14 10.5t6 16.5q0 20 -14 43t-28 38q11 20 19.5 37.5t17.5 34.5zM403 2065q-6 6 -13.5 7t-12.5 1q-17 0 -24 -9t-7 -20q0 -17 20 -25l45 -18q0 5 1 9q0 4 0.5 9t0.5 11
q0 12 -2 22.5t-8 14.5v-2z" />
    <glyph glyph-name="uniFC5F" unicode="&#x651;&#x64d;" horiz-adv-x="425" arabic-form="isolated" 
d="M370 2050q24 -30 36.5 -67.5t12.5 -75.5q0 -26 -6 -49.5t-18 -41.5t-30 -28.5t-42 -10.5q-18 0 -29.5 7t-26.5 18q-5 -12 -13.5 -28.5t-23.5 -31.5t-36 -25.5t-49 -10.5q-26 0 -43 12t-27.5 31.5t-14.5 43t-4 47.5q0 28 4.5 51.5t10.5 34.5q0 -1 1 -1t5 4l8.5 8.5
l8.5 8.5t6 4q1 0 1 -1q-8 -29 -8 -62t11.5 -59t40.5 -26q32 0 47.5 17t22 41t8 49t7.5 40l1 -1q2 0 5 3.5t7 7.5t7 7.5t5 3.5t2 -1q-1 -5 -1 -9v-9q0 -37 18.5 -62t46.5 -25q5 0 13 2t16 6t14 11t6 17q0 19 -12.5 41t-26.5 38q11 20 20 37t19 34zM381 1579l-350 -141l33 75
l350 141zM391 1684l-350 -141l33 75l350 141z" />
    <glyph glyph-name="uniFC60" unicode="&#x651;&#x64e;" horiz-adv-x="425" arabic-form="isolated" 
d="M398 1823q6 -11 6 -16q0 -4 -1 -6.5t-1 -7.5q0 -2 0.5 -5t2.5 -8q15 -41 15 -83q0 -24 -5.5 -46.5t-17 -40t-29 -27.5t-41.5 -10q-17 0 -29 6t-26 16q-5 -14 -14 -31t-24 -33t-38 -26.5t-54 -10.5q-22 0 -36.5 8t-23.5 21.5t-12.5 30.5t-3.5 34q0 22 4.5 41.5t9.5 30.5
q0 -1 1 -1t4.5 4t8 9t8.5 9t6 4q1 0 1 -1q-3 -14 -5.5 -27.5t-2.5 -24.5q0 -19 8 -31t29 -12q25 0 40.5 8t24.5 21t13 29.5t5.5 33.5t3 32.5t4.5 27.5l1 -1q2 0 5 3.5t6 8t6.5 8t5.5 3.5q1 0 2 -1q-1 -5 -1 -13q0 -38 19.5 -64t47.5 -26q5 0 13.5 2t16.5 6.5t14 11.5t6 17
q0 20 -14 42t-29 37q5 10 14.5 15.5t20 10t20 9.5t15.5 13zM401 1903l-340 -193l17 91l340 193z" />
    <glyph glyph-name="uniFC61" unicode="&#x651;&#x64f;" horiz-adv-x="437" arabic-form="isolated" 
d="M372 1846q26 -31 39.5 -69.5t13.5 -78.5q0 -25 -5.5 -48t-17.5 -40t-30 -27.5t-42 -10.5q-17 0 -28.5 6.5t-25.5 16.5q-5 -12 -13.5 -29t-23 -32.5t-36 -26.5t-50.5 -11q-26 0 -43.5 12.5t-28 33t-14.5 45t-4 48.5q0 26 4 47t9 32q0 -1 1 -1t5 4l8.5 8.5l8.5 8.5t6 4
q1 0 1 -1q-3 -12 -5 -26.5t-2 -29.5q0 -17 2.5 -33t9 -28.5t16.5 -20t25 -7.5q33 0 48 17.5t21 42t7.5 49.5t6.5 40l1 -1q2 0 5 3.5t6.5 8t6.5 8t5 3.5t2 -1q-1 -5 -1 -14q0 -38 19.5 -64t47.5 -26q5 0 13.5 2t16.5 6t14 10.5t6 16.5q0 20 -14 43t-28 38q11 20 19.5 37.5
t17.5 34.5zM347 1915q-11 -18 -36 -40.5t-59 -42.5t-74.5 -33.5t-81.5 -13.5q-53 0 -73.5 3.5t-21.5 1.5q0 1 1 1q60 20 103 34t77 28t61.5 31t54.5 43q-51 9 -72 30t-21 46q0 22 13 43.5t34 38t47 27t52 10.5q23 -2 31 -19.5t8 -40.5q0 -25 -6 -49.5t-11 -34.5l43 -10
l-19 -63zM322 2054q-6 5 -13 6.5t-12 1.5q-17 0 -26 -9t-9 -20q0 -18 20.5 -27t48.5 -17q0 4 1 9q0 4 0.5 9.5t0.5 11.5q0 11 -2 22t-9 14v-1z" />
    <glyph glyph-name="uniFC62" unicode="&#x651;&#x650;" horiz-adv-x="425" arabic-form="isolated" 
d="M385 1972q24 -30 36.5 -67.5t12.5 -75.5q0 -26 -6 -49.5t-18 -41.5t-30 -28.5t-42 -10.5q-18 0 -29.5 7t-26.5 18q-5 -12 -13.5 -28.5t-23.5 -31.5t-36 -25.5t-49 -10.5q-26 0 -43 12t-27.5 31.5t-14.5 43t-4 47.5q0 28 4.5 51.5t10.5 34.5q0 -1 1 -1t5 4l8.5 8.5
l8.5 8.5t6 4q1 0 1 -1q-8 -29 -8 -62t11.5 -59t40.5 -26q32 0 47.5 17t22 41t8 49t7.5 40l1 -1q2 0 5 3.5t7 7.5t7 7.5t5 3.5t2 -1q-1 -5 -1 -9v-9q0 -37 18.5 -62t46.5 -25q5 0 13 2t16 6t14 11t6 17q0 19 -12.5 41t-26.5 38q11 20 20 37t19 34zM422 1590l-340 -193l17 91
l340 193z" />
    <glyph glyph-name="uniFCF2" unicode="&#x640;&#x651;&#x64e;" horiz-adv-x="375" arabic-form="medial" 
d="M298 1190q6 -11 6 -16q0 -4 -1 -6.5t-1 -7.5q0 -2 0.5 -5t2.5 -8q15 -41 15 -83q0 -24 -5.5 -46.5t-17 -40t-29 -27.5t-41.5 -10q-17 0 -29 6t-26 16q-5 -14 -14 -31t-24 -33t-38 -26.5t-54 -10.5q-22 0 -36.5 8t-23.5 21.5t-12.5 30.5t-3.5 34q0 22 4.5 41.5t9.5 30.5
q0 -1 1 -1t4.5 4t8 9t8.5 9t6 4q1 0 1 -1q-3 -14 -5.5 -27.5t-2.5 -24.5q0 -19 8 -31t29 -12q25 0 40.5 8t24.5 21t13 29.5t5.5 33.5t3 33t4.5 27l1 -1q2 0 5 3.5t6 8t6.5 8t5.5 3.5q1 0 2 -1q-1 -5 -1 -13q0 -38 19.5 -64t47.5 -26q5 0 13.5 2t16.5 6.5t14 11.5t6 17
q0 20 -14 42t-29 37q5 10 14.5 15.5t20 10t20 9.5t15.5 13zM301 1270l-340 -193l17 91l340 193z" />
    <glyph glyph-name="uniFCF3" unicode="&#x640;&#x651;&#x64f;" horiz-adv-x="480" arabic-form="medial" 
d="M365 1238q26 -31 39.5 -69.5t13.5 -78.5q0 -25 -5.5 -48t-17.5 -40t-30 -27.5t-42 -10.5q-17 0 -28.5 6.5t-25.5 16.5q-5 -12 -13.5 -29t-23 -32.5t-36 -26.5t-50.5 -11q-26 0 -43.5 12.5t-28 33t-14.5 45t-4 48.5q0 26 4 47t9 32q0 -1 1 -1t5 4l8.5 8.5l8.5 8.5t6 4
q1 0 1 -1q-3 -12 -5 -26.5t-2 -29.5q0 -17 2.5 -33t9 -28.5t16.5 -20t25 -7.5q33 0 48 17.5t21 42t7.5 49.5t6.5 40l1 -1q2 0 5 3.5t6.5 8t6.5 8t5 3.5t2 -1q-1 -5 -1 -14q0 -38 19.5 -64t47.5 -26q5 0 13.5 2t16.5 6t14 10.5t6 16.5q0 20 -14 43t-28 38q11 20 19.5 37.5
t17.5 34.5zM340 1307q-11 -18 -36 -40.5t-59 -42.5t-74.5 -33.5t-81.5 -13.5q-53 0 -73.5 3.5t-21.5 1.5q0 1 1 1q60 20 103 34t77 28t61.5 31t54.5 43q-51 9 -72 30t-21 46q0 22 13 43.5t34 38t47 27t52 10.5q23 -2 31 -19.5t8 -40.5q0 -25 -6 -49.5t-11 -34.5l43 -10
l-19 -63zM315 1446q-6 5 -13 6.5t-12 1.5q-17 0 -26 -9t-9 -20q0 -18 20.5 -27t48.5 -17q0 4 1 9q0 4 0.5 9.5t0.5 11.5q0 11 -2 22t-9 14v-1z" />
    <glyph glyph-name="uniFDF2" unicode="&#xfedf;&#xfee0;&#xfeea;" horiz-adv-x="2001" arabic-form="isolated" 
d="M1443 1350q0 -16 -4.5 -26t-12.5 -15.5t-17 -8t-19 -2.5h-205q-26 0 -39 12t-13 40v119q0 5 4 8.5t9 3.5h29q13 0 13 -12v-116h72v116q0 5 4 8.5t10 3.5h29q5 0 9 -3.5t4 -8.5v-116h71v116q0 5 4 8.5t10 3.5h29q5 0 9 -3.5t4 -8.5v-119zM505 805l-19 2l-50 4v-1
q-32 -2 -56 -8q-30 -9 -48 -28t-25.5 -50t-7.5 -76v-88h1q-3 -18 6 -72q17 -59 46.5 -88.5t68.5 -46.5q36 -17 93 -18v1h214l1 168v86q0 43 -16.5 82t-46 68.5t-68.5 47t-83 17.5h-10zM901 151v-2q-2 1 -5 2h-388q-95 0 -167 35.5t-121 94.5t-74 134q-22 67 -25 138h-1v101
q2 160 88 247q82 81 228 87l1 1h76q94 0 165 -35q72 -36 121 -95t74 -134t25 -154v-65q0 -59 1 -170h303v828q0 20 7 37t19.5 29.5t29 19.5t36.5 7t36.5 -7t29 -19.5t19.5 -29.5t7 -37l-5 -828h199v-1q50 -1 74 6q30 8 48 27t25.5 50t7.5 76l-3 770q0 20 7 37t19.5 29.5
t29 19.5t36.5 7t36.5 -7t29 -19.5t19.5 -29.5t7 -37l-2 -787q-5 -152 -88 -235q-73 -73 -198 -88l-326 -3h-401z" />
    <glyph glyph-name="uniFE77" unicode="&#x640;&#x64e;" horiz-adv-x="448" arabic-form="medial" 
d="M396 1157q-97 -52 -191.5 -102.5t-191.5 -102.5q5 24 8 39.5t7 37.5q99 52 191.5 101.5t191.5 102.5z" />
    <glyph glyph-name="uniFE79" unicode="&#x640;&#x64f;" horiz-adv-x="490" arabic-form="medial" 
d="M360 1221q-11 -23 -36.5 -51.5t-60.5 -53.5t-76 -42.5t-83 -17.5q-56 0 -77 4t-21 3q0 1 1 1q61 25 105.5 43t79 36t62.5 39.5t56 54.5q-52 12 -73.5 38t-21.5 58q0 27 12.5 54t33 48.5t46.5 35.5t52 14t35.5 -22t9.5 -54t-6 -63t-11 -44l44 -13l-19 -80zM335 1398
q-6 7 -14.5 8.5t-13.5 1.5q-17 0 -25.5 -11.5t-8.5 -25.5q0 -23 21 -34t50 -22q0 5 1 11q0 5 0.5 12t0.5 15q0 15 -2 28.5t-9 18.5v-2z" />
    <glyph glyph-name="uniFE7B" unicode="&#x640;&#x650;" horiz-adv-x="669" arabic-form="medial" 
d="M392 506q-97 -52 -191.5 -102.5t-191.5 -102.5q5 23 8 39t7 38q99 52 191.5 101.5t191.5 102.5z" />
    <glyph glyph-name="uniFE7D" unicode="&#x640;&#x651;" horiz-adv-x="448" arabic-form="medial" 
d="M386 1293q17 -26 25 -57.5t8 -61.5q0 -28 -6.5 -54.5t-19 -47t-31 -33t-43.5 -12.5t-37.5 9t-27.5 23q-6 -11 -16 -25t-24.5 -26.5t-34.5 -21t-45 -8.5t-42 9.5t-27 25t-14 35.5t-4 41q0 37 9 70t18 47q0 -1 1 -1t5.5 3.5t9.5 7t9.5 7t6.5 3.5q1 0 1 -1
q-8 -17 -12.5 -39.5t-4.5 -43.5q0 -29 11.5 -48.5t40.5 -19.5t44.5 16t23.5 37.5t12.5 44.5t12.5 38q0 -2 2 -2q4 0 12.5 9.5t12.5 9.5q2 0 2 -1q-4 -15 -4 -32q0 -34 17 -57t44 -23q6 0 14 1.5t15.5 5t13 10.5t5.5 19q0 19 -9.5 40.5t-20.5 36.5q13 18 24.5 34t22.5 32z
" />
    <glyph glyph-name="uniFEF5" unicode="&#xfedf;&#xfe82;" horiz-adv-x="869" arabic-form="isolated" 
d="M31 1400q-8 -2 -13.5 4.5t-5.5 14.5l3 49q0 11 6 17.5t14 8.5l384 68q17 3 19 -19l-3 -49q0 -9 -6 -17t-14 -9zM393 241l-176 907q-8 40 13 71t59 38q39 8 70 -13t39 -60q120 -651 125 -671q4 -28 -15 -86q-34 -104 -115 -186zM370 48l-12 1l-8 2l-20 8q-34 16 -41 20
q-43 23 -80 55q-43 35 -81 88h140q25 0 47 1q130 7 166 26q40 20 66.5 53t38.5 76q7 23 10 82q2 29 3 67v737q0 20 7 37t19.5 29.5t29 19.5t36.5 7t36.5 -7t29 -19.5t19.5 -29.5t7 -37l-3 -507l-2 -250q-4 -134 -25 -196q-25 -75 -74.5 -133.5t-123.5 -93.5
q-65 -32 -148 -36v1q-15 -1 -32 -1h-5z" />
    <glyph glyph-name="uniFEF6" unicode="&#xfee0;&#xfe82;" horiz-adv-x="874" arabic-form="final" 
d="M42 1400q-8 -2 -13.5 4.5t-5.5 14.5l3 49q0 11 6 17.5t14 8.5l384 68q17 3 19 -19l-3 -49q0 -9 -6 -17t-14 -9zM701 336h178v-185h-284q-43 -40 -99 -67q-65 -32 -148 -36v1q-15 -1 -32 -1h-5l-12 1l-8 2l-20 8q-34 16 -41 20q-43 23 -80 55q-43 35 -81 88h140q25 0 47 1
q130 7 166 26q40 20 66.5 53t38.5 76q7 23 10 82q2 29 3 67v737q0 20 7 37t19.5 29.5t29 19.5t36.5 7t36.5 -7t29 -19.5t19.5 -29.5t7 -37l-3 -507l-2 -250q-3 -110 -18 -171zM334 241l-176 907q-8 40 13 71t59 38q39 8 70 -13t39 -60q120 -651 125 -671q4 -28 -15 -86
q-34 -104 -115 -186z" />
    <glyph glyph-name="uniFEF7" unicode="&#xfedf;&#xfe84;" horiz-adv-x="805" arabic-form="isolated" 
d="M329 241l-176 907q-8 40 13 71t59 38q39 8 70 -13t39 -60q120 -651 125 -671q4 -28 -15 -86q-34 -104 -115 -186zM306 48l-12 1l-8 2l-20 8q-34 16 -41 20q-43 23 -80 55q-43 35 -81 88h140q25 0 47 1q130 7 166 26q40 20 66.5 53t38.5 76q7 23 10 82q2 29 3 67v737
q0 20 7 37t19.5 29.5t29 19.5t36.5 7t36.5 -7t29 -19.5t19.5 -29.5t7 -37l-3 -507l-2 -250q-4 -134 -25 -196q-25 -75 -74.5 -133.5t-123.5 -93.5q-65 -32 -148 -36v1q-15 -1 -32 -1h-5zM322 1683q3 -8 2 -17q-1 -8 -3 -12q-2 -6 -6 -9.5t-9.5 -6t-11.5 -2.5t-11.5 2.5
t-9.5 6t-6 9.5q-1 2 -2 12q0 1 -1 2q-2 9 -5 12q-6 6 -16 9q-4 2 -10 2q-37 -1 -50 -6.5t-22 -15t-14.5 -22t-5.5 -25.5v-12q0 -14 5.5 -26.5t14.5 -21.5t22 -14.5t27 -5.5l123 -3q-12 -18 -26 -29q-11 -11 -26 -18q-2 -2 -12 -7l-7 -3h-2h-180q-5 -1 -10 0v0q-8 1 -12 2
q-5 2 -9 6t-6.5 9.5t-2.5 11.5q0 7 2.5 12t6.5 9t9 6q2 1 49 2q-7 13 -12 27q-6 17 -8 36v0v26v0q2 19 8 36q8 24 23.5 43t39.5 30q19 10 45 11h22h1q46 -2 72 -28q20 -19 24 -38z" />
    <glyph glyph-name="uniFEF8" unicode="&#xfee0;&#xfe84;" horiz-adv-x="869" arabic-form="final" 
d="M696 336h178v-185h-284q-43 -40 -99 -67q-65 -32 -148 -36v1q-15 -1 -32 -1h-5l-12 1l-8 2l-20 8q-34 16 -41 20q-43 23 -80 55q-43 35 -81 88h140q25 0 47 1q130 7 166 26q40 20 66.5 53t38.5 76q7 23 10 82q2 29 3 67v737q0 20 7 37t19.5 29.5t29 19.5t36.5 7t36.5 -7
t29 -19.5t19.5 -29.5t7 -37l-3 -507l-2 -250q-3 -110 -18 -171zM329 241l-176 907q-8 40 13 71t59 38q39 8 70 -13t39 -60q120 -651 125 -671q4 -28 -15 -86q-34 -104 -115 -186zM322 1683q3 -8 2 -17q-1 -8 -3 -12q-2 -6 -6 -9.5t-9.5 -6t-11.5 -2.5t-11.5 2.5t-9.5 6
t-6 9.5q-1 2 -2 12q0 1 -1 2q-2 9 -5 12q-6 6 -16 9q-4 2 -10 2q-37 -1 -50 -6.5t-22 -15t-14.5 -22t-5.5 -25.5v-12q0 -14 5.5 -26.5t14.5 -21.5t22 -14.5t27 -5.5l123 -3q-12 -18 -26 -29q-11 -11 -26 -18q-2 -2 -12 -7l-7 -3h-2h-180q-5 -1 -10 0v0q-8 1 -12 2q-5 2 -9 6
t-6.5 9.5t-2.5 11.5q0 7 2.5 12t6.5 9t9 6q2 1 49 2q-7 13 -12 27q-6 17 -8 36v0v26v0q2 19 8 36q8 24 23.5 43t39.5 30q19 10 45 11h22h1q46 -2 72 -28q20 -19 24 -38z" />
    <glyph glyph-name="uniFEF9" unicode="&#xfedf;&#xfe88;" horiz-adv-x="824" arabic-form="isolated" 
d="M348 241l-176 907q-8 40 13 71t59 38q39 8 70 -13t39 -60q120 -651 125 -671q4 -28 -15 -86q-34 -104 -115 -186zM325 48l-12 1l-8 2l-20 8q-34 16 -41 20q-43 23 -80 55q-43 35 -81 88h140q25 0 47 1q130 7 166 26q40 20 66.5 53t38.5 76q7 23 10 82q2 29 3 67v737
q0 20 7 37t19.5 29.5t29 19.5t36.5 7t36.5 -7t29 -19.5t19.5 -29.5t7 -37l-3 -507l-2 -250q-4 -134 -25 -196q-25 -75 -74.5 -133.5t-123.5 -93.5q-65 -32 -148 -36v1q-15 -1 -32 -1h-5zM364 -145q3 -8 2 -17q-1 -8 -3 -12q-2 -6 -6 -9.5t-9.5 -6t-11.5 -2.5t-11.5 2.5
t-9.5 6t-6 9.5q-1 2 -2 12q0 1 -1 2q-2 9 -5 12q-6 6 -16 9q-4 2 -10 2q-37 -1 -50 -6.5t-22 -15t-14.5 -22t-5.5 -25.5v-12q0 -14 5.5 -26.5t14.5 -21.5t22 -14.5t27 -5.5l123 -3q-12 -18 -26 -29q-11 -11 -26 -18q-2 -2 -12 -7l-7 -3h-2h-180q-5 -1 -10 0v0q-8 1 -12 2
q-5 2 -9 6t-6.5 9.5t-2.5 11.5q0 7 2.5 12t6.5 9t9 6q2 1 49 2q-7 13 -12 27q-6 17 -8 36v0v26v0q2 19 8 36q8 24 23.5 43t39.5 30q19 10 45 11h22h1q46 -2 72 -28q20 -19 24 -38z" />
    <glyph glyph-name="uniFEFA" unicode="&#xfee0;&#xfe88;" horiz-adv-x="859" arabic-form="final" 
d="M686 336h178v-185h-284q-43 -40 -99 -67q-65 -32 -148 -36v1q-15 -1 -32 -1h-5l-12 1l-8 2l-20 8q-34 16 -41 20q-43 23 -80 55q-43 35 -81 88h140q25 0 47 1q130 7 166 26q40 20 66.5 53t38.5 76q7 23 10 82q2 29 3 67v737q0 20 7 37t19.5 29.5t29 19.5t36.5 7t36.5 -7
t29 -19.5t19.5 -29.5t7 -37l-3 -507l-2 -250q-3 -110 -18 -171zM319 241l-176 907q-8 40 13 71t59 38q39 8 70 -13t39 -60q120 -651 125 -671q4 -28 -15 -86q-34 -104 -115 -186zM335 -145q3 -8 2 -17q-1 -8 -3 -12q-2 -6 -6 -9.5t-9.5 -6t-11.5 -2.5t-11.5 2.5t-9.5 6
t-6 9.5q-1 2 -2 12q0 1 -1 2q-2 9 -5 12q-6 6 -16 9q-4 2 -10 2q-37 -1 -50 -6.5t-22 -15t-14.5 -22t-5.5 -25.5v-12q0 -14 5.5 -26.5t14.5 -21.5t22 -14.5t27 -5.5l123 -3q-12 -18 -26 -29q-11 -11 -26 -18q-2 -2 -12 -7l-7 -3h-2h-180q-5 -1 -10 0v0q-8 1 -12 2q-5 2 -9 6
t-6.5 9.5t-2.5 11.5q0 7 2.5 12t6.5 9t9 6q2 1 49 2q-7 13 -12 27q-6 17 -8 36v0v26v0q2 19 8 36q8 24 23.5 43t39.5 30q19 10 45 11h22h1q46 -2 72 -28q20 -19 24 -38z" />
    <glyph glyph-name="uniFEFB" unicode="&#xfedf;&#xfe8e;" horiz-adv-x="818" arabic-form="isolated" 
d="M342 241l-176 907q-8 40 13 71t59 38q39 8 70 -13t39 -60q120 -651 125 -671q4 -28 -15 -86q-34 -104 -115 -186zM319 48l-12 1l-8 2l-20 8q-34 16 -41 20q-43 23 -80 55q-43 35 -81 88h140q25 0 47 1q130 7 166 26q40 20 66.5 53t38.5 76q7 23 10 82q2 29 3 67v737
q0 20 7 37t19.5 29.5t29 19.5t36.5 7t36.5 -7t29 -19.5t19.5 -29.5t7 -37l-3 -507l-2 -250q-4 -134 -25 -196q-25 -75 -74.5 -133.5t-123.5 -93.5q-65 -32 -148 -36v1q-15 -1 -32 -1h-5z" />
    <glyph glyph-name="uniFEFC" unicode="&#xfee0;&#xfe8e;" horiz-adv-x="883" arabic-form="final" 
d="M710 336h178v-185h-284q-43 -40 -99 -67q-65 -32 -148 -36v1q-15 -1 -32 -1h-5l-12 1l-8 2l-20 8q-34 16 -41 20q-43 23 -80 55q-43 35 -81 88h140q25 0 47 1q130 7 166 26q40 20 66.5 53t38.5 76q7 23 10 82q2 29 3 67v737q0 20 7 37t19.5 29.5t29 19.5t36.5 7t36.5 -7
t29 -19.5t19.5 -29.5t7 -37l-3 -507l-2 -250q-3 -110 -18 -171zM343 241l-176 907q-8 40 13 71t59 38q39 8 70 -13t39 -60q120 -651 125 -671q4 -28 -15 -86q-34 -104 -115 -186z" />
    <glyph glyph-name="uniFCF4" unicode="&#xfcf4;" horiz-adv-x="532" arabic-form="medial" 
d="M424 1178q-11 -23 -36.5 -51.5t-60.5 -53.5t-76 -42.5t-83 -17.5q-56 0 -77 4t-21 3q0 1 1 1q61 25 105.5 43t79 36t62.5 39.5t56 54.5q-52 12 -73.5 38t-21.5 58q0 27 12.5 54t33 48.5t46.5 35.5t52 14t35.5 -22t9.5 -54t-6 -63t-11 -44l44 -13l-19 -80zM399 1355
q-6 7 -14.5 8.5t-13.5 1.5q-17 0 -25.5 -11.5t-8.5 -25.5q0 -23 21 -34t50 -22q0 5 1 11q0 5 0.5 12t0.5 15q0 15 -2 28.5t-9 18.5v-2z" />
    <glyph glyph-name="uniFE70" unicode="&#xfe70;" horiz-adv-x="408" arabic-form="isolated" 
d="M389 1675l-340 -193l17 91l340 193zM403 1842l-340 -193l17 91l340 193z" />
    <glyph glyph-name="uniFE71" unicode="&#xfe71;" horiz-adv-x="669" arabic-form="medial" 
d="M383 1154q-97 -52 -191 -102.5t-191 -102.5q5 23 8 39t7 38q99 52 191.5 101.5t191.5 102.5zM416 1345q-97 -52 -191.5 -102.5t-191.5 -102.5q5 23 8.5 38.5t7.5 38.5q99 52 191 101.5t191 102.5z" />
    <glyph glyph-name="uniFE72" unicode="&#xfe72;" horiz-adv-x="469" arabic-form="isolated" 
d="M409 1632q-8 -18 -28 -45.5t-47 -53t-58 -43.5t-62 -18t-46 16t-15 36q0 23 8 47t8 41q0 12 -6.5 19.5t-26.5 7.5q-14 0 -36.5 -4.5t-54.5 -15.5q23 34 55.5 51t61.5 17t49 -16.5t20 -51.5q0 -34 -23 -80q46 20 85.5 44t71.5 62q-45 11 -64 35.5t-19 53.5q0 26 12 51
t30.5 45t42 32.5t47.5 12.5q20 -2 27 -23t7 -47q0 -29 -5 -58t-9 -40l38 -12l-17 -76zM388 1793q-6 6 -12.5 8t-12.5 2q-15 0 -22 -11t-7 -24q0 -20 19 -30t43 -21q0 5 1 10q0 5 0.5 10.5t0.5 12.5q0 14 -2 27.5t-8 17.5v-2z" />
    <glyph glyph-name="uniFE74" unicode="&#xfe74;" horiz-adv-x="408" arabic-form="isolated" 
d="M384 -83q-97 -52 -191.5 -102.5t-191.5 -102.5q5 23 8 38.5t7 38.5q99 52 191.5 101.5t191.5 102.5zM416 107q-97 -52 -191.5 -102.5t-191.5 -102.5q5 24 8.5 39.5t7.5 38.5q99 52 191 101t191 102z" />
    <glyph glyph-name="uniFE76" unicode="&#xfe76;" horiz-adv-x="408" arabic-form="isolated" 
d="M396 1583q-97 -52 -191.5 -102.5t-191.5 -102.5q5 24 8 39.5t7 37.5q99 52 191.5 101.5t191.5 102.5z" />
    <glyph glyph-name="uniFE78" unicode="&#xfe78;" horiz-adv-x="414" arabic-form="isolated" 
d="M366 1664q-11 -23 -36.5 -51.5t-60.5 -53.5t-76 -42.5t-83 -17.5q-56 0 -77 4t-21 3q0 1 1 1q61 25 105.5 43t79 36t62.5 39.5t56 54.5q-52 12 -73.5 38t-21.5 58q0 27 12.5 54t33 48.5t46.5 35.5t52 14t35.5 -22t9.5 -54t-6 -63t-11 -44l44 -13l-19 -80zM341 1841
q-6 7 -14.5 8.5t-13.5 1.5q-17 0 -25.5 -11.5t-8.5 -25.5q0 -23 21 -34t50 -22q0 5 1 11q0 5 0.5 12t0.5 15q0 15 -2 28.5t-9 18.5v-2z" />
    <glyph glyph-name="uniFE7A" unicode="&#xfe7a;" horiz-adv-x="408" arabic-form="isolated" 
d="M392 -363q-97 -52 -191.5 -102.5t-191.5 -102.5q5 23 8 39t7 38q99 52 191.5 101.5t191.5 102.5z" />
    <glyph glyph-name="uniFE7C" unicode="&#xfe7c;" horiz-adv-x="425" arabic-form="isolated" 
d="M398 1823q17 -26 25 -57.5t8 -61.5q0 -28 -6.5 -54.5t-19 -47t-31 -33t-43.5 -12.5t-37.5 9t-27.5 23q-6 -11 -16 -25t-24.5 -26.5t-34.5 -21t-45 -8.5t-42 9.5t-27 25t-14 35.5t-4 41q0 37 9 70t18 47q0 -1 1 -1t5.5 3.5t9.5 7t9.5 7t6.5 3.5q1 0 1 -1
q-8 -17 -12.5 -39.5t-4.5 -43.5q0 -29 11.5 -48.5t40.5 -19.5t44.5 16t23.5 37.5t12.5 44.5t12.5 38q0 -2 2 -2q4 0 12.5 9.5t12.5 9.5q2 0 2 -1q-4 -15 -4 -32q0 -34 17 -57t44 -23q6 0 14 1.5t15.5 5t13 10.5t5.5 19q0 19 -9.5 40.5t-20.5 36.5q13 18 24.5 34t22.5 32z
" />
    <glyph glyph-name="uniFE7E" unicode="&#xfe7e;" horiz-adv-x="328" arabic-form="isolated" 
d="M347 1696q1 -4 1 -8v-8q0 -31 -14.5 -65t-37.5 -78v1q0 1 1 2l-3 -5q-13 -8 -30 -15.5t-36.5 -13.5t-40.5 -9.5t-40 -3.5q-40 0 -65 19.5t-25 69.5q0 37 12 78t32.5 75t48.5 56.5t60 22.5q25 0 48.5 -12t42.5 -29.5t31 -38t15 -38.5zM283 1628q-3 13 -12.5 28.5t-23 28.5
t-29.5 21.5t-32 8.5q-32 0 -48 -21t-16 -43q0 -28 20.5 -40t48.5 -12q23 0 47.5 7.5t43.5 20.5z" />
    <glyph glyph-name="uniFE7F" unicode="&#xfe7f;" horiz-adv-x="2797" arabic-form="medial" 
d="M1211 1989h367v-10h58v-9h49v-10h38v-10h39v-9h39v-10h29v-10h19v-9h29v-10h29v-10h19v-9h20v-10h19v-10h29v-9h20v-10h9v-10h20v-9h19v-10h19v-10h10v-9h19v-10h20v-10h9v-9h20v-10h9v-10h20v-9h9v-10h10v-10h19v-10h10v-9h10v-10h9v-10h10v-9h19v-10h10v-10h10v-9h9
v-10h10v-10h10v-9h9v-10h10v-10h10v-9h9v-10h10v-10h10v-9h9v-10h10v-10h10v-19h9v-10h10v-9h10v-10h9v-19h10v-10h10v-10h10v-19h9v-10h10v-9h10v-20h9v-9h10v-20h10v-19h9v-10h10v-19h10v-19h9v-20h10v-19h10v-19h9v-20h10v-19h10v-20h9v-19h10v-29h10v-29h9v-29h10v-29
h10v-39h9v-29h10v-48h10v-48h9v-68h10v-319h-10v-68h-9v-58h-10v-39h-10v-38h-9v-39h-10v-29h-10v-29h-9v-19h-10v-29h-10v-20h-9v-29h-10v-19h-10v-20h-9v-19h-10v-19h-10v-20h-9v-9h-10v-20h-10v-19h-9v-19h-10v-10h-10v-19h-9v-10h-10v-19h-10v-10h-9v-10h-10v-19h-10
v-10h-10v-9h-9v-20h-10v-9h-10v-10h-9v-10h-10v-9h-10v-10h-9v-10h-10v-19h-10v-10h-9v-9h-10v-10h-10v-10h-9v-9h-10v-10h-19v-10h-10v-9h-10v-10h-9v-10h-10v-9h-10v-10h-19v-10h-10v-9h-9v-10h-10v-10h-19v-10h-10v-9h-19v-10h-10v-10h-19v-9h-10v-10h-19v-10h-10v-9h-19
v-10h-20v-10h-19v-9h-19v-10h-20v-10h-9v-9h-29v-10h-20v-10h-19v-9h-29v-10h-29v-10h-20v-9h-29v-10h-38v-10h-29v-9h-39v-10h-48v-10h-49v-9h-87v-10h-251v10h-78v9h-58v10h-48v10h-39v9h-29v10h-29v10h-29v9h-29v10h-29v10h-19v9h-29v10h-20v10h-19v9h-19v10h-20v10h-19
v9h-19v10h-20v10h-9v9h-20v10h-19v10h-10v9h-19v10h-10v10h-19v9h-10v10h-9v10h-20v10h-9v9h-10v10h-10v10h-19v9h-10v10h-9v10h-10v9h-10v10h-9v10h-10v9h-10v10h-9v10h-10v9h-10v10h-9v10h-10v9h-10v10h-9v10h-10v9h-10v10h-9v19h-10v10h-10v10h-9v9h-10v20h-10v9h-10v10
h-9v19h-10v10h-10v19h-9v10h-10v19h-10v10h-9v19h-10v20h-10v19h-9v19h-10v20h-10v19h-9v19h-10v20h-10v19h-9v29h-10v20h-10v38h-9v29h-10v20h-10v38h-9v39h-10v48h-10v58h-9v78h-10v261h10v77h9v58h10v39h10v48h9v29h10v29h10v29h9v29h10v29h10v20h9v29h10v19h10v20h9v19
h10v19h10v20h9v9h10v20h10v19h9v19h10v10h10v19h9v10h10v19h10v10h9v19h10v10h10v10h10v19h9v10h10v9h10v10h9v10h10v19h10v10h9v9h10v10h10v10h9v9h10v10h10v10h9v9h10v10h10v10h9v9h10v10h19v10h10v9h10v10h9v10h10v9h19v10h10v10h10v10h19v9h10v10h19v10h10v9h19v10h10
v10h19v9h10v10h19v10h19v9h20v10h19v10h19v9h20v10h19v10h20v9h29v10h19v10h29v9h29v10h29v10h29v9h39v10h38v10h49v9h58v10zM1288 1902v-10h-10v-58h10v-106h-10v-10h10v10h10v10h9v116h-9v48h-10zM1230 1883v-58h10v-58h-10v-10h-48v10h19v29h-19v-10h-29v10h-39v-10h-19
v-10h-10v-29h10v-9h9v-10h-29v-10h-9v10h-10v19h-10v29h-9v29h-10v29h-19v-38h9v-20h10v-29h10v-29h9v-10h10v-9h10v-10h19v10h29v9h19v10h10v10h10v10h9v9h10v10h10v-19h9v-10h49v10h9v9h10v78h-10v19h10v19h-10v10h-9v10h-10zM1685 1873v-10h-10v-58h-10v-48h-9v-29h-10
v-10h-10v-10h20v10h9v10h10v19h10v49h9v48h10v29h-19zM1085 1834v-9h-10v-20h29v20h-9v9h-10zM1462 1834v-9h-9v-58h9v-10h10v-10h29v-9h116v9h10v10h9v19h10v20h-10v29h-9v-10h-10v-10h-10v-9h10v-29h-97v9h-29v10h-9v10h-10v38h-10zM1520 1834v-9h-9v-10h9v-10h10v-9h10v9
h19v-9h19v29h-9v9h-10v-9h-10v-10h-9v10h-10v9h-10zM1839 1805v-19h10v-10h29v-9h19v29h-19v-10h-10v10h-9v9h-20zM1733 1776v-9h-10v-10h-9v-10h-10v-29h10v-10h9v-9h20v-20h-29v-9h-29v9h-20v-9h10v-10h10v-10h19v-9h10v9h19v10h19v19h10v10h10v-10h48v-9h10v-10h19v-10
h19v-9h29v9h20v10h9v19h10v20h10v19h19v49h-19v-20h-10v-19h-10v-29h-9v-20h-10v-9h-29v9h-19v10h9v19h10v49h-48v-10h-10v-9h-10v-30h-29v10h-9v49h-10v9h-29zM979 1757v-10h-20v-9h-9v-10h-10v-29h-10v-29h-9v19h-20v-39h-19v-9h-39v9h-29v-9h-10v-39h-9v-29h9v10h10v29
h10v9h19v-9h58v9h10v10h10v10h38v9h20v10h19v10h10v9h9v49h-9v19h-20v10h-9zM1114 1767h39v-10h-10v-10h-10v-9h-29v19h10v10zM2014 1757v-10h-20v-19h-9v-20h-10v-19h-10v-19h-9v-20h-10v-19h-10v-10h-10v-9h-9v-10h9v10h20v9h10v10h9v10h10v19h10v19h9v20h10v19h10v20h9
v19h-9zM1733 1757h10v-10h9v-19h-19v10h-10v9h10v10zM1830 1738h29v-39h-29v19h-10v10h10v10zM979 1728h9v-10h20v-10h-10v-9h-10v-10h-19v-10h-19v20h9v19h20v10zM1752 1728h10v-10h-10v10zM795 1699v-29h-10v9h-19v-29h29v20h29v19h-10v10h-19zM1414 1612v-10h-49v-10h-58
v-9h-38v-10h-39v-10h-39v-9h-29v-10h-19v-10h-29v-9h-19v-10h-20v-10h-19v-9h-19v-10h-10v-10h-19v-9h-10v-10h-19v-10h-10v-9h-10v-10h-9v-10h-10v-19h-10v-10h-9v-9h-10v-20h-10v-29h-9v-19h-10v-58h-10v-58h10v-58h10v-39h9v-29h10v-19h10v-20h9v-19h10v-19h10v-20h9v-9
h10v-20h10v-9h9v-20h10v-29h10v-19h9v-10h10v-9h10v-20h9v-9h10v9h19v10h-9v10h-10v19h-10v19h-9v10h-10v19h-10v20h-9v9h-10v20h-10v19h-9v10h-10v19h-10v19h-9v10h-10v19h-10v20h-9v19h19v10h39v-10h19v-10h10v-19h9v-19h10v-20h10v-19h9v-19h10v-29h10v-20h9v-19h10v-19
h10v-20h9v-19h10v-10h10v10h9v29h-9v19h-10v20h-10v19h-9v19h-10v20h-10v19h-9v19h-10v20h-10v19h-9v19h-10v20h106v-20h10v-29h10v-29h9v-29h10v-29h10v-29h9v-29h10v-9h19v19h-9v29h-10v29h-10v29h-9v29h-10v29h-10v39h107v-58h9v-49h10v-67h10v9h29v10h-10v48h-10v58h-9
v49h19v9h68v-9h19v-136h20v10h19v106h-10v10h10v10h29v9h39v-9h29v-10h9v-10h-9v-58h-10v-29h10v10h29v58h9v39h97v-10h10v-19h-10v-29h-10v-29h-9v-10h29v29h9v29h10v29h19v10h78v-10h9v-19h-9v-20h-10v-19h-10v-19h-9v-20h-10v-9h39v19h9v19h10v20h10v19h9v19h10v10h68
v-29h-10v-19h-10v-20h-9v-9h-10v-20h-10v-9h-9v-20h-10v-19h19v-10h10v20h10v19h9v10h10v19h10v29h9v19h10v20h10v29h10v48h9v136h-9v38h-10v20h-10v19h-10v19h-9v10h-10v10h-10v9h-9v10h-10v10h-10v9h-9v10h-10v10h-10v9h-19v10h-10v10h-19v9h-19v10h-20v10h-19v9h-29v10
h-19v10h-29v9h-39v10h-39v10h-38v9h-58v10h-58v10h-10zM592 1602v-29h9v-10h10v-9h10v-10h9v-10h10v-19h10v-10h9v-9h10v-10h10v-29h9v48h-9v10h-10v10h-10v19h-9v10h-10v9h-10v10h-9v10h-10v9h-10v10h-9zM553 1563v-29h10v-9h9v-10h10v-10h10v-9h19v-20h10v-9h9v-10h-9v-10
h-10v-9h-10v-10h-9v10h-10v9h-10v-48h-9v-10h-10v-9h-19v9h-10v10h-10v10h-9v9h-10v10h-19v10h-10v9h-19v-19h9v-10h20v-9h9v-10h10v-10h10v-9h19v-10h10v-10h19v-9h10v9h19v10h10v19h9v20h29v9h10v20h10v29h-10v19h-10v10h-9v9h-10v10h-10v10h-9v19h-10v10h-19v9h-10z
M2139 1563v-9h-9v-20h9v10h10v-10h10v-9h9v-10h-58v-10h-19v-9h-10v-10h-9v-68h9v-9h10v-10h10v-10h19v-9h39v9h9v-29h10v-9h19v-10h39v10h29v-10h10v-19h9v-10h10v-10h48v10h10v10h10v9h9v20h10v38h-29v10h-10v-10h-19v-9h-10v-39h-9v10h-10v9h-10v10h-9v10h9v9h10v49h-19
v9h-20v-9h-19v-10h-10v-48h10v-10h-39v10h-19v19h-19v-10h-10v10h-10v10h-19v19h-10v10h-9v19h-10v19h10v20h67v-10h20v-10h19v-9h10v9h9v20h-9v9h-10v10h-10v19h-9v10h-10v10h-10v9h-29zM1211 1554h19v-10h19v-10h20v-9h29v-10h29v-10h68v-9h67v9h68v10h29v10h29v9h29v10
h19v-10h-9v-9h9v-10h20v-10h9v-9h10v-10h10v-10h19v-9h10v-10h9v-10h10v-9h10v-20h9v-9h10v-10h10v-10h9v-19h10v-10h10v-19h9v-19h10v-20h10v-29h9v-38h10v-107h-10v-10h-19v10h10v107h-10v38h-10v29h-9v20h-10v19h-10v19h-9v10h-10v19h-10v10h-9v10h-10v9h-10v10h-9v10
h-10v9h-10v10h-9v10h-10v9h-10v10h-9v10h-20v9h-9v10h-10v10h-10v-10h-29v-10h-9v-9h9v-10h10v-10h10v-9h9v-10h10v-10h10v-9h9v-20h10v-9h10v-20h9v-9h10v-20h10v-19h9v-29h10v-19h10v-39h9v-136h-19v136h-10v39h-9v29h-10v19h-10v19h-9v20h-10v9h-10v20h-9v9h-10v20h-10v9
h-9v10h-10v10h-10v9h-9v10h-10v10h-48v-10h-20v-10h10v-19h10v-19h9v-20h10v-19h10v-29h9v-29h10v-29h10v-48h9v-126h-9v-20h-20v20h10v126h-10v48h-9v29h-10v29h-10v29h-9v19h-10v20h-10v19h-9v19h-10v10h-39v-358h-19v358h-39v-10h-10v-19h-9v-19h-10v-20h-10v-29h-9v-19
h-10v-29h-10v-39h-9v-58h-10v-87h10v-29h-20v19h-9v107h9v58h10v29h10v29h9v29h10v19h10v20h9v19h10v19h10v10h-20v10h-48v-10h-10v-10h-9v-9h-10v-10h-10v-10h-9v-9h-10v-20h-10v-9h-9v-20h-10v-19h-10v-10h-9v-19h-10v-29h-10v-29h-9v-48h-10v-88h10v-19h-10v-10h-10v20
h-9v106h9v39h10v29h10v29h9v19h10v20h10v9h9v20h10v19h10v10h9v9h10v10h10v19h9v10h10v10h10v19h-20v10h-19v-10h-10v-10h-19v-9h-10v-10h-9v-10h-10v-9h-10v-10h-9v-10h-10v-9h-10v-10h-9v-10h-10v-9h-10v-10h-9v-10h-10v-19h-10v-10h-9v-19h-10v-19h-10v-29h-9v-29h-10
v-58h-10v-39h10v-39h-19v19h-10v78h10v48h9v29h10v20h10v19h9v19h10v10h10v19h9v10h10v19h10v10h9v10h10v9h10v10h9v10h10v9h10v10h9v10h20v9h9v10h10v10h19v9h-9v20zM495 1496v-29h19v-29h29v29h29v9h-9v20h-10v-10h-19v-19h-10v29h-29zM2130 1467v-20h9v-9h20v29h-29z
M863 1438v-10h-10v-10h-10v-9h-10v-10h-9v-19h-10v-10h-10v-19h-9v-20h-10v-19h-10v-19h-9v-10h-10v-29h-10v-19h-9v-39h-10v68h10v29h-10v-10h-10v-19h-9v-20h-10v-29h-10v-19h-9v-29h-10v-116h-10v48h-9v39h-10v29h-10v19h-9v-29h-10v-135h10v-58h9v-29h-9v19h-10v19h-10
v29h-9v20h-10v19h-10v-19h-9v-97h9v-39h10v-19h-10v10h-9v9h-10v10h-10v10h-9v9h-10v10h-10v19h-9v-67h9v-39h10v-29h10v-19h9v-10h10v-19h-10v9h-9v10h-10v10h-10v9h-9v10h-10v10h-10v9h-9v-29h9v-19h10v-29h10v-19h9v-20h10v-19h10v-10h9v-19h-9v10h-10v9h-10v10h-9v10
h-20v9h-9v10h-10v-39h10v-29h9v-19h10v-20h10v-19h19v-10h19v-9h20v-10h-29v10h-20v9h-29v10h-19v-29h10v-19h9v-10h10v-19h10v-10h9v-19h10v-10h10v-10h-10v-9h-19v-10h9v-19h10v-10h10v-10h9v-9h10v-10h19v-10h10v-9h19v-10h29v-10h10v10h19v-10h-9v-9h9v-10h-38v10h-39
v-10h-39v-19h20v-10h9v-10h20v-9h19v-10h48v-10h-87v-9h-9v-20h19v-9h29v-10h48v-10h-19v-9h-19v-10h-10v-10h-19v-9h-10v-10h10v-10h67v-9h-19v-10h-19v-10h-10v-9h-10v-10h126v-10h-10v-10h-9v10h-58v-10h-10v-9h-10v-20h29v10h20v10h19v-10h-10v-10h-9v-29h67v10h20v10
h19v-10h-10v-10h-9v-9h-10v-29h-10v-20h29v10h20v10h19v9h10v10h9v-19h-9v-20h-10v-38h19v9h20v10h10v10h9v9h10v20h10v9h9v-19h-9v-29h-10v-29h10v-10h9v10h20v10h9v9h10v10h10v19h9v10h10v19h10v29h-10v10h-10v19h10v-9h10v-10h9v-10h20v-9h9v-10h10v-10h19v-9h39v9h19v10
h78v-10h19v-9h10v-10h-10v-39h-10v-58h78v-9h-10v-10h-10v-39h10v-9h10v58h9v9h20v-9h97v-10h9v10h97v9h19v-9h10v9h77v87h-19v10h10v10h9v9h10v10h77v-10h29v-9h29v9h20v10h9v10h20v9h9v10h10v10h10v9h9v20h-9v9h-20v10h-9v213h-10v19h-10v10h-9v19h-10v10h19v10h10v38h10
v-48h-10v-29h10v10h9v-39h10v-77h10v29h9v19h10v29h10v39h9v193h-9v29h-880v-10h-20v-9h-19v-39h-10v-155h10v-29h10v-38h9v-20h10v-29h10v-9h9v9h-9v20h9v58h10v9h-10v39h10v-29h10v10h9v9h-9v29h9v-19h20v10h9v9h20v-9h-10v-10h-10v-10h-9v-9h-10v-10h-10v-19h-9v-20h-10
v-116h10v-67h-10v-20h-10v-10h-9v-9h-20v-20h-9v-9h-10v19h10v19h19v10h10v10h9v39h-9v9h9v58h-19v20h-10v29h-9v19h-10v29h-10v39h-9v9h-39v10h-10v10h20v-10h29v39h-20v9h10v10h10v10h-10v9h10v10h-10v10h10v67h-49v20h-9v9h9v10h-9v19h9v39h10v10h-10v10h10v9h10v20h9v19
h10v10h10v9h9v10h10v10h10v19h-10v19h-10v20h-9v29h-10v-29h-10v9h-9v39h-10v29h-10v19h-9v39h-10v39h-10v222h-10v-19h-9v-39h-10v-126h-10v223h10v39h10v38h9v29h10v29h10v39h10v29h9v10h-9zM1975 1438v-29h10v-39h9v-29h10v-39h10v-29h9v-38h10v-59h10v-48h-10v-10h10
v-58h-10v-67h-10v145h-9v29h-10v29h-10v-39h10v-126h-10v-77h-9v-29h-10v-39h-10v-29h-9v-29h-10v-19h19v-10h-9v-67h9v-10h-19v-19h-10v-10h-10v-10h-9v-19h-10v-10h-10v-19h-9v-10h-10v-19h-10v-39h10v-48h39v-10h-10v-10h-10v10h-19v-19h19v-10h-9v-48h9v9h10v-19h-19
v-58h-10v-39h-10v-29h-9v-29h-10v-19h-10v-29h-9v-10h-20v-106h10v-10h19v-10h20v-9h19v-10h-19v-10h-10v-9h-10v-10h-9v-10h-10v-9h-10v-10h10v-10h-19v-19h9v-29h10v-19h10v-20h9v-9h10v-10h19v-10h10v58h-10v29h-9v20h-10v9h-10v10h10v19h-10v10h20v-29h9v-19h10v-20h10
v-9h9v-10h10v-10h10v-9h9v-10h10v-10h20v49h-10v29h10v-20h9v-9h10v-10h10v-10h19v-9h29v9h-10v39h-9v19h9v-9h20v-10h19v-10h29v29h-10v20h-9v19h19v-10h77v10h-9v19h-10v20h10v-10h19v-10h29v29h-19v10h-49v-10h10v-9h-19v9h-10v10h-10v10h-19v10h29v-10h116v10h-10v9h-9
v10h-20v10h-19v9h-19v10h29v-10h58v10h9v10h-9v9h-10v10h-19v10h-10v9h-29v10h-135v-10h9v-9h10v-10h10v-10h-20v10h-9v10h-10v9h-10v10h-29v10h116v9h10v20h-19v9h77v-9h-48v-10h9v-19h49v-10h38v10h29v9h20v20h-10v9h-77v10h38v10h20v9h19v10h19v10h10v9h-10v10h-19v10
h-48v-10h-29v-10h-20v10h10v10h10v19h9v-10h10v10h29v10h19v9h20v10h9v10h10v9h10v10h9v10h10v19h10v10h-20v9h-9v10h9v10h10v9h10v20h9v9h10v20h10v19h9v29h-19v-10h-29v10h10v10h9v19h10v29h10v20h9v48h-9v-10h-10v-9h-10v-10h-19v-10h-10v-9h-9v19h9v10h10v19h10v19h9v29
h10v29h10v20h-20v-10h-9v-10h-10v-9h-10v-10h-9v-10h-10v20h10v9h9v29h10v39h10v48h9v29h-9v-9h-10v-10h-10v-10h-9v-9h-10v-20h-10v-9h-9v-10h-10v-10h-10v-9h-9v19h9v19h10v29h10v126h-20v-19h-9v-29h-10v-20h-10v-29h-9v-19h-10v-19h-10v29h10v19h10v48h9v97h10v10h-10
v67h-9v10h-10v-29h-10v-29h-9v-39h-10v-38h-10v125h-9v30h-10v19h-10v19h-9v29h-10v10h-10v10h-9v-20h9v-67h-9v29h-10v29h-10v19h-9v19h-10v20h-10v9h-9v20h-10v19h-10v19h-9v10h-10v10h-10v19h-9v10h-10zM2246 1428h19v-10h10v-29h-10v10h-10v10h-9v19zM2391 1418v-29h19
v29h-19zM418 1409v-10h9v-10h10v-9h19v-10h10v-10h19v-9h10v-10h10v-29h-10v-10h-10v-9h-19v9h-19v-9h9v-10h10v-29h-10v-19h-9v-20h-10v-19h-10v-10h-9v-10h-20v-9h-19v9h-19v10h-10v-19h10v-10h19v-10h58v10h10v10h9v19h10v10h10v29h9v39h10v9h10v10h19v19h10v29h-10v10
h-10v10h-9v9h-10v10h-10v10h-9v9h-10v20h-48zM2333 1380h19v-10h10v-19h-10v-10h-10v19h-9v20zM2313 1341h10v-10h-10v10zM2323 1331h10v-9h-10v9zM360 1264v-29h29v-10h-10v-10h10v-9h19v9h10v20h9v9h10v10h-10v10h-29v-29h-9v29h-29zM2110 1206h10v-59h-10v59zM717 1196
h10v-145h-10v145zM2110 1099h10v-10h-10v10zM2110 1080h10v-10h-10v10zM2110 1060h10v-19h-10v19zM669 1051h10v-29h-10v29zM2159 1041h9v-19h-9v19zM727 1012h10v-10h-10v10zM814 993h10v-39h-10v39zM2101 993h9v-10h-9v10zM2014 973h9v-29h-9v29zM737 964h9v-10h-9v10z
M824 944h9v-29h-9v29zM2091 944h10v-9h-10v9zM630 935h10v-20h-10v20zM2004 935h10v-29h-10v29zM746 925h10v-19h-10v19zM640 915h10v-19h-10v19zM708 915h9v-9h-9v9zM833 915h10v-29h-10v29zM2081 915h10v-9h-10v9zM2120 915h10v-19h-10v19zM1994 906h10v-29h-10v-20h-9v29
h9v20zM2188 906h9v-20h-9v20zM650 896h9v-19h-9v19zM717 896h10v-10h-10v10zM756 896h10v-10h-10v10zM843 886h10v-19h-10v19zM2072 886h9v-9h-9v9zM2110 886h10v-9h-10v9zM2178 886h10v-19h-10v19zM659 877h10v-20h-10v20zM766 877h9v-20h-9v20zM582 867h10v-19h-10v19z
M2062 867h10v-10h-10v10zM2101 867h9v-10h-9v10zM2168 867h10v-10h-10v10zM669 857h10v-19h-10v19zM775 857h10v-19h-10v19zM853 857h10v-19h-10v19zM1975 857h10v-29h-10v29zM2159 857h9v-19h-9v19zM592 848h9v-10h-9v10zM901 838v-10h10v10h-10zM2052 848h10v-10h-10v10z
M2091 848h10v-10h-10v10zM2236 848h10v-10h-10v10zM601 838h10v-10h10v-9h-20v19zM679 838h9v-10h-9v10zM746 838h10v-10h-10v10zM785 838h10v-19h-10v19zM863 838h9v-19h-9v19zM1704 828v-9h-19v-10h58v10h-29v9h-10zM2149 838h10v-19h-10v19zM688 828h10v-19h-10v19z
M1965 828h10v-9h-10v9zM2043 828h9v-9h-9v9zM2226 828h10v-9h-10v9zM756 819h10v-10h-10v10zM795 819h9v-10h-9v10zM2072 819h9v-20h-9v20zM2139 819h10v-20h-10v-19h-9v-10h-10v20h10v19h9v10zM2217 819h9v-10h-9v10zM621 809h9v-10h-9v10zM698 809h10v-19h-10v19zM766 809
h9v-19h-9v19zM872 809h10v-10h-10v10zM1646 799v-9h-97v-10h10v-10h19v10h20v-10h-10v-9h19v-10h39v10h10v-20h58v-9h9v9h20v-9h9v9h29v10h-9v10h19v-10h39v10h19v9h19v10h10v10h-87v9h-29v-9h-10v-10h-19v-19h-10v-10h-19v19h-10v10h-19v19h-29zM1685 799v-9h9v9h-9z
M2033 809h10v-10h-10v10zM2207 809h10v-10h-10v10zM804 799h10v-9h-10v9zM882 799h10v-9h9v-10h10v-58h-10v48h-9v10h-10v19zM2023 799h10v-9h-10v9zM2062 799h10v-9h-10v9zM2197 799h10v-9h-10v9zM640 790h10v-10h-10v10zM708 790h9v-10h10v-19h-10v9h-9v20zM775 790h10
v-10h-10v10zM814 790h10v-10h-10v10zM2014 790h9v-10h-9v10zM2052 790h10v-10h-10v10zM2188 790h9v-10h-9v10zM785 780h10v-10h-10v10zM824 780h9v-10h-9v10zM1810 780h10v-10h-10v10zM1839 780h10v-10h-10v10zM2004 780h10v-19h-10v19zM2178 780h10v-10h-10v10zM795 770h9
v-19h-9v19zM2043 770h9v-9h-9v9zM2110 770h10v-9h-10v9zM2168 770h10v-9h-10v9zM2284 770h10v-19h-10v-10h-9v-9h-10v-10h-19v10h9v9h10v10h10v10h9v9zM553 761h10v-10h-10v10zM727 761h10v-10h9v-19h-9v9h-10v20zM833 761h20v-10h10v-10h-20v10h-10v10zM1675 761h19v-10
h-19v10zM1733 761h19v-10h-19v10zM1994 761h10v-39h-10v19h-19v10h19v10zM2033 761h10v-10h-10v10zM2101 761h9v-20h-9v20zM563 751h9v-10h-9v10zM679 751h9v-10h-9v10zM804 751h10v-10h-10v10zM2023 751h10v-10h-10v10zM572 741h10v-9h-10v9zM814 741h10v-9h-10v9zM863 741
h9v-9h-9v9zM1965 741h10v-9h-10v9zM2014 741h9v-19h-9v19zM2091 741h10v-9h-10v9zM582 732h10v-10h-10v10zM746 732h10v-10h-10v10zM824 732h9v-20h-9v20zM843 732h10v-39h10v-29h9v-19h-9v9h-20v10h-10v10h20v9h-10v20h-10v9h10v20zM872 732h20v-10h-20v10zM2081 732h10
v-10h-10v10zM2139 732h10v-10h-10v10zM592 722h9v-10h-9v10zM698 722h10v-10h-10v10zM756 722h10v-10h-10v10zM892 722h9v-10h-9v10zM911 722h10v-10h-10v10zM2004 722h10v-10h-10v10zM2072 722h9v-19h-9v19zM2130 722h9v-10h-9v10zM708 712h9v-9h-9v9zM766 712h9v-19h-9v19
zM1985 712h19v-9h-10v-20h-9v29zM2120 712h10v-9h-10v9zM717 703h10v-20h-10v20zM2062 703h10v-10h-10v10zM775 693h29v-10h-9v-19h9v-19h-19v29h-10v19zM2033 693h29v-29h-10v-29h-9v10h-10v19h10v19h-10v10zM2110 693h10v-10h-10v10zM727 683h10v-9h-10v9zM814 683h10v-9
h-10v9zM1975 683h10v-9h29v-10h-20v-10h-19v-9h-10v19h10v19zM2014 683h9v-9h-9v9zM2101 683h9v-9h-9v9zM737 674h9v-10h-9v10zM2091 674h10v-20h-10v-9h-10v19h10v10zM2294 674h10v-10h-10v10zM543 664h10v-10h-10v10zM640 664h10v-10h-10v10zM746 664h10v-10h-10v10z
M2284 664h10v-10h-10v10zM553 654h10v-9h-10v9zM756 654h10v-19h-10v19zM2188 654h9v-9h-9v9zM2275 654h9v-19h-9v19zM804 645h10v-10h10v-20h9v-9h-19v9h-29v-29h-10v39h20v10h9v10zM1956 645h9v-10h-9v10zM2023 645h10v-10h10v-10h19v-48h-10v38h-19v-9h-29v9h10v10h9v20z
M2072 645h9v-10h-9v10zM2178 645h10v-10h-10v10zM563 635h9v-10h-9v10zM659 635h10v-10h-10v10zM766 635h9v-10h-9v10zM1946 635h10v-10h-10v10zM2062 635h10v-10h-10v10zM2168 635h10v-10h-10v10zM2265 635h10v-10h-10v10zM572 625h10v-10h-10v10zM669 625h10v-10h-10v10z
M1936 625h10v-10h-10v10zM2159 625h9v-10h-9v10zM2255 625h10v-10h-10v10zM582 615h10v-9h-10v9zM679 615h9v-9h-9v9zM1926 615h10v-9h-10v9zM2149 615h10v-9h-10v9zM592 606h9v-10h-9v10zM688 606h10v-10h-10v10zM833 606h10v-10h-10v10zM1917 606h9v-10h-9v10zM1994 606
h10v-10h-10v10zM2139 606h10v-10h-10v10zM601 596h10v-10h-10v10zM698 596h10v-10h-10v10zM843 596h10v-10h-10v10zM1985 596h9v-10h-9v10zM2130 596h9v-10h-9v10zM611 586h10v-9h-10v9zM708 586h9v-9h-9v9zM785 586h10v-19h-10v19zM1975 586h10v-9h-10v9zM2120 586h10v-19
h-10v-10h-10v20h10v9zM2217 586h9v-9h-9v9zM2294 586h29v-9h-19v-10h-20v10h10v9zM621 577h9v-10h-9v10zM717 577h10v-10h-10v10zM1888 577h19v-20h-10v10h-9v10zM1965 577h10v-10h-10v10zM2043 577h9v-20h-9v20zM2207 577h10v-10h-10v10zM563 567h9v-10h-9v10zM630 567h10
v-10h-10v10zM727 567h10v-10h-10v10zM1956 567h9v-10h-9v10zM2197 567h10v-10h-10v10zM2265 567h19v-10h-19v10zM572 557h10v-9h-10v9zM737 557h29v-9h-20v-29h-9v38zM795 557h9v-9h-9v9zM2033 557h10v-29h-20v-9h-9v19h19v19zM2081 557h29v-19h-9v10h-20v9zM2188 557h9v-9
h-9v9zM2255 557h10v-9h-10v9zM592 548h9v-10h-9v10zM659 548h10v-10h-10v10zM775 548h10v-10h-10v10zM804 548h10v-10h10v-19h-10v9h-19v10h9v10zM2052 548h20v-10h-20v10zM2236 548h10v-10h-10v10zM601 538h10v-10h-10v10zM669 538h10v-10h-10v10zM1888 538h9v-10h-9v10z
M2091 538h10v-29h-10v29zM2159 538h9v-10h-9v10zM611 528h10v-9h-10v9zM679 528h9v-9h-9v9zM2149 528h10v-9h-10v9zM2217 528h9v-9h-9v9zM698 519h10v-10h-10v10zM824 519h9v-10h-9v10zM2004 519h10v-10h-10v10zM2043 519h9v-10h-9v10zM2139 519h10v-10h-10v10zM2207 519h10
v-10h-10v10zM640 509h10v-10h-10v10zM708 509h9v-10h-9v10zM746 509h10v-19h-10v19zM843 509h10v-10h-10v10zM1985 509h9v-10h-9v10zM2081 509h10v-19h-10v19zM2120 509h10v-10h-10v10zM650 499h9v-9h-9v9zM717 499h10v-9h-10v9zM853 499h10v-9h-10v9zM1975 499h10v-9h-10v9
zM2110 499h10v-9h-10v9zM2178 499h10v-9h-10v9zM659 490h20v-10h-20v10zM737 490h9v-10h10v10h10v-10h9v-10h10v-9h10v-10h-20v10h-29v9h-29v-19h10v-10h10v-9h9v-10h-19v10h-10v9h-9v10h-10v10h-10v9h-9v10h19v-10h10v10h29v10zM1965 490h10v-10h-10v10zM2072 490h9v-10h10
v10h10v-10h38v-10h10v-9h-10v-10h-9v-10h-10v29h-29v-9h-19v-10h-29v10h9v9h10v10h10v10zM2159 490h19v-10h-10v-10h-19v10h10v10zM534 470h19v-9h10v-10h19v-10h19v-9h-38v9h-20v10h-19v10h10v9zM1907 470h19v-9h-9v-20h-10v29zM2294 470h10v-9h9v-10h-19v-10h-19v-9h-29
v-10h-29v10h19v9h19v10h20v10h19v9zM795 451h19v-10h19v-9h-29v9h-9v10zM2023 451h20v-10h-10v-9h-19v9h9v10zM882 441h19v-9h-9v-10h-10v19zM1936 441h20v-19h-10v10h-10v9zM2110 441h10v-9h-10v9zM601 432h20v-10h-20v10zM2004 432h10v-10h-10v10zM2091 432h19v-10h-19v10
zM630 422h29v-10h-29v10zM746 422h10v-10h-10v10zM892 422h9v-10h-9v10zM998 422h10v-39h-10v39zM1936 422h10v-10h-10v10zM2081 422h10v-10h-10v10zM2178 422h29v-10h-29v10zM659 412h29v-9h97v-10h-68v-10h-19v10h-19v10h-20v9zM1162 412h126v-9h19v-10h10v-10h-19v10h-20
v10h-116v9zM1520 412h116v-9h-106v-10h-29v10h19v9zM1926 412h10v-9h-10v9zM2149 412h29v-9h-19v-10h-20v-10h-19v10h-68v10h97v9zM843 403h10v-10h-10v10zM1985 403h9v-10h-9v10zM785 393h19v-10h-19v10zM853 393h10v-10h-10v10zM1066 393h19v-10h-19v10zM1482 393h19v-10
h-10v-9h-9v-10h-10v19h10v10zM1723 393h10v-10h-10v10zM2033 393h19v-10h-19v10zM717 383h20v-9h9v-10h-58v10h29v9zM814 383h10v-9h-10v9zM863 383h9v-9h-9v9zM1317 383h10v-9h-10v9zM1733 383h19v-9h-19v9zM1810 383h10v-38h-10v38zM1965 383h10v-9h-10v9zM2014 383h9v-9
h-9v9zM2110 383h10v-9h29v-10h-58v10h19v9zM1327 374h9v-20h-9v20zM1752 374h10v-10h-10v10zM1946 374h19v-10h-9v-10h-39v10h29v10zM746 364h29v-10h-29v10zM843 364h29v-10h-29v10zM1462 364h10v-10h-10v10zM1965 364h29v-10h-29v10zM2072 364h19v-10h-19v10zM804 354h20
v-9h-10v-10h-10v19zM2014 354h29v-9h-10v-10h-10v10h-9v9zM1104 345h20v-10h-10v-10h10v10h29v10h116v-10h9v-10h10v-9h10v-10h9v-10h10v-19h10v-10h19v-9h29v-10h-10v-10h-19v-19h-10v-29h-9v-29h-10v-19h-19v-10h-20v-10h-29v-9h-58v-10h-77v10h-19v9h106v10h-106v-10h-20
v10h10v10h-19v9h-10v10h-10v10h-9v19h-10v68h10v19h9v19h10v10h10v10h9v9h20v-9h9v9h-9v10h9v10zM1530 345h126v-10h19v-10h19v10h20v-10h9v-9h10v-10h10v-10h9v-9h10v-20h10v-87h-10v-19h-10v-10h-19v-9h-19v-10h-116v-10h116v-9h-29v-10h-78v10h-48v9h-39v10h-19v10h-10v9
h-9v20h-10v29h-10v29h-9v9h-10v10h-19v10h38v9h10v10h10v10h9v19h10v10h10v9h9v10h10v10zM1675 345h19v-10h-19v10zM659 335h10v-10h-10v10zM824 335h9v-10h-9v10zM2004 335h10v-10h-10v10zM669 325h19v-9h-19v9zM843 325h10v-9h-10v9zM1985 325h9v-9h-9v9zM2149 325h19v-9
h-19v9zM688 316h10v-10h-10v10zM892 316h29v-10h-10v-10h-29v10h10v10zM1926 316h20v-10h10v-10h-30v20zM2139 316h10v-10h-10v10zM708 306h9v-10h-9v10zM2120 306h10v-10h-10v10zM737 296h19v-9h-19v9zM853 296h19v-9h-9v-10h-20v10h10v9zM1965 296h20v-9h9v-10h-19v10h-10
v9zM2081 296h20v-9h-20v9zM766 287h58v-10h-58v10zM2014 287h58v-10h-58v10zM737 277h29v-10h-29v10zM863 277h9v-10h-9v10zM1965 277h10v-10h-10v10zM2072 277h29v-10h-29v10zM659 267h78v-9h-20v-20h10v-9h116v-10h-19v-10h-20v10h-145v10h39v9h10v20h-49v9zM882 267h19
v-9h-19v9zM1936 267h20v-9h-20v9zM921 258h19v-10h-19v10zM1897 258h20v-10h-20v10zM911 248h10v-10h-10v10zM1917 248h9v-10h-9v10zM843 238h29v-9h-29v9zM1936 238h10v-9h-10v9zM1965 238h29v-9h-29v9zM892 229h9v-20h-19v10h10v10zM1365 219h10v-19h-10v19zM1424 219h9
v-10h-9v10zM1946 219h10v-10h-10v10zM785 209h19v-9h-9v-20h19v-9h-29v9h-19v10h9v10h10v9zM930 209h10v-9h10v-10h-10v-10h-10v10h-9v10h9v9zM1433 209h10v-19h10v-29h-10v19h-10v29zM1897 209h10v-9h10v-20h-20v10h-9v10h9v9zM969 200h10v-10h-10v10zM1356 200h9v-29h-9
v29zM1859 200h19v-10h-19v10zM1385 190h10v-10h9v10h20v-29h9v-29h10v-19h10v-30h9v-19h10v-19h10v-29h9v-10h-9v-19h-10v-10h-19v10h-20v-10h-9v-10h-20v-9h-9v9h-10v10h-20v10h-9v-10h-20v10h-19v48h10v19h9v20h10v19h10v29h9v29h10v29h10v10zM717 180h49v-9h-49v9z
M843 180h39v-9h-39v9zM940 180h19v-9h-19v9zM1888 180h9v-9h-9v9zM1956 180h48v-9h19v-10h-29v10h-38v9zM2023 180h29v-9h-29v9zM2072 180h48v-9h-48v9zM688 171h29v-10h-29v10zM814 171h29v-10h-29v10zM959 171h20v-10h-20v10zM1346 171h10v-20h-10v20zM1868 171h10v-10
h-10v10zM2120 171h29v-10h-29v10zM659 161h29v-10h-29v10zM804 161h10v-10h-10v10zM1839 161h10v-10h-10v10zM2023 161h20v-10h-20v10zM785 151h19v-19h49v-10h-58v10h-10v19zM1849 151h10v-9h-10v9zM2043 151h9v-9h10v-10h10v-10h-20v10h-9v19zM766 132h19v-10h-19v10z
M863 132h29v-10h-29v10zM1046 132h10v-10h-10v10zM1714 132h9v-10h-9v10zM1956 132h19v-10h-19v10zM1985 132h29v-10h-20v-9h-19v9h10v10zM2023 132h20v-10h-20v10zM746 122h20v-9h-20v9zM853 122h10v-9h-10v9zM1056 122h10v-9h-10v9zM1288 122h10v-9h-10v9zM1501 122h10v-9
h-10v9zM1743 122h9v-9h-9v9zM2072 122h19v-9h-19v9zM727 113h19v-10h-19v10zM843 113h10v-10h-10v10zM940 113h10v-10h-10v10zM1066 113h9v-10h-9v10zM1278 113h10v-10h-10v10zM1511 113h19v-10h19v-10h-29v10h-9v10zM1723 113h20v-10h-10v-10h-19v10h9v10zM1888 113h19v-10
h-19v10zM1994 113h10v-10h-10v10zM833 103h10v-10h10v-10h-10v-9h-19v-10h-20v10h10v9h10v10h9v10zM911 103h19v-10h-19v10zM1075 103h20v-10h19v-10h-29v10h-10v10zM1249 103h29v-10h-29v10zM1907 103h19v-10h-19v10zM2004 103h10v-20h9v-9h-29v19h10v10zM882 93h29v-10
h-10v-19h-9v19h-10v10zM1230 93h19v-10h-19v10zM1549 93h20v-10h-20v10zM1694 93h20v-10h-20v10zM1926 93h10v-10h-10v10zM1946 93h10v-10h-10v10zM698 83h10v-9h-10v9zM1317 83h10v-9h-10v9zM1936 83h10v-9h10v-20h9v-9h-58v9h39v10h-10v19zM1307 74h10v-20h-10v20z
M1482 74h9v-10h-9v10zM2023 74h10v-10h-10v10zM795 64h9v-10h-9v10zM882 64h10v-10h38v-9h-58v9h10v10zM1017 64h10v-10h-10v10zM1491 64h10v-19h-10v19zM1878 64h19v-19h-9v9h-10v10zM2033 64h10v-10h-10v10zM785 54h10v-9h-10v9zM1027 54h10v-9h9v-10h10v-10h-19v10h-10
v19zM1298 54h9v-19h-9v-58h-10v68h10v9zM1772 54h9v-9h-9v9zM2043 54h9v-9h-9v9zM863 45h9v-10h-9v10zM930 45h10v-10h-10v10zM1501 45h10v-20h-10v20zM1762 45h10v-10h-10v10zM1897 45h10v-10h-10v10zM1965 45h10v-10h-10v10zM2052 45h20v-10h-20v10zM853 35h10v-10h-10v10
zM921 35h9v-10h39v-9h-48v-10h-10v19h10v10zM1743 35h19v-10h-10v-9h-29v9h20v10zM1907 35h10v-10h9v-9h-29v9h10v10zM1975 35h10v-10h-10v10zM843 25h10v-9h-10v9zM988 16v-29h-9v-20h-10v-38h-10v-39h29v10h10v9h10v20h9v9h10v29h10v20h-20v9h-9v10h-10v10h-10zM1056 25
h19v-9h-19v9zM1511 25h9v-38h-9v38zM1868 25h20v-9h-20v9zM1985 25h9v-9h-9v9zM833 16h10v-10h-10v10zM1395 6v-29h9v29h-9zM1926 16h10v-20h-10v20zM1994 16h10v-10h-10v10zM901 6h10v-10h-10v10zM1124 -4v-58h-20v-38h-9v-10h9v-19h10v9h10v10h9v19h10v20h10v9h-10v10h10
v10h9v19h10v19h-48zM1627 -4v-9h-10v-29h10v9h9v-19h-19v-39h10v-9h9v-10h20v-10h19v10h-10v39h-9v67h-10v-29h-10v29h-9zM1665 -4v-19h10v-19h10v-10h9v-10h-9v-9h9v-20h10v-19h10v-10h9v-9h10v9h10v39h-10v29h-10v-19h-29v9h20v39h-10v10h-19v9h-20zM2004 6h10v-10h-10v10
zM1182 -13v-20h9v20h-9zM1762 -13v-10h-10v-10h-19v-9h10v-29h9v-20h10v-9h10v-10h9v-10h20v-9h9v58h-9v29h-10v9h-10v20h-19zM1936 -4h10v-9h-10v9zM1066 -23v-19h9v-10h-19v19h-10v-9h-9v-39h-10v-10h10v-38h9v9h10v10h19v19h10v10h10v39h9v9h-9v10h-29zM1501 -13h10v-10
h-10v10zM1211 -23h9v-19h-9v19zM1298 -23h19v-10h-19v10zM1491 -23h10v-10h-10v10zM1075 -33h20v-9h-20v9zM1578 -33h10v-9h-10v9zM1752 -33h10v-9h-10v9zM1772 -42h9v-10h-9v10zM1124 -62h19v-9h-19v9zM1172 -71v-49h10v49h-10zM563 -91v-9h-20v-10h-9v-10h-10v-29h10v-19
h9v-10h10v-9h10v-20h9v-9h-9v-10h-29v10h-10v9h-10v10h-9v19h9v10h-9v10h-10v9h-10v-9h-9v-58h9v-10h10v-10h19v-9h20v-10h38v10h20v9h9v20h10v9h-10v20h-9v19h-10v10h-10v9h-9v20h9v9h20v-9h19v-10h10v-39h9v-9h20v58h-10v9h-10v10h-9v10h-20v9h-38zM1269 -91h9v-19h-9v19z
M1395 -91h9v-29h-9v29zM1453 -91h9v-29h-9v29zM1491 -91h10v-29h-10v29zM1578 -91h10v-19h-10v19zM1240 -100h9v-10h-9v10zM1520 -100h10v-10h-10v10zM1549 -100h10v-10h-10v10zM1346 -110h10v-10h-10v10zM1201 -129v-20h10v-9h19v-10h10v39h-10v-10h-10v10h-19zM1540 -129
v-10h-10v-39h19v49h-9zM1559 -129v-10h10v-19h-10v-10h19v39h-19zM1588 -129v-29h10v29h-10zM2149 -129v-10h-19v-10h-10v-9h-10v-10h-9v-48h9v-10h10v-10h48v10h20v10h19v9h39v-29h-10v-9h-10v-10h-58v-10h-9v-9h9v-10h58v10h20v9h9v10h10v10h10v19h9v29h-9v10h-10v9h-68
v-9h-19v-10h-19v-10h-29v29h9v10h20v10h19v-10h19v10h10v9h10v10h-20v10h-48zM1278 -139v-48h10v-10h19v48h-9v10h-20zM1317 -139v-58h19v-10h10v58h-10v10h-19zM1365 -139v-10h-9v-58h9v-9h30v67h-20v10h-10zM1424 -139v-10h-20v-58h10v-9h19v9h10v68h-19zM1472 -139v-10
h-10v-58h10v10h10v10h9v-10h20v10h9v48h-19v-48h-10v29h-9v19h-10zM679 -168v-10h-10v-9h-10v-20h-9v-9h-10v-10h-10v-10h-9v-9h-10v-10h-10v-10h-9v-9h-10v-20h19v-9h10v9h10v10h9v10h10v9h19v-9h10v-10h19v-10h58v10h10v10h10v9h9v-19h-9v-10h-10v-9h-10v-20h-9v-9h-10
v-10h-10v-10h-9v-19h9v-10h20v-9h19v-10h10v-10h19v-9h19v-10h20v19h9v10h-19v10h-19v9h-20v10h-19v19h10v10h9v10h20v-10h19v-10h10v-9h19v-10h10v10h10v19h-10v10h-20v9h-19v10h-19v10h9v9h10v10h19v-10h10v-9h20v-10h19v-10h19v10h10v19h-19v10h-20v10h-19v9h-20v10h-9
v10h-29v-10h-10v-10h-10v39h-9v10h-10v9h-10v10h-19v10h-10v9h-19v10h-19zM2052 -207v-9h-9v-10h-20v-10h-9v-9h-20v-10h-9v-10h-20v-9h10v-10h10v-10h9v-9h10v-20h10v-9h9v-10h10v-10h10v-9h9v-10h10v-10h10v-9h9v9h10v10h19v10h10v9h19v10h10v10h19v9h10v20h-10v9h-9v-9
h-20v-10h-9v-10h-20v-9h-9v-10h-29v19h-10v10h10v10h9v9h20v10h9v10h10v19h-29v-10h-19v-9h-10v-10h-10v-10h-19v10h-10v10h-9v9h19v10h10v10h19v9h10v10h19v10h-10v9h-29zM698 -207h10v-9h19v-10h10v-29h-10v-10h-29v10h-19v10h-10v9h10v10h9v10h10v9zM1907 -294v-9h-19
v-10h-10v-10h-10v-9h-9v-68h9v-10h10v-19h19v-10h10v-10h78v10h19v10h10v10h9v19h10v29h-10v10h-19v-10h-10v-29h-9v-10h-10v-9h-49v9h-9v10h-10v10h-10v29h-9v9h9v20h20v9h39v-9h19v9h19v10h-9v10h-20v9h-58zM930 -323v-9h-19v-10h-19v-10h-10v-19h-10v-19h-9v-59h9v-9h10
v-10h19v-10h29v-9h29v9h20v10h19v19h-19v10h-20v-10h-9v-9h-20v9h-19v10h-10v49h10v9h10v10h9v10h10v9h39v-9h9v-10h10v-29h19v-10h20v-19h-10v-20h-10v-19h-9v-19h-10v-20h10v-9h19v9h10v20h9v9h10v20h10v19h9v20h10v19h10v29h-39v-19h-10v-20h-9v39h-10v19h-10v10h-19v10
h-19v9h-49zM1772 -361v-10h-29v-10h-20v-9h-29v-20h10v-19h-10v10h-19v9h-77v-9h-20v-10h-9v-10h-10v-10h-10v20h-96v-10h-29v-126h9v-19h39v19h-10v39h10v10h68v29h-39v-10h-39v39h87v-58h10v-20h10v-9h9v-10h10v-10h87v10h19v10h10v9h10v20h9v48h10v-19h10v-20h9v-19h10
v-10h10v10h19v29h-10v19h-9v10h9v10h29v9h20v-9h9v-10h10v-19h10v-10h19v10h19v9h-9v10h-10v19h-10v10h-9v10h-20v10h10v38h-10v10h-9v10h-58zM1153 -400v-10h-10v-9h-10v-10h-9v-10h-10v-10h-10v-19h-9v-10h-10v-9h-10v-10h-9v-10h-10v-9h-10v-10h10v-10h29v10h10v10h9v9
h10v-9h29v-10h19v-29h10v-10h29v155h-10v10h-38zM1772 -390h38v-10h10v-19h-10v-10h-29v-10h-29v20h-9v19h29v10zM1259 -419v-10h-10v-49h-9v-48h-10v-48h77v-10h49v29h-58v10h-29v19h9v48h10v59h-29zM1704 -429h10v-20h-10v20zM1607 -439h49v-10h9v-9h10v-20h10v-38h-10
v-10h-10v-10h-58v10h-9v19h-10v49h10v9h9v10zM1153 -449h9v-48h-19v10h-19v9h9v10h10v10h10v9zM1714 -449h9v-19h-9v19z" />
    <glyph glyph-name="uniFE80" unicode="&#x621;" horiz-adv-x="863" arabic-form="isolated" 
d="M755 639q6 -21 3 -42q-2 -19 -6 -29q-5 -13 -14.5 -22.5t-22.5 -15t-28 -5.5q-16 0 -28.5 5.5t-22.5 15t-15 22.5q-2 6 -6 29q0 2 -1 5q-5 22 -12 30q-14 15 -38 22q-11 3 -26 5q-90 -3 -120.5 -16.5t-53 -36t-35.5 -53t-13 -63.5v-28q0 -33 13 -63.5t35.5 -53t53 -36
t64.5 -13.5l299 -6q-29 -43 -63 -71q-28 -25 -62 -44q-5 -3 -31 -16l-16 -6l-6 -2h-436q-12 -1 -23 0h-1q-18 2 -28 6q-13 5 -22.5 14.5t-15 22.5t-5.5 28q0 16 5.5 28.5t15 22.5t22.5 15q6 2 119 5q-18 30 -29 64q-15 42 -19 87h-1v64h1q4 45 19 87q19 58 57 103.5t94 73.5
q48 24 111 27h53l1 -1q113 -5 176 -67q47 -47 58 -92z" />
    <glyph glyph-name="uniFE81" unicode="&#x622;" horiz-adv-x="506" arabic-form="isolated" 
d="M44 1400q-8 -2 -13.5 4.5t-5.5 14.5l3 49q0 11 6 17.5t14 8.5l384 68q17 3 19 -19l-3 -49q0 -9 -6 -17t-14 -9zM344 375q1 -7 1 -15l-1 -12l-2 -8l-8 -20q-17 -34 -21 -41q-24 -43 -57 -80q-36 -43 -91 -81l-5 1146q0 20 7 37t19.5 29.5t29 19.5t36.5 7t36.5 -7t29 -19.5
t19.5 -29.5t7 -37v-889z" />
    <glyph glyph-name="uniFE82" unicode="&#x622;" horiz-adv-x="486" arabic-form="final" 
d="M44 1400q-8 -2 -13.5 4.5t-5.5 14.5l3 49q0 11 6 17.5t14 8.5l384 68q17 3 19 -19l-3 -49q0 -9 -6 -17t-14 -9zM294 336h202v-185h-292q-37 0 -63.5 26t-26.5 64q0 5 1 9l-5 1014q0 20 7 37t19.5 29.5t29 19.5t36.5 7t36.5 -7t29 -19.5t19.5 -29.5t7 -37v-928z" />
    <glyph glyph-name="uniFE83" unicode="&#x623;" horiz-adv-x="506" arabic-form="isolated" 
d="M344 375q1 -7 1 -15l-1 -12l-2 -8l-8 -20q-17 -34 -21 -41q-24 -43 -57 -80q-36 -43 -91 -81l-5 1146q0 20 7 37t19.5 29.5t29 19.5t36.5 7t36.5 -7t29 -19.5t19.5 -29.5t7 -37v-889zM366 1684q2 -8 1 -17q-1 -7 -2 -11q-2 -6 -6 -9.5t-9.5 -6t-11.5 -2.5t-11 2.5t-9 6
t-7 9.5q0 2 -2 11v2q-2 9 -5 13q-6 6 -16 8q-4 2 -10 3q-37 -2 -49 -7.5t-21.5 -14.5t-14.5 -21.5t-5 -25.5v-11q0 -14 5 -26t14.5 -21.5t21.5 -15t26 -5.5l121 -2q-11 -17 -25 -29q-12 -10 -25 -18q-2 -1 -13 -6l-6 -3h-3h-176q-5 -1 -10 0v0q-8 1 -12 2q-5 2 -9 6t-6 9
t-2 11q0 7 2 12t6 9t9 6q3 1 49 2q-8 12 -12 26q-6 17 -8 35v0v26v0q2 19 8 36q8 23 23 41.5t38 29.5q20 10 45 11h22v0q46 -2 71 -27q19 -19 24 -38z" />
    <glyph glyph-name="uniFE84" unicode="&#x623;" horiz-adv-x="491" arabic-form="final" 
d="M294 336h202v-185h-292q-37 0 -63.5 26t-26.5 64q0 5 1 9l-5 1014q0 20 7 37t19.5 29.5t29 19.5t36.5 7t36.5 -7t29 -19.5t19.5 -29.5t7 -37v-928zM366 1684q2 -8 1 -17q-1 -7 -2 -11q-2 -6 -6 -9.5t-9.5 -6t-11.5 -2.5t-11 2.5t-9 6t-7 9.5q0 2 -2 11v2q-2 9 -5 13
q-6 6 -16 8q-4 2 -10 3q-37 -2 -49 -7.5t-21.5 -14.5t-14.5 -21.5t-5 -25.5v-11q0 -14 5 -26t14.5 -21.5t21.5 -15t26 -5.5l121 -2q-11 -17 -25 -29q-12 -10 -25 -18q-2 -1 -13 -6l-6 -3h-3h-176q-5 -1 -10 0v0q-8 1 -12 2q-5 2 -9 6t-6 9t-2 11q0 7 2 12t6 9t9 6q3 1 49 2
q-8 12 -12 26q-6 17 -8 35v0v26v0q2 19 8 36q8 23 23 41.5t38 29.5q20 10 45 11h22v0q46 -2 71 -27q19 -19 24 -38z" />
    <glyph glyph-name="uniFE85" unicode="&#x624;" horiz-adv-x="962" arabic-form="isolated" 
d="M440 1368q4 -11 2 -22q-1 -10 -3 -15q-3 -6 -7.5 -11t-11.5 -8t-14 -3q-9 0 -15.5 3t-11.5 8t-7 11q-1 3 -4 15v3q-3 11 -6 15q-7 8 -20 12q-5 1 -13 2q-46 -1 -62 -8t-27.5 -18.5t-18 -27.5t-6.5 -33v-14q0 -17 6.5 -33t18 -27.5t27.5 -18.5t33 -7l154 -3
q-15 -22 -33 -36q-14 -13 -31 -23q-3 -1 -16 -8l-9 -3l-3 -1h-224q-6 -1 -12 0v0q-10 1 -15 3q-7 2 -11.5 7t-7.5 12t-3 14q0 8 3 14.5t7.5 12t11.5 7.5q3 1 61 3q-9 15 -15 33q-7 21 -9 45h-1v32h1q2 24 9 45q10 30 29.5 53.5t48.5 37.5q25 13 57 14h28v0q58 -3 91 -35
q24 -24 29 -47zM700 336l8 4l1 164v86q0 43 -16.5 82t-46 68.5t-68.5 47t-83 17.5h-10l-19 2l-50 4v-1q-32 -2 -56 -8q-30 -9 -48 -28t-25.5 -50t-7.5 -76v-88h1q-3 -18 6 -72q17 -59 46.5 -88.5t68.5 -46.5q36 -17 93 -18v1h206zM878 238l-1 -31q-7 -56 -18 -90
q-22 -62 -51 -116q-26 -51 -57 -93.5t-68 -78.5q-33 -31 -70 -56t-77 -45q-48 -22 -98 -35l-17 -6q-6 -2 -12 -3q-16 -4 -32 -5l-12 1l-8 2l-20 8q-34 16 -41 20q-43 23 -80 55q-43 35 -81 88h116q109 0 194 41q68 32 132 96q54 56 89 161h-178q-95 0 -167 35.5t-121 94.5
t-74 134q-22 67 -25 138h-1v101q2 160 88 247q82 81 228 87l1 1h76q94 0 165 -35q72 -36 121 -95t74 -134t25 -154v-65q0 -59 1 -170l1 -5z" />
    <glyph glyph-name="uniFE86" unicode="&#x624;" horiz-adv-x="1037" arabic-form="final" 
d="M700 336l8 4l1 164v86q0 43 -16.5 82t-46 68.5t-68.5 47t-83 17.5h-10l-19 2l-50 4v-1q-32 -2 -56 -8q-30 -9 -48 -28t-25.5 -50t-7.5 -76v-88h1q-3 -18 6 -72q17 -59 46.5 -88.5t68.5 -46.5q36 -17 93 -18v1h206zM440 1368q4 -11 2 -22q-1 -10 -3 -15q-3 -6 -7.5 -11
t-11.5 -8t-14 -3q-9 0 -15.5 3t-11.5 8t-7 11q-1 3 -4 15v3q-3 11 -6 15q-7 8 -20 12q-5 1 -13 2q-46 -1 -62 -8t-27.5 -18.5t-18 -27.5t-6.5 -33v-14q0 -17 6.5 -33t18 -27.5t27.5 -18.5t33 -7l154 -3q-15 -22 -33 -36q-14 -13 -31 -23q-3 -1 -16 -8l-12 -4h-224
q-6 -1 -12 0q-10 1 -15 3q-7 2 -11.5 7t-7.5 12t-3 14q0 8 3 14.5t7.5 12t11.5 7.5q3 1 61 3q-9 15 -15 33q-7 21 -9 45h-1v32h1q2 24 9 45q10 30 29.5 53.5t48.5 37.5q25 13 57 14h28q58 -3 91 -35q24 -24 29 -47zM879 336h175v-185h-186q-4 -19 -9 -34q-22 -62 -51 -116
q-26 -51 -57 -93.5t-68 -78.5q-33 -31 -70 -56t-77 -45q-48 -22 -98 -35l-17 -6q-6 -2 -12 -3q-16 -4 -32 -5l-12 1l-8 2l-20 8q-34 16 -41 20q-43 23 -80 55q-43 35 -81 88h116q109 0 194 41q68 32 132 96q54 56 89 161h-178q-95 0 -167 35.5t-121 94.5t-74 134
q-22 67 -25 138h-1v101q2 160 88 247q82 81 228 87l1 1h76q94 0 165 -35q72 -36 121 -95t74 -134t25 -154v-65q0 -59 1 -170z" />
    <glyph glyph-name="uniFE87" unicode="&#x625;" horiz-adv-x="506" arabic-form="isolated" 
d="M344 375q1 -7 1 -15l-1 -12l-2 -8l-8 -20q-17 -34 -21 -41q-24 -43 -57 -80q-36 -43 -91 -81l-5 1146q0 20 7 37t19.5 29.5t29 19.5t36.5 7t36.5 -7t29 -19.5t19.5 -29.5t7 -37v-889zM366 -15q3 -9 2 -18q-1 -8 -3 -12q-2 -5 -6 -9t-9.5 -6.5t-11.5 -2.5q-7 0 -12.5 2.5
t-9.5 6.5t-6 9q-1 3 -3 12v2q-2 10 -5 13q-6 6 -16 9q-5 2 -11 2q-38 -1 -50.5 -6.5t-22 -15t-15 -22.5t-5.5 -27v-12q0 -13 5.5 -26t15 -22.5t22 -15t26.5 -5.5l126 -3q-12 -18 -26 -30q-12 -10 -26 -18q-2 -1 -13 -7l-7 -2l-3 -1h-183q-5 -1 -10 0v0q-8 1 -12 2q-5 2 -9 6
t-6.5 9.5t-2.5 12.5q0 6 2.5 11.5t6.5 9.5t9 6q3 1 50 2q-7 13 -12 27q-6 18 -8 37v0v27v0q2 19 8 36q8 25 24 44t39 31q21 10 47 11h22h1q47 -2 74 -28q20 -20 24 -39z" />
    <glyph glyph-name="uniFE88" unicode="&#x625;" horiz-adv-x="491" arabic-form="final" 
d="M294 336h202v-185h-292q-37 0 -63.5 26t-26.5 64q0 5 1 9l-5 1014q0 20 7 37t19.5 29.5t29 19.5t36.5 7t36.5 -7t29 -19.5t19.5 -29.5t7 -37v-928zM366 -15q3 -9 2 -18q-1 -8 -3 -12q-2 -5 -6 -9t-9.5 -6.5t-11.5 -2.5q-7 0 -12.5 2.5t-9.5 6.5t-6 9q-1 3 -3 12v2
q-2 10 -5 13q-6 6 -16 9q-5 2 -11 2q-38 -1 -50.5 -6.5t-22 -15t-15 -22.5t-5.5 -27v-12q0 -13 5.5 -26t15 -22.5t22 -15t26.5 -5.5l126 -3q-12 -18 -26 -30q-12 -10 -26 -18q-2 -1 -13 -7l-7 -2l-3 -1h-183q-5 -1 -10 0v0q-8 1 -12 2q-5 2 -9 6t-6.5 9.5t-2.5 12.5
q0 6 2.5 11.5t6.5 9.5t9 6q3 1 50 2q-7 13 -12 27q-6 18 -8 37v0v27v0q2 19 8 36q8 25 24 44t39 31q21 10 47 11h22h1q47 -2 74 -28q20 -20 24 -39z" />
    <glyph glyph-name="uniFE89" unicode="&#x626;" horiz-adv-x="1863" arabic-form="isolated" 
d="M303 583h1q-3 -18 6 -72q17 -59 46.5 -88.5t68.5 -46.5q36 -17 93 -18v1h506v318q2 160 88 247q82 81 228 87l1 1h76q94 0 165 -35q72 -36 121 -95t74 -134q17 -51 23 -94v-6q1 -6 -1 -72q-1 -26 -7.5 -41.5t-17.5 -27t-26.5 -18t-33.5 -6.5t-33 6.5t-26.5 18t-18 27
t-6.5 33.5q0 7 1 14l1 56q-4 29 -15 57q-17 39 -46.5 68.5t-68.5 47.5q-33 14 -162 23v-1q-32 -2 -56 -8q-30 -9 -48 -28t-25.5 -50t-7.5 -76v-497l-1 1v-1h-690q-95 0 -167 35.5t-121 94.5t-74 134q-22 67 -25 138h-1v101q0 16 2 31q9 139 87 218q82 81 219 88l12 -1l8 -2
l20 -8q34 -16 41 -20q43 -23 80 -55q43 -35 81 -88h-140q-25 0 -47 -1l-46 -4q-32 -2 -56 -8q-30 -9 -48 -28t-25 -50q-7 -25 -9 -166zM1038 1256q3 -12 1 -24q-1 -11 -3 -16q-3 -8 -8.5 -13.5t-12.5 -8.5t-16 -3t-16 3t-12.5 8.5t-8.5 13.5q-1 3 -4 16v3q-3 12 -7 17
q-8 8 -21 12q-7 2 -15 3q-51 -2 -68.5 -9.5t-30 -20t-20 -30t-7.5 -36.5v-15q0 -19 7.5 -36.5t20 -30t30 -20t36.5 -7.5l169 -4q-16 -24 -35 -40q-16 -14 -35 -25q-3 -1 -18 -9l-9 -3l-3 -1h-247q-7 -1 -13 0h-1q-10 1 -15 3q-8 3 -13 8.5t-8.5 12.5t-3.5 16t3.5 16
t8.5 12.5t13 8.5q3 1 67 3q-10 17 -16 36q-9 24 -11 49h-1v37h1q2 25 11 49q10 33 31.5 58.5t53.5 41.5q27 13 63 15h30v0q64 -3 100 -38q26 -27 33 -52z" />
    <glyph glyph-name="uniFE8A" unicode="&#x626;" horiz-adv-x="2040" arabic-form="final" 
d="M1894 555v-219h157v-185h-246q-38 0 -64 26t-26 64q0 293 -3 454q-15 39 -44.5 68.5t-68.5 47.5q-33 14 -162 23v-1q-32 -2 -56 -8q-30 -9 -48 -28t-25.5 -50t-7.5 -76v-497l-1 1v-1h-790q-95 0 -167 35.5t-121 94.5t-74 134q-22 67 -25 138h-1v101q0 16 2 31
q9 139 87 218q82 81 219 88l12 -1l8 -2l20 -8q34 -16 41 -20q43 -23 80 -55q43 -35 81 -88h-140q-25 0 -47 -1l-46 -4q-32 -2 -56 -8q-30 -9 -48 -28t-25 -50q-7 -25 -9 -166h1q-3 -18 6 -72q17 -59 46.5 -88.5t68.5 -46.5q36 -17 93 -18v1h606v318q2 160 88 247
q82 81 228 87l1 1h76q94 0 165 -35q72 -36 121 -95t74 -134q17 -51 23 -94v-6q1 -6 -1 -72q0 -12 -2 -21zM1065 1256q3 -12 1 -24q-1 -11 -3 -16q-3 -8 -8.5 -13.5t-12.5 -8.5t-16 -3t-16 3t-12.5 8.5t-8.5 13.5q-1 3 -4 16v3q-3 12 -7 17q-8 8 -21 12q-7 2 -15 3
q-51 -2 -68.5 -9.5t-30 -20t-20 -30t-7.5 -36.5v-15q0 -19 7.5 -36.5t20 -30t30 -20t36.5 -7.5l169 -4q-16 -24 -35 -40q-16 -14 -35 -25q-3 -1 -18 -9l-9 -3l-3 -1h-247q-7 -1 -13 0h-1q-10 1 -15 3q-8 3 -13 8.5t-8.5 12.5t-3.5 16t3.5 16t8.5 12.5t13 8.5q3 1 67 3
q-10 17 -16 36q-9 24 -11 49h-1v37h1q2 25 11 49q10 33 31.5 58.5t53.5 41.5q27 13 63 15h30v0q64 -3 100 -38q26 -27 33 -52z" />
    <glyph glyph-name="uniFE8B" unicode="&#x626;" horiz-adv-x="565" arabic-form="initial" 
d="M105 153v-2h-117v185h142v-1q50 -1 74 6q30 8 48 27t25.5 50t7.5 76l-6 255q-1 7 -1 15q0 20 7 37t19.5 29.5t29 19.5t36.5 7t36.5 -7t29 -19.5t19.5 -29.5t7 -37v-9h2v-278q-5 -152 -88 -235q-73 -73 -198 -88zM383 1156q3 -12 1 -24q-1 -11 -3 -16q-3 -8 -8.5 -13.5
t-12.5 -8.5t-16 -3t-16 3t-12.5 8.5t-8.5 13.5q-1 3 -4 16v3q-3 12 -7 17q-8 8 -21 12q-7 2 -15 3q-51 -2 -68.5 -9.5t-30 -20t-20 -30t-7.5 -36.5v-15q0 -19 7.5 -36.5t20 -30t30 -20t36.5 -7.5l169 -4q-16 -24 -35 -40q-16 -14 -35 -25q-3 -1 -18 -9l-9 -3l-3 -1h-247
q-7 -1 -13 0h-1q-10 1 -15 3q-8 3 -13 8.5t-8.5 12.5t-3.5 16t3.5 16t8.5 12.5t13 8.5q3 1 67 3q-10 17 -16 36q-9 24 -11 49h-1v37h1q2 25 11 49q10 33 31.5 58.5t53.5 41.5q27 13 63 15h30v0q64 -3 100 -38q26 -27 33 -52z" />
    <glyph glyph-name="uniFE8C" unicode="&#x626;" horiz-adv-x="633" arabic-form="medial" 
d="M461 336h207v-185h-684v185h298l-4 428q0 20 7 37t19.5 29.5t29 19.5t36.5 7t36.5 -7t29 -19.5t19.5 -29.5t7 -37zM430 1156q3 -12 1 -24q-1 -11 -3 -16q-3 -8 -8.5 -13.5t-12.5 -8.5t-16 -3t-16 3t-12.5 8.5t-8.5 13.5q-1 3 -4 16v3q-3 12 -7 17q-8 8 -21 12q-7 2 -15 3
q-51 -2 -68.5 -9.5t-30 -20t-20 -30t-7.5 -36.5v-15q0 -19 7.5 -36.5t20 -30t30 -20t36.5 -7.5l169 -4q-16 -24 -35 -40q-16 -14 -35 -25q-3 -1 -18 -9l-9 -3l-3 -1h-247q-7 -1 -13 0h-1q-10 1 -15 3q-8 3 -13 8.5t-8.5 12.5t-3.5 16t3.5 16t8.5 12.5t13 8.5q3 1 67 3
q-10 17 -16 36q-9 24 -11 49h-1v37h1q2 25 11 49q10 33 31.5 58.5t53.5 41.5q27 13 63 15h30v0q64 -3 100 -38q26 -27 33 -52z" />
    <glyph glyph-name="uniFE8D" unicode="&#x627;" horiz-adv-x="506" arabic-form="isolated" 
d="M364 375q1 -7 1 -15l-1 -12l-2 -8l-8 -20q-17 -34 -21 -41q-24 -43 -57 -80q-36 -43 -91 -81l-5 1146q0 20 7 37t19.5 29.5t29 19.5t36.5 7t36.5 -7t29 -19.5t19.5 -29.5t7 -37v-889z" />
    <glyph glyph-name="uniFE8E" unicode="&#x627;" horiz-adv-x="486" arabic-form="final" 
d="M294 336h202v-185h-292q-37 0 -63.5 26t-26.5 64q0 5 1 9l-5 1014q0 20 7 37t19.5 29.5t29 19.5t36.5 7t36.5 -7t29 -19.5t19.5 -29.5t7 -37v-928z" />
    <glyph glyph-name="uniFE8F" unicode="&#x628;" horiz-adv-x="1471" arabic-form="isolated" 
d="M825 -145q0 21 7.5 39t21 31.5t31 21t38.5 7.5t39 -7.5t31.5 -21t21 -31.5t7.5 -39q0 -42 -28.5 -70t-70.5 -28t-70 28t-28 70zM1397 494q0 -164 -88 -252q-81 -81 -226 -91h-659q-145 10 -226 91q-87 87 -88 249q1 162 88 250q82 81 219 88l12 -1l8 -2l20 -8
q34 -16 41 -20q43 -23 80 -55q43 -35 81 -88h-140q-25 0 -47 -1l-46 -4q-32 -2 -56 -8q-30 -9 -48 -28t-25 -50q-8 -30 -8 -73t8 -73q7 -31 25 -50t48 -27q24 -7 74 -6v1h619v-1q50 -1 74 6q30 8 48 27t25.5 50t7.5 76l-1 380q0 20 7 37t19.5 29.5t29 19.5t36.5 7t36.5 -7
t29 -19.5t19.5 -29.5t7 -37z" />
    <glyph glyph-name="uniFE90" unicode="&#x628;" horiz-adv-x="1459" arabic-form="final" 
d="M732 -145q0 21 7.5 39t20.5 31.5t31 21t38 7.5q42 0 70.5 -28.5t28.5 -70.5q0 -21 -7.5 -38.5t-21 -31t-31.5 -21t-39 -7.5q-41 0 -69 28t-28 70zM1349 336h130v-185h-1076q-145 10 -226 91q-87 87 -88 249q1 162 88 250q82 81 219 88l12 -1l8 -2l20 -8q34 -16 41 -20
q43 -23 80 -55q43 -35 81 -88h-140q-25 0 -47 -1l-46 -4q-32 -2 -56 -8q-30 -9 -48 -28t-25 -50q-8 -30 -8 -73t8 -73q7 -31 25 -50t48 -27q24 -7 74 -6v1h663q18 2 30 5q30 8 48 27t25.5 50t7.5 76l-1 380q0 20 7 37t19.5 29.5t29 19.5t36.5 7t36.5 -7t29 -19.5t19.5 -29.5
t7 -37l-4 -380q0 -91 -27 -158z" />
    <glyph glyph-name="uniFE91" unicode="&#x628;" horiz-adv-x="565" arabic-form="initial" 
d="M137 -145q0 21 7.5 39t20.5 31.5t31 21t38 7.5q42 0 70.5 -28.5t28.5 -70.5q0 -21 -7.5 -38.5t-21 -31t-31.5 -21t-39 -7.5q-41 0 -69 28t-28 70zM105 153v-2h-117v185h142v-1q50 -1 74 6q30 8 48 27t25.5 50t7.5 76l-6 355q-1 7 -1 15q0 20 7 37t19.5 29.5t29 19.5
t36.5 7t36.5 -7t29 -19.5t19.5 -29.5t7 -37v-9h2v-378q-5 -152 -88 -235q-73 -73 -198 -88z" />
    <glyph glyph-name="uniFE92" unicode="&#x628;" horiz-adv-x="565" arabic-form="medial" 
d="M176 -145q0 21 7.5 39t21 31.5t31 21t38.5 7.5t38.5 -7.5t31 -21t21 -31.5t7.5 -39q0 -42 -28 -70t-70 -28t-70 28t-28 70zM384 336h187v-185h-574v185h208l-4 528q0 20 7 37t19.5 29.5t29 19.5t36.5 7t36.5 -7t29 -19.5t19.5 -29.5t7 -37z" />
    <glyph glyph-name="uniFE93" unicode="&#x629;" horiz-adv-x="962" arabic-form="isolated" 
d="M488 1245q0 42 28.5 70.5t69.5 28.5q21 0 39 -7.5t31.5 -21t21 -31.5t7.5 -39t-7.5 -38.5t-21 -31t-31.5 -21t-39 -7.5q-41 0 -69.5 28t-28.5 70zM213 1245q0 42 28 70.5t69 28.5q21 0 39 -7.5t31.5 -21t21 -31.5t7.5 -39t-7.5 -38.5t-21 -31t-31.5 -21t-39 -7.5
q-41 0 -69 28t-28 70zM465 805l-19 2l-50 4v-1q-32 -2 -56 -8q-30 -9 -48 -28t-25.5 -50t-7.5 -76v-88h1q-3 -18 6 -72q17 -59 46.5 -88.5t68.5 -46.5q36 -17 93 -18v1h214l1 168v86q0 43 -16.5 82t-46 68.5t-68.5 47t-83 17.5h-10zM860 331l1 -182q-2 1 -5 2h-388
q-95 0 -167 35.5t-121 94.5t-74 134q-22 67 -25 138h-1v101q2 160 88 247q82 81 228 87l1 1h76q94 0 165 -35q72 -36 121 -95t74 -134t25 -154v-65q0 -59 1 -170z" />
    <glyph glyph-name="uniFE94" unicode="&#x629;" horiz-adv-x="1003" arabic-form="final" 
d="M465 805l-19 2l-50 4v-1q-32 -2 -56 -8q-30 -9 -48 -28t-25.5 -50t-7.5 -76v-88h1q-3 -18 6 -72q17 -59 46.5 -88.5t68.5 -46.5q36 -17 93 -18v1h214l1 168v86q0 43 -16.5 82t-46 68.5t-68.5 47t-83 17.5h-10zM516 1245q0 42 28 70.5t70 28.5q21 0 39 -7.5t31.5 -21
t21 -31.5t7.5 -39t-7.5 -38.5t-21 -31t-31.5 -21t-39 -7.5q-42 0 -70 28t-28 70zM859 336h160v-185h-158v-2q-2 1 -5 2h-388q-95 0 -167 35.5t-121 94.5t-74 134q-22 67 -25 138h-1v101q2 160 88 247q82 81 228 87l1 1h76q94 0 165 -35q72 -36 121 -95t74 -134t25 -154v-65
q0 -59 1 -170zM241 1245q0 42 28 70.5t69 28.5q21 0 39 -7.5t31.5 -21t21 -31.5t7.5 -39t-7.5 -38.5t-21 -31t-31.5 -21t-39 -7.5q-41 0 -69 28t-28 70z" />
    <glyph glyph-name="uniFE95" unicode="&#x62a;" horiz-adv-x="1463" arabic-form="isolated" 
d="M990 1163q0 21 7.5 39t20.5 31.5t31 21t38 7.5q42 0 70.5 -28.5t28.5 -70.5q0 -20 -7.5 -38t-21 -31t-31.5 -20.5t-39 -7.5q-41 0 -69 28t-28 69zM714 1163q0 21 7.5 39t21 31.5t31 21t38.5 7.5t38.5 -7.5t31 -21t21 -31.5t7.5 -39q0 -41 -28 -69t-70 -28t-70 28t-28 69z
M1389 494q0 -164 -88 -252q-81 -81 -226 -91h-659q-145 10 -226 91q-87 87 -88 249q1 162 88 250q82 81 219 88l12 -1l8 -2l20 -8q34 -16 41 -20q43 -23 80 -55q43 -35 81 -88h-140q-25 0 -47 -1l-46 -4q-32 -2 -56 -8q-30 -9 -48 -28t-25 -50q-8 -30 -8 -73t8 -73
q7 -31 25 -50t48 -27q24 -7 74 -6v1h619v-1q50 -1 74 6q30 8 48 27t25.5 50t7.5 76l-1 380q0 20 7 37t19.5 29.5t29 19.5t36.5 7t36.5 -7t29 -19.5t19.5 -29.5t7 -37z" />
    <glyph glyph-name="uniFE96" unicode="&#x62a;" horiz-adv-x="1452" arabic-form="final" 
d="M914 1170q0 42 28.5 70t69.5 28q21 0 39 -7.5t31.5 -21t21 -31t7.5 -38.5t-7.5 -38.5t-21 -31t-31.5 -21t-39 -7.5q-41 0 -69.5 28t-28.5 70zM639 1170q0 42 28 70t69 28q21 0 39 -7.5t31.5 -21t21 -31t7.5 -38.5t-7.5 -38.5t-21 -31t-31.5 -21t-39 -7.5q-41 0 -69 28
t-28 70zM1342 336h130v-185h-1076q-145 10 -226 91q-87 87 -88 249q1 162 88 250q82 81 219 88l12 -1l8 -2l20 -8q34 -16 41 -20q43 -23 80 -55q43 -35 81 -88h-140q-25 0 -47 -1l-46 -4q-32 -2 -56 -8q-30 -9 -48 -28t-25 -50q-8 -30 -8 -73t8 -73q7 -31 25 -50t48 -27
q24 -7 74 -6v1h663q18 2 30 5q30 8 48 27t25.5 50t7.5 76l-1 380q0 20 7 37t19.5 29.5t29 19.5t36.5 7t36.5 -7t29 -19.5t19.5 -29.5t7 -37l-4 -380q0 -91 -27 -158z" />
    <glyph glyph-name="uniFE97" unicode="&#x62a;" horiz-adv-x="570" arabic-form="initial" 
d="M300 1245q0 42 28 70.5t69 28.5q21 0 39 -7.5t31.5 -21t21 -31.5t7.5 -39t-7.5 -38.5t-21 -31t-31.5 -21t-39 -7.5q-41 0 -69 28t-28 70zM24 1245q0 42 28 70.5t70 28.5t70 -28.5t28 -70.5t-28 -70t-70 -28t-70 28t-28 70zM105 153v-2h-117v185h142v-1q50 -1 74 6
q30 8 48 27t25.5 50t7.5 76l-6 355q-1 7 -1 15q0 20 7 37t19.5 29.5t29 19.5t36.5 7t36.5 -7t29 -19.5t19.5 -29.5t7 -37v-9h2v-378q-5 -152 -88 -235q-73 -73 -198 -88z" />
    <glyph glyph-name="uniFE98" unicode="&#x62a;" horiz-adv-x="556" arabic-form="medial" 
d="M299 1245q0 42 28 70.5t69 28.5q21 0 39 -7.5t31.5 -21t21 -31.5t7.5 -39t-7.5 -38.5t-21 -31t-31.5 -21t-39 -7.5q-41 0 -69 28t-28 70zM23 1245q0 42 28 70.5t70 28.5t70 -28.5t28 -70.5t-28 -70t-70 -28t-70 28t-28 70zM384 336h207v-185h-614v185h228l-4 528
q0 20 7 37t19.5 29.5t29 19.5t36.5 7t36.5 -7t29 -19.5t19.5 -29.5t7 -37z" />
    <glyph glyph-name="uniFE99" unicode="&#x62b;" horiz-adv-x="1478" arabic-form="isolated" 
d="M693 1436q0 21 7.5 39t21 31.5t31 21t38.5 7.5t39 -7.5t31.5 -21t21 -31.5t7.5 -39q0 -41 -28.5 -69.5t-70.5 -28.5t-70 28.5t-28 69.5zM528 1170q0 42 28 70t69 28q21 0 39 -7.5t31.5 -21t21 -31t7.5 -38.5t-7.5 -38.5t-21 -31t-31.5 -21t-39 -7.5q-41 0 -69 28t-28 70z
M858 1170q0 42 28 70t70 28t70 -28t28 -70t-28 -70t-70 -28t-70 28t-28 70zM1404 494q0 -164 -88 -252q-81 -81 -226 -91h-659q-145 10 -226 91q-87 87 -88 249q1 162 88 250q82 81 219 88l12 -1l8 -2l20 -8q34 -16 41 -20q43 -23 80 -55q43 -35 81 -88h-140q-25 0 -47 -1
l-46 -4q-32 -2 -56 -8q-30 -9 -48 -28t-25 -50q-8 -30 -8 -73t8 -73q7 -31 25 -50t48 -27q24 -7 74 -6v1h619v-1q50 -1 74 6q30 8 48 27t25.5 50t7.5 76l-1 380q0 20 7 37t19.5 29.5t29 19.5t36.5 7t36.5 -7t29 -19.5t19.5 -29.5t7 -37z" />
    <glyph glyph-name="uniFE9A" unicode="&#x62b;" horiz-adv-x="1489" arabic-form="final" 
d="M703 1433q0 21 7.5 39t21 31.5t31 21t38.5 7.5t39 -7.5t31.5 -21t21 -31.5t7.5 -39q0 -42 -28.5 -70t-70.5 -28t-70 28t-28 70zM868 1167q0 42 28 70t69 28q21 0 39 -7.5t31.5 -21t21 -31t7.5 -38.5t-7.5 -38.5t-21 -31t-31.5 -21t-39 -7.5q-41 0 -69 28t-28 70z
M538 1167q0 42 28 70t69 28q21 0 39 -7.5t31.5 -21t21 -31t7.5 -38.5t-7.5 -38.5t-21 -31t-31.5 -21t-39 -7.5q-41 0 -69 28t-28 70zM1379 336h130v-185h-1076q-145 10 -226 91q-87 87 -88 249q1 162 88 250q82 81 219 88l12 -1l8 -2l20 -8q34 -16 41 -20q43 -23 80 -55
q43 -35 81 -88h-140q-25 0 -47 -1l-46 -4q-32 -2 -56 -8q-30 -9 -48 -28t-25 -50q-8 -30 -8 -73t8 -73q7 -31 25 -50t48 -27q24 -7 74 -6v1h663q18 2 30 5q30 8 48 27t25.5 50t7.5 76l-1 380q0 20 7 37t19.5 29.5t29 19.5t36.5 7t36.5 -7t29 -19.5t19.5 -29.5t7 -37l-4 -380
q0 -91 -27 -158z" />
    <glyph glyph-name="uniFE9B" unicode="&#x62b;" horiz-adv-x="570" arabic-form="initial" 
d="M342 1245q0 42 28 70.5t70 28.5t70.5 -28.5t28.5 -70.5t-28.5 -70t-70.5 -28t-70 28t-28 70zM178 1511q0 21 7.5 39t20.5 31.5t31 21t38 7.5q42 0 70.5 -28.5t28.5 -70.5q0 -20 -7.5 -38t-21 -31.5t-31.5 -21t-39 -7.5q-41 0 -69 28.5t-28 69.5zM12 1245q0 42 28 70.5
t70 28.5t70 -28.5t28 -70.5t-28 -70t-70 -28t-70 28t-28 70zM105 153v-2h-117v185h142v-1q50 -1 74 6q30 8 48 27t25.5 50t7.5 76l-6 355q-1 7 -1 15q0 20 7 37t19.5 29.5t29 19.5t36.5 7t36.5 -7t29 -19.5t19.5 -29.5t7 -37v-9h2v-378q-5 -152 -88 -235q-73 -73 -198 -88z
" />
    <glyph glyph-name="uniFE9C" unicode="&#x62b;" horiz-adv-x="561" arabic-form="medial" 
d="M180 1509q0 21 7.5 39t21 31.5t31.5 21t38 7.5q42 0 70.5 -28.5t28.5 -70.5q0 -20 -7.5 -38t-21 -31.5t-31.5 -21t-39 -7.5q-41 0 -69.5 28.5t-28.5 69.5zM15 1243q0 42 28 70t69 28q21 0 39 -7.5t31.5 -21t21 -31t7.5 -38.5t-7.5 -38.5t-21 -31t-31.5 -21t-39 -7.5
q-41 0 -69 28t-28 70zM345 1243q0 42 28 70t70 28t70 -28t28 -70t-28 -70t-70 -28t-70 28t-28 70zM384 336h207v-185h-614v185h228l-4 528q0 20 7 37t19.5 29.5t29 19.5t36.5 7t36.5 -7t29 -19.5t19.5 -29.5t7 -37z" />
    <glyph glyph-name="uniFE9D" unicode="&#x62c;" horiz-adv-x="1250" arabic-form="isolated" 
d="M422 -50q0 42 28.5 70.5t69.5 28.5q21 0 39 -7.5t31.5 -21t21 -31.5t7.5 -39t-7.5 -38.5t-21 -31t-31.5 -21t-39 -7.5q-41 0 -69.5 28t-28.5 70zM420 325h466q-36 234 -133 335q-64 64 -132 96q-85 41 -194.5 41t-110 89.5t138.5 89.5q28 0 54 -1.5t50 -5.5
q80 -13 153 -47q40 -20 77 -45t70 -56q37 -36 68 -78.5t57 -93.5q29 -54 51 -116t37 -195v-183h-407q-233 -9 -238 -12q-40 -20 -66.5 -53.5t-38.5 -76.5q-10 -30 -8.5 -68t7.5 -58q12 -43 38.5 -76t66.5 -53q36 -19 84 -21h5q9 -1 19 -1q43 0 73 8q31 7 50 25t28 48
q6 24 8 56l4 46q1 22 1 47v140q53 -38 88 -81q32 -37 55 -80q4 -7 20 -41l8 -20l2 -8l1 -12q-7 -137 -88 -219q-51 -50 -126 -72q-55 -16 -124 -16q-18 0 -34 1v-1q-83 4 -148 36q-74 35 -123.5 93.5t-74.5 134.5q-15 43 -19 98.5t0 81.5q6 39 20 78q25 75 74.5 134
t123.5 95q17 8 67 17z" />
    <glyph glyph-name="uniFE9E" unicode="&#x62c;" horiz-adv-x="1233" arabic-form="final" 
d="M1072 336h178v-185l-585 4q-233 -9 -238 -12q-40 -20 -66.5 -53.5t-38.5 -76.5q-10 -30 -8.5 -68t7.5 -58q12 -43 38.5 -76t66.5 -53q36 -19 84 -21h5q9 -1 19 -1q43 0 73 8q31 7 50 25t28 48q6 24 8 56l4 46q1 22 1 47v140q53 -38 88 -81q32 -37 55 -80q4 -7 20 -41
l8 -20l2 -8l1 -12q-7 -137 -88 -219q-51 -50 -126 -72q-55 -16 -124 -16q-18 0 -34 1v-1q-83 4 -148 36q-74 35 -123.5 93.5t-74.5 134.5q-15 43 -19 98.5t0 81.5q6 39 20 78q25 75 74.5 134t123.5 95q17 8 67 17h466q-36 234 -133 335q-64 64 -132 96q-85 41 -194.5 41
t-110 89.5t138.5 89.5q28 0 54 -1.5t50 -5.5q80 -13 153 -47q40 -20 77 -45t70 -56q37 -36 68 -78.5t57 -93.5q29 -54 51 -116t37 -195v-2zM422 -50q0 42 28.5 70.5t69.5 28.5q21 0 39 -7.5t31.5 -21t21 -31.5t7.5 -39t-7.5 -38.5t-21 -31t-31.5 -21t-39 -7.5
q-41 0 -69.5 28t-28.5 70z" />
    <glyph glyph-name="uniFE9F" unicode="&#x62c;" horiz-adv-x="1081" arabic-form="initial" 
d="M597 -150q0 42 28 70.5t69 28.5q21 0 39 -7.5t31.5 -21t21 -31.5t7.5 -39t-7.5 -38.5t-21 -31t-31.5 -21t-39 -7.5q-41 0 -69 28t-28 70zM-22 336h818q-36 223 -133 324q-64 64 -132 96q-85 41 -194.5 41t-110 89.5t138.5 89.5q28 0 54 -1.5t50 -5.5q80 -13 153 -47
q40 -20 77 -45t70 -56q37 -36 68 -78.5t57 -93.5q29 -54 51 -116t37 -195v-183h-1006z" />
    <glyph glyph-name="uniFEA0" unicode="&#x62c;" horiz-adv-x="1121" arabic-form="medial" 
d="M605 -150q0 42 28 70.5t70 28.5t70.5 -28.5t28.5 -70.5t-28.5 -70t-70.5 -28t-70 28t-28 70zM796 336q-36 223 -133 324q-64 64 -132 96q-85 41 -194.5 41t-110 89.5t138.5 89.5q28 0 54 -1.5t50 -5.5q80 -13 153 -47q40 -20 77 -45t70 -56q37 -36 68 -78.5t57 -93.5
q29 -54 51 -116t37 -197h184v-181h-1190l10 181h810z" />
    <glyph glyph-name="uniFEA1" unicode="&#x62d;" horiz-adv-x="1194" arabic-form="isolated" 
d="M420 325h466q-36 234 -133 335q-64 64 -132 96q-85 41 -194.5 41t-110 89.5t138.5 89.5q28 0 54 -1.5t50 -5.5q80 -13 153 -47q40 -20 77 -45t70 -56q37 -36 68 -78.5t57 -93.5q29 -54 51 -116t37 -195v-183h-407q-233 -9 -238 -12q-40 -20 -66.5 -53.5t-38.5 -76.5
q-10 -30 -8.5 -68t7.5 -58q12 -43 38.5 -76t66.5 -53q36 -19 84 -21h5q9 -1 19 -1q43 0 73 8q31 7 50 25t28 48q6 24 8 56l4 46q1 22 1 47v140q53 -38 88 -81q32 -37 55 -80q4 -7 20 -41l8 -20l2 -8l1 -12q-7 -137 -88 -219q-51 -50 -126 -72q-55 -16 -124 -16q-18 0 -34 1
v-1q-83 4 -148 36q-74 35 -123.5 93.5t-74.5 134.5q-15 43 -19 98.5t0 81.5q6 39 20 78q25 75 74.5 134t123.5 95q17 8 67 17z" />
    <glyph glyph-name="uniFEA2" unicode="&#x62d;" horiz-adv-x="1265" arabic-form="final" 
d="M1072 336h198v-185l-605 4q-233 -9 -238 -12q-40 -20 -66.5 -53.5t-38.5 -76.5q-10 -30 -8.5 -68t7.5 -58q12 -43 38.5 -76t66.5 -53q36 -19 84 -21h5q9 -1 19 -1q43 0 73 8q31 7 50 25t28 48q6 24 8 56l4 46q1 22 1 47v140q53 -38 88 -81q32 -37 55 -80q4 -7 20 -41
l8 -20l2 -8l1 -12q-7 -137 -88 -219q-51 -50 -126 -72q-55 -16 -124 -16q-18 0 -34 1v-1q-83 4 -148 36q-74 35 -123.5 93.5t-74.5 134.5q-15 43 -19 98.5t0 81.5q6 39 20 78q25 75 74.5 134t123.5 95q17 8 67 17h466q-36 234 -133 335q-64 64 -132 96q-85 41 -194.5 41
t-110 89.5t138.5 89.5q28 0 54 -1.5t50 -5.5q80 -13 153 -47q40 -20 77 -45t70 -56q37 -36 68 -78.5t57 -93.5q29 -54 51 -116t37 -195v-2z" />
    <glyph glyph-name="uniFEA3" unicode="&#x62d;" horiz-adv-x="1081" arabic-form="initial" 
d="M-22 336h818q-36 223 -133 324q-64 64 -132 96q-85 41 -194.5 41t-110 89.5t138.5 89.5q28 0 54 -1.5t50 -5.5q80 -13 153 -47q40 -20 77 -45t70 -56q37 -36 68 -78.5t57 -93.5q29 -54 51 -116t37 -195v-183h-1006z" />
    <glyph glyph-name="uniFEA4" unicode="&#x62d;" horiz-adv-x="1121" arabic-form="medial" 
d="M796 336q-36 223 -133 324q-64 64 -132 96q-85 41 -194.5 41t-110 89.5t138.5 89.5q28 0 54 -1.5t50 -5.5q80 -13 153 -47q40 -20 77 -45t70 -56q37 -36 68 -78.5t57 -93.5q29 -54 51 -116t37 -195v-2h184v-181h-1190l10 181h810z" />
    <glyph glyph-name="uniFEA5" unicode="&#x62e;" horiz-adv-x="1250" arabic-form="isolated" 
d="M380 1243q0 42 28 70t69 28q21 0 39 -7.5t31.5 -21t21 -31t7.5 -38.5t-7.5 -38.5t-21 -31t-31.5 -21t-39 -7.5q-41 0 -69 28t-28 70zM420 325h466q-36 234 -133 335q-64 64 -132 96q-85 41 -194.5 41t-110 89.5t138.5 89.5q28 0 54 -1.5t50 -5.5q80 -13 153 -47
q40 -20 77 -45t70 -56q37 -36 68 -78.5t57 -93.5q29 -54 51 -116t37 -195v-183h-407q-233 -9 -238 -12q-40 -20 -66.5 -53.5t-38.5 -76.5q-10 -30 -8.5 -68t7.5 -58q12 -43 38.5 -76t66.5 -53q36 -19 84 -21h5q9 -1 19 -1q43 0 73 8q31 7 50 25t28 48q6 24 8 56l4 46
q1 22 1 47v140q53 -38 88 -81q32 -37 55 -80q4 -7 20 -41l8 -20l2 -8l1 -12q-7 -137 -88 -219q-51 -50 -126 -72q-55 -16 -124 -16q-18 0 -34 1v-1q-83 4 -148 36q-74 35 -123.5 93.5t-74.5 134.5q-15 43 -19 98.5t0 81.5q6 39 20 78q25 75 74.5 134t123.5 95q17 8 67 17z
" />
    <glyph glyph-name="uniFEA6" unicode="&#x62e;" horiz-adv-x="1213" arabic-form="final" 
d="M378 1243q0 42 28 70t70 28t70 -28t28 -70t-28 -70t-70 -28t-70 28t-28 70zM1072 336h158v-185l-565 4q-233 -9 -238 -12q-40 -20 -66.5 -53.5t-38.5 -76.5q-10 -30 -8.5 -68t7.5 -58q12 -43 38.5 -76t66.5 -53q36 -19 84 -21h5q9 -1 19 -1q43 0 73 8q31 7 50 25t28 48
q6 24 8 56l4 46q1 22 1 47v140q53 -38 88 -81q32 -37 55 -80q4 -7 20 -41l8 -20l2 -8l1 -12q-7 -137 -88 -219q-51 -50 -126 -72q-55 -16 -124 -16q-18 0 -34 1v-1q-83 4 -148 36q-74 35 -123.5 93.5t-74.5 134.5q-15 43 -19 98.5t0 81.5q6 39 20 78q25 75 74.5 134
t123.5 95q17 8 67 17h466q-36 234 -133 335q-64 64 -132 96q-85 41 -194.5 41t-110 89.5t138.5 89.5q28 0 54 -1.5t50 -5.5q80 -13 153 -47q40 -20 77 -45t70 -56q37 -36 68 -78.5t57 -93.5q29 -54 51 -116t37 -195v-2z" />
    <glyph glyph-name="uniFEA7" unicode="&#x62e;" horiz-adv-x="1081" arabic-form="initial" 
d="M251 1243q0 42 28 70t70 28t70.5 -28t28.5 -70t-28.5 -70t-70.5 -28t-70 28t-28 70zM-22 336h818q-36 223 -133 324q-64 64 -132 96q-85 41 -194.5 41t-110 89.5t138.5 89.5q28 0 54 -1.5t50 -5.5q80 -13 153 -47q40 -20 77 -45t70 -56q37 -36 68 -78.5t57 -93.5
q29 -54 51 -116t37 -195v-183h-1006z" />
    <glyph glyph-name="uniFEA8" unicode="&#x62e;" horiz-adv-x="1119" arabic-form="medial" 
d="M294 1243q0 42 28 70t69 28q21 0 39 -7.5t31.5 -21t21 -31t7.5 -38.5t-7.5 -38.5t-21 -31t-31.5 -21t-39 -7.5q-41 0 -69 28t-28 70zM794 336q-36 223 -133 324q-64 64 -132 96q-85 41 -194.5 41t-110 89.5t138.5 89.5q28 0 54 -1.5t50 -5.5q80 -13 153 -47
q40 -20 77 -45t70 -56q37 -36 68 -78.5t57 -93.5q29 -54 51 -116t37 -195v-2h184v-181h-1186l6 181h810z" />
    <glyph glyph-name="uniFEA9" unicode="&#x62f;" horiz-adv-x="957" arabic-form="isolated" 
d="M414 808h-188q-20 0 -37 7t-29.5 19.5t-19.5 29t-7 36.5t7 36.5t19.5 29t29.5 19.5t37 7q321 -3 392 -38q72 -36 121 -95t74 -134t25 -154v-65q0 -59 1 -170l1 -5l1 -182q-2 1 -5 2l-511 1q-7 -1 -15 -1l-12 1l-8 2l-20 8q-34 17 -41 21q-43 24 -80 57q-43 36 -81 91
l600 5l1 168v86q0 43 -16.5 82t-46 68.5t-68.5 47t-83 17.5h-10l-19 2z" />
    <glyph glyph-name="uniFEAA" unicode="&#x62f;" horiz-adv-x="977" arabic-form="final" 
d="M836 151h-137l-374 1q-7 -1 -15 -1l-12 1l-8 2l-20 8q-34 17 -41 21q-43 24 -80 57q-43 36 -81 91l600 5l1 168v86q0 43 -16.5 82t-46 68.5t-68.5 47t-83 17.5h-10l-19 2l-12 1h-188q-20 0 -37 7t-29.5 19.5t-19.5 29t-7 36.5t7 36.5t19.5 29t29.5 19.5t37 7
q321 -3 392 -38q72 -36 121 -95t74 -134t25 -154v-65q0 -59 1 -170h170v-185h-168v-2q-2 1 -5 2z" />
    <glyph glyph-name="uniFEAB" unicode="&#x630;" horiz-adv-x="957" arabic-form="isolated" 
d="M195 1248q0 42 28 70.5t70 28.5t70 -28.5t28 -70.5t-28 -70t-70 -28t-70 28t-28 70zM414 808h-188q-20 0 -37 7t-29.5 19.5t-19.5 29t-7 36.5t7 36.5t19.5 29t29.5 19.5t37 7q321 -3 392 -38q72 -36 121 -95t74 -134t25 -154v-65q0 -59 1 -170l1 -5l1 -182q-2 1 -5 2
l-511 1q-7 -1 -15 -1l-12 1l-8 2l-20 8q-34 17 -41 21q-43 24 -80 57q-43 36 -81 91l600 5l1 168v86q0 43 -16.5 82t-46 68.5t-68.5 47t-83 17.5h-10l-19 2z" />
    <glyph glyph-name="uniFEAC" unicode="&#x630;" horiz-adv-x="982" arabic-form="final" 
d="M193 1248q0 42 28 70.5t70 28.5t70.5 -28.5t28.5 -70.5t-28.5 -70t-70.5 -28t-70 28t-28 70zM836 151h-137l-374 1q-7 -1 -15 -1l-12 1l-8 2l-20 8q-34 17 -41 21q-43 24 -80 57q-43 36 -81 91l600 5l1 168v86q0 43 -16.5 82t-46 68.5t-68.5 47t-83 17.5h-10l-19 2l-12 1
h-188q-20 0 -37 7t-29.5 19.5t-19.5 29t-7 36.5t7 36.5t19.5 29t29.5 19.5t37 7l194 -1l1 -2h32q94 0 165 -35q72 -36 121 -95t74 -134t25 -154v-65q0 -59 1 -170h190v-185h-188v-2q-2 1 -5 2z" />
    <glyph glyph-name="uniFEAD" unicode="&#x631;" horiz-adv-x="556" arabic-form="isolated" 
d="M487 335l-1 -100q-6 -63 -25 -118q-22 -62 -51 -116q-26 -51 -57 -93.5t-68 -78.5q-33 -31 -70 -56t-77 -45q-48 -22 -98 -35l-17 -6q-6 -2 -12 -3q-16 -4 -32 -5l-12 1l-8 2l-20 8q-34 16 -41 20q-43 23 -80 55q-43 35 -81 88h116q109 0 194 41q68 32 132 96
q86 89 124 301v463q0 20 7 37t19.5 29.5t29 19.5t36.5 7t36.5 -7t29 -19.5t19.5 -29.5t7 -37q0 -6 -1 -11h1v-408z" />
    <glyph glyph-name="uniFEAE" unicode="&#x631;" horiz-adv-x="621" arabic-form="final" 
d="M472 336h164v-185h-180q-4 -17 -10 -34q-22 -62 -51 -116q-26 -51 -57 -93.5t-68 -78.5q-33 -31 -70 -56t-77 -45q-48 -22 -98 -35l-17 -6q-6 -2 -12 -3q-16 -4 -32 -5l-12 1l-8 2l-20 8q-34 16 -41 20q-43 23 -80 55q-43 35 -81 88h116q109 0 194 41q68 32 132 96
q86 89 124 301v463q0 20 7 37t19.5 29.5t29 19.5t36.5 7t36.5 -7t29 -19.5t19.5 -29.5t7 -37q0 -6 -1 -11h1v-407z" />
    <glyph glyph-name="uniFEAF" unicode="&#x632;" horiz-adv-x="541" arabic-form="isolated" 
d="M270 1182q0 21 7.5 39t21 31.5t31 21t38.5 7.5t39 -7.5t31.5 -21t21 -31.5t7.5 -39q0 -42 -28.5 -70t-70.5 -28t-70 28t-28 70zM472 335l-1 -100q-6 -63 -25 -118q-22 -62 -51 -116q-26 -51 -57 -93.5t-68 -78.5q-33 -31 -70 -56t-77 -45q-48 -22 -98 -35l-17 -6
q-6 -2 -12 -3q-16 -4 -32 -5l-12 1l-8 2l-20 8q-34 16 -41 20q-43 23 -80 55q-43 35 -81 88h116q109 0 194 41q68 32 132 96q86 89 124 301v463q0 20 7 37t19.5 29.5t29 19.5t36.5 7t36.5 -7t29 -19.5t19.5 -29.5t7 -37q0 -6 -1 -11h1v-408z" />
    <glyph glyph-name="uniFEB0" unicode="&#x632;" horiz-adv-x="621" arabic-form="final" 
d="M268 1182q0 21 7.5 39t21 31.5t31 21t38.5 7.5t38.5 -7.5t31 -21t21 -31.5t7.5 -39q0 -42 -28 -70t-70 -28t-70 28t-28 70zM472 336h164v-185h-180q-4 -17 -10 -34q-22 -62 -51 -116q-26 -51 -57 -93.5t-68 -78.5q-33 -31 -70 -56t-77 -45q-48 -22 -98 -35l-17 -6
q-6 -2 -12 -3q-16 -4 -32 -5l-12 1l-8 2l-20 8q-34 16 -41 20q-43 23 -80 55q-43 35 -81 88h116q109 0 194 41q68 32 132 96q86 89 124 301v463q0 20 7 37t19.5 29.5t29 19.5t36.5 7t36.5 -7t29 -19.5t19.5 -29.5t7 -37q0 -6 -1 -11h1v-407z" />
    <glyph glyph-name="uniFEB1" unicode="&#x633;" horiz-adv-x="1985" arabic-form="isolated" 
d="M836 864q0 20 7 37t19.5 29.5t29 19.5t36.5 7t36.5 -7t29 -19.5t19.5 -29.5t7 -37q0 -6 -1 -11h1v-517h269l-4 513q-1 7 -1 15q0 20 7 37t19.5 29.5t29 19.5t36.5 7t36.5 -7t29 -19.5t19.5 -29.5t7 -37v-528h117v-1q50 -1 74 6q30 8 48 27t25.5 50t7.5 76l-6 355
q-1 7 -1 15q0 20 7 37t19.5 29.5t29 19.5t36.5 7t36.5 -7t29 -19.5t19.5 -29.5t7 -37v-9h2v-378q-5 -152 -88 -235q-73 -73 -198 -88l-615 -3q-7 -68 -34 -122q-36 -74 -95 -123.5t-134.5 -75t-153.5 -25.5q-199 0 -274.5 25.5t-134 75t-93.5 123.5q-32 65 -36 148h1
q-1 16 -1 34q1 162 88 250q82 81 219 88l12 -1l8 -2l20 -8q34 -16 41 -20q43 -23 80 -55q43 -35 81 -88h-140q-25 0 -47 -1l-46 -4q-32 -2 -56 -8q-30 -9 -48 -28t-25 -50q-8 -30 -8 -73q0 -13 1 -24q2 -48 21 -84q20 -40 53 -66.5t76 -39t208 -12.5q17 0 34 2q27 3 52 11
q43 12 76 38.5t53 66.5t20 95v666z" />
    <glyph glyph-name="uniFEB2" unicode="&#x633;" horiz-adv-x="2055" arabic-form="final" 
d="M1633 154l-615 -3q-7 -68 -34 -122q-36 -74 -95 -123.5t-134.5 -75t-153.5 -25.5q-199 0 -274.5 25.5t-134 75t-93.5 123.5q-32 65 -36 148h1q-1 16 -1 34q1 162 88 250q82 81 219 88l12 -1l8 -2l20 -8q34 -16 41 -20q43 -23 80 -55q43 -35 81 -88h-140q-25 0 -47 -1
l-46 -4q-32 -2 -56 -8q-30 -9 -48 -28t-25 -50q-8 -30 -8 -73q0 -13 1 -24q2 -48 21 -84q20 -40 53 -66.5t76 -39t208 -12.5q17 0 34 2q27 3 52 11q43 12 76 38.5t53 66.5t20 95v666q0 20 7 37t19.5 29.5t29 19.5t36.5 7t36.5 -7t29 -19.5t19.5 -29.5t7 -37q0 -6 -1 -11h1
v-517h269l-4 513q-1 7 -1 15q0 20 7 37t19.5 29.5t29 19.5t36.5 7t36.5 -7t29 -19.5t19.5 -29.5t7 -37v-528h161q18 2 30 5q30 8 48 27t25.5 50t7.5 76l-6 355q-1 7 -1 15q0 20 7 37t19.5 29.5t29 19.5t36.5 7t36.5 -7t29 -19.5t19.5 -29.5t7 -37v-9h2v-378q-3 -80 -27 -141
h177v-182h-436z" />
    <glyph glyph-name="uniFEB3" unicode="&#x633;" horiz-adv-x="1364" arabic-form="initial" 
d="M201 336v528q0 20 7 37t19.5 29.5t29 19.5t36.5 7t36.5 -7t29 -19.5t19.5 -29.5t7 -37q0 -6 -1 -11h1v-517h269l-4 513q-1 7 -1 15q0 20 7 37t19.5 29.5t29 19.5t36.5 7t36.5 -7t29 -19.5t19.5 -29.5t7 -37v-528h117v-1q50 -1 74 6q30 8 48 27t25.5 50t7.5 76l-6 355
q-1 7 -1 15q0 20 7 37t19.5 29.5t29 19.5t36.5 7t36.5 -7t29 -19.5t19.5 -29.5t7 -37v-9h2v-378q-5 -152 -88 -235q-73 -73 -198 -88l-1033 -3l-6 185h242z" />
    <glyph glyph-name="uniFEB4" unicode="&#x633;" horiz-adv-x="1399" arabic-form="medial" 
d="M-30 154l4 182h197v528q0 20 7 37t19.5 29.5t29 19.5t36.5 7t36.5 -7t29 -19.5t19.5 -29.5t7 -37q0 -6 -1 -11h1v-517h269l-4 513q-1 7 -1 15q0 20 7 37t19.5 29.5t29 19.5t36.5 7t36.5 -7t29 -19.5t19.5 -29.5t7 -37v-528h161q18 2 30 5q30 8 48 27t25.5 50t7.5 76
l-6 355q-1 7 -1 15q0 20 7 37t19.5 29.5t29 19.5t36.5 7t36.5 -7t29 -19.5t19.5 -29.5t7 -37v-9h2v-378q-3 -80 -27 -141h197v-182h-623h-831z" />
    <glyph glyph-name="uniFEB5" unicode="&#x634;" horiz-adv-x="1986" arabic-form="isolated" 
d="M1277 1511q0 21 7.5 39t21 31.5t31.5 21t38 7.5q42 0 70.5 -28.5t28.5 -70.5q0 -20 -7.5 -38t-21 -31.5t-31.5 -21t-39 -7.5q-41 0 -69.5 28.5t-28.5 69.5zM1112 1245q0 42 28 70.5t69 28.5q21 0 39 -7.5t31.5 -21t21 -31.5t7.5 -39t-7.5 -38.5t-21 -31t-31.5 -21
t-39 -7.5q-41 0 -69 28t-28 70zM1442 1245q0 42 28 70.5t70 28.5t70 -28.5t28 -70.5t-28 -70t-70 -28t-70 28t-28 70zM837 864q0 20 7 37t19.5 29.5t29 19.5t36.5 7t36.5 -7t29 -19.5t19.5 -29.5t7 -37q0 -6 -1 -11h1v-517h269l-4 513q-1 7 -1 15q0 20 7 37t19.5 29.5
t29 19.5t36.5 7t36.5 -7t29 -19.5t19.5 -29.5t7 -37v-528h117v-1q50 -1 74 6q30 8 48 27t25.5 50t7.5 76l-6 355q-1 7 -1 15q0 20 7 37t19.5 29.5t29 19.5t36.5 7t36.5 -7t29 -19.5t19.5 -29.5t7 -37v-9h2v-378q-5 -152 -88 -235q-73 -73 -198 -88l-615 -3q-7 -68 -34 -122
q-36 -74 -95 -123.5t-134.5 -75t-153.5 -25.5q-199 0 -274.5 25.5t-134 75t-93.5 123.5q-32 65 -36 148h1q-1 16 -1 34q1 162 88 250q82 81 219 88l12 -1l8 -2l20 -8q34 -16 41 -20q43 -23 80 -55q43 -35 81 -88h-140q-25 0 -47 -1l-46 -4q-32 -2 -56 -8q-30 -9 -48 -28
t-25 -50q-8 -30 -8 -73q0 -13 1 -24q2 -48 21 -84q20 -40 53 -66.5t76 -39t208 -12.5q17 0 34 2q27 3 52 11q43 12 76 38.5t53 66.5t20 95v666z" />
    <glyph glyph-name="uniFEB6" unicode="&#x634;" horiz-adv-x="2080" arabic-form="final" 
d="M1299 1511q0 21 7.5 39t21 31.5t31 21t38.5 7.5t39 -7.5t31.5 -21t21 -31.5t7.5 -39q0 -41 -28.5 -69.5t-70.5 -28.5t-70 28.5t-28 69.5zM1658 154l-615 -3q-7 -68 -34 -122q-36 -74 -95 -123.5t-134.5 -75t-153.5 -25.5q-199 0 -274.5 25.5t-134 75t-93.5 123.5
q-32 65 -36 148h1q-1 16 -1 34q1 162 88 250q82 81 219 88l12 -1l8 -2l20 -8q34 -16 41 -20q43 -23 80 -55q43 -35 81 -88h-140q-25 0 -47 -1l-46 -4q-32 -2 -56 -8q-30 -9 -48 -28t-25 -50q-8 -30 -8 -73q0 -13 1 -24q2 -48 21 -84q20 -40 53 -66.5t76 -39t208 -12.5
q17 0 34 2q27 3 52 11q43 12 76 38.5t53 66.5t20 95v666q0 20 7 37t19.5 29.5t29 19.5t36.5 7t36.5 -7t29 -19.5t19.5 -29.5t7 -37q0 -6 -1 -11h1v-517h269l-4 513q-1 7 -1 15q0 20 7 37t19.5 29.5t29 19.5t36.5 7t36.5 -7t29 -19.5t19.5 -29.5t7 -37v-528h161q18 2 30 5
q30 8 48 27t25.5 50t7.5 76l-6 355q-1 7 -1 15q0 20 7 37t19.5 29.5t29 19.5t36.5 7t36.5 -7t29 -19.5t19.5 -29.5t7 -37v-9h2v-378q-3 -80 -27 -141h177v-182h-436zM1464 1245q0 42 28 70.5t69 28.5q21 0 39 -7.5t31.5 -21t21 -31.5t7.5 -39t-7.5 -38.5t-21 -31t-31.5 -21
t-39 -7.5q-41 0 -69 28t-28 70zM1134 1245q0 42 28 70.5t69 28.5q21 0 39 -7.5t31.5 -21t21 -31.5t7.5 -39t-7.5 -38.5t-21 -31t-31.5 -21t-39 -7.5q-41 0 -69 28t-28 70z" />
    <glyph glyph-name="uniFEB7" unicode="&#x634;" horiz-adv-x="1364" arabic-form="initial" 
d="M647 1511q0 21 7.5 39t21 31.5t31 21t38.5 7.5t39 -7.5t31.5 -21t21 -31.5t7.5 -39q0 -41 -28.5 -69.5t-70.5 -28.5t-70 28.5t-28 69.5zM812 1245q0 42 28 70.5t69 28.5q21 0 39 -7.5t31.5 -21t21 -31.5t7.5 -39t-7.5 -38.5t-21 -31t-31.5 -21t-39 -7.5q-41 0 -69 28
t-28 70zM482 1245q0 42 28 70.5t69 28.5q21 0 39 -7.5t31.5 -21t21 -31.5t7.5 -39t-7.5 -38.5t-21 -31t-31.5 -21t-39 -7.5q-41 0 -69 28t-28 70zM201 336v528q0 20 7 37t19.5 29.5t29 19.5t36.5 7t36.5 -7t29 -19.5t19.5 -29.5t7 -37q0 -6 -1 -11h1v-517h269l-4 513
q-1 7 -1 15q0 20 7 37t19.5 29.5t29 19.5t36.5 7t36.5 -7t29 -19.5t19.5 -29.5t7 -37v-528h117v-1q50 -1 74 6q30 8 48 27t25.5 50t7.5 76l-6 355q-1 7 -1 15q0 20 7 37t19.5 29.5t29 19.5t36.5 7t36.5 -7t29 -19.5t19.5 -29.5t7 -37v-9h2v-378q-5 -152 -88 -235
q-73 -73 -198 -88l-1033 -3l-6 185h242z" />
    <glyph glyph-name="uniFEB8" unicode="&#x634;" horiz-adv-x="1399" arabic-form="medial" 
d="M601 1511q0 21 7.5 39t21 31.5t31.5 21t38 7.5q42 0 70.5 -28.5t28.5 -70.5q0 -20 -7.5 -38t-21 -31.5t-31.5 -21t-39 -7.5q-41 0 -69.5 28.5t-28.5 69.5zM436 1245q0 42 28 70.5t69 28.5q21 0 39 -7.5t31.5 -21t21 -31.5t7.5 -39t-7.5 -38.5t-21 -31t-31.5 -21t-39 -7.5
q-41 0 -69 28t-28 70zM766 1245q0 42 28 70.5t70 28.5t70 -28.5t28 -70.5t-28 -70t-70 -28t-70 28t-28 70zM-30 154l4 182h197v528q0 20 7 37t19.5 29.5t29 19.5t36.5 7t36.5 -7t29 -19.5t19.5 -29.5t7 -37q0 -6 -1 -11h1v-517h269l-4 513q-1 7 -1 15q0 20 7 37t19.5 29.5
t29 19.5t36.5 7t36.5 -7t29 -19.5t19.5 -29.5t7 -37v-528h161q18 2 30 5q30 8 48 27t25.5 50t7.5 76l-6 355q-1 7 -1 15q0 20 7 37t19.5 29.5t29 19.5t36.5 7t36.5 -7t29 -19.5t19.5 -29.5t7 -37v-9h2v-378q-3 -80 -27 -141h197v-182h-623h-831z" />
    <glyph glyph-name="uniFEB9" unicode="&#x635;" horiz-adv-x="2167" arabic-form="isolated" 
d="M1698 807l-29 -2q-244 0 -283 -17.5t-68.5 -47t-46 -68.5t-16.5 -82v-86l1 -168h474v-1q50 -1 74 6q30 8 48 27t25.5 50t7.5 76v154q0 45 -7.5 76t-25.5 50t-48 28q-24 6 -56 8v1zM844 864q0 20 7 37t19.5 29.5t29 19.5t36.5 7t36.5 -7t29 -19.5t19.5 -29.5t7 -37
q0 -6 -1 -11h1v-517h57q1 111 1 170v63q0 80 25 155.5t74 134.5t121 94.5t367 35.5h74l1 -1q146 -6 228 -87q88 -89 88 -253v-154q0 -164 -88 -252q-81 -81 -226 -91h-492v-12h-1q1 -5 1 -11q0 -20 -6.5 -37t-18.5 -29.5t-27.5 -19.5t-34.5 -7t-34.5 7t-27.5 19.5
t-18.5 29.5t-6.5 37v23h-58q-7 -68 -34 -122q-36 -74 -95 -123.5t-134.5 -75t-153.5 -25.5q-199 0 -274.5 25.5t-134 75t-93.5 123.5q-32 65 -36 148h1q-1 16 -1 34q1 162 88 250q82 81 219 88l12 -1l8 -2l20 -8q34 -16 41 -20q43 -23 80 -55q43 -35 81 -88h-140
q-25 0 -47 -1l-46 -4q-32 -2 -56 -8q-30 -9 -48 -28t-25 -50q-8 -30 -8 -73q0 -13 1 -24q2 -48 21 -84q20 -40 53 -66.5t76 -39t208 -12.5q17 0 34 2q27 3 52 11q43 12 76 38.5t53 66.5t20 95v666z" />
    <glyph glyph-name="uniFEBA" unicode="&#x635;" horiz-adv-x="2199" arabic-form="final" 
d="M1805 335l1 1h9q18 2 30 5q30 8 48 27t25.5 50t7.5 76v154q0 45 -7.5 76t-25.5 50t-48 28q-24 6 -56 8v1l-50 -4l-29 -2q-244 0 -283 -17.5t-68.5 -47t-46 -68.5t-16.5 -82v-86l1 -168h474v-1h34zM2078 336h141v-185h-920v-12h-1q1 -5 1 -11q0 -20 -6.5 -37t-18.5 -29.5
t-27.5 -19.5t-34.5 -7t-34.5 7t-27.5 19.5t-18.5 29.5t-6.5 37v23h-58q-7 -68 -34 -122q-36 -74 -95 -123.5t-134.5 -75t-153.5 -25.5q-199 0 -274.5 25.5t-134 75t-93.5 123.5q-32 65 -36 148h1q-1 16 -1 34q1 162 88 250q82 81 219 88l12 -1l8 -2l20 -8q34 -16 41 -20
q43 -23 80 -55q43 -35 81 -88h-140q-25 0 -47 -1l-46 -4q-32 -2 -56 -8q-30 -9 -48 -28t-25 -50q-8 -30 -8 -73q0 -13 1 -24q2 -48 21 -84q20 -40 53 -66.5t76 -39t208 -12.5q17 0 34 2q27 3 52 11q43 12 76 38.5t53 66.5t20 95v666q0 20 7 37t19.5 29.5t29 19.5t36.5 7
t36.5 -7t29 -19.5t19.5 -29.5t7 -37q0 -6 -1 -11h1v-517h57q1 111 1 170v63q0 80 25 155.5t74 134.5t121 94.5t367 35.5h74l1 -1q146 -6 228 -87q88 -89 88 -253v-154q0 -91 -27 -158z" />
    <glyph glyph-name="uniFEBB" unicode="&#x635;" horiz-adv-x="1433" arabic-form="initial" 
d="M983 807l-29 -2q-244 0 -283 -17.5t-68.5 -47t-46 -68.5t-16.5 -82v-86l1 -168h474v-1q50 -1 74 6q30 8 48 27t25.5 50t7.5 76v154q0 45 -7.5 76t-25.5 50t-48 28q-24 6 -56 8v1zM311 151v-3l-6 3h-348v185h172v528q0 20 7 37t19.5 29.5t29 19.5t36.5 7t36.5 -7t29 -19.5
t19.5 -29.5t7 -37q0 -6 -1 -11h1v-517h57q1 111 1 170v63q0 80 25 155.5t74 134.5t121 94.5t367 35.5h74l1 -1q146 -6 228 -87q88 -89 88 -253v-154q0 -164 -88 -252q-81 -81 -226 -91h-492v-12h-1q1 -5 1 -11q0 -20 -6.5 -37t-18.5 -29.5t-27.5 -19.5t-34.5 -7t-34.5 7
t-27.5 19.5t-18.5 29.5t-6.5 37v23h-58z" />
    <glyph glyph-name="uniFEBC" unicode="&#x635;" horiz-adv-x="1534" arabic-form="medial" 
d="M411 336q1 111 1 170v63q0 80 25 155.5t74 134.5t121 94.5t367 35.5h74l1 -1q146 -6 228 -87q88 -89 88 -253v-154q0 -91 -27 -158h208v-185h-987v-12h-1q1 -5 1 -11q0 -20 -6.5 -37t-18.5 -29.5t-27.5 -19.5t-34.5 -7t-34.5 7t-27.5 19.5t-18.5 29.5t-6.5 37v23h-58v-3
l-6 3h-368v185h192v528q0 20 7 37t19.5 29.5t29 19.5t36.5 7t36.5 -7t29 -19.5t19.5 -29.5t7 -37q0 -6 -1 -11h1v-517h57zM582 336h518q18 2 30 5q30 8 48 27t25.5 50t7.5 76v154q0 45 -7.5 76t-25.5 50t-48 28q-24 6 -56 8v1l-50 -4l-29 -2q-244 0 -283 -17.5t-68.5 -47
t-46 -68.5t-16.5 -82v-86z" />
    <glyph glyph-name="uniFEBD" unicode="&#x636;" horiz-adv-x="2190" arabic-form="isolated" 
d="M1144 1227q0 21 7.5 39t20.5 31.5t31 21t38 7.5q42 0 70.5 -28.5t28.5 -70.5q0 -20 -7.5 -38t-21 -31t-31.5 -20.5t-39 -7.5q-41 0 -69 28t-28 69zM1717 807l-29 -2q-244 0 -283 -17.5t-68.5 -47t-46 -68.5t-16.5 -82v-86l1 -168h474v-1q50 -1 74 6q30 8 48 27t25.5 50
t7.5 76v154q0 45 -7.5 76t-25.5 50t-48 28q-24 6 -56 8v1zM863 864q0 20 7 37t19.5 29.5t29 19.5t36.5 7t36.5 -7t29 -19.5t19.5 -29.5t7 -37q0 -6 -1 -11h1v-517h57q1 111 1 170v63q0 80 25 155.5t74 134.5t121 94.5t367 35.5h74l1 -1q146 -6 228 -87q88 -89 88 -253v-154
q0 -164 -88 -252q-81 -81 -226 -91h-492v-12h-1q1 -5 1 -11q0 -20 -6.5 -37t-18.5 -29.5t-27.5 -19.5t-34.5 -7t-34.5 7t-27.5 19.5t-18.5 29.5t-6.5 37v23h-58q-7 -68 -34 -122q-36 -74 -95 -123.5t-134.5 -75t-153.5 -25.5q-199 0 -274.5 25.5t-134 75t-93.5 123.5
q-32 65 -36 148h1q-1 16 -1 34q1 162 88 250q82 81 219 88l12 -1l8 -2l20 -8q34 -16 41 -20q43 -23 80 -55q43 -35 81 -88h-140q-25 0 -47 -1l-46 -4q-32 -2 -56 -8q-30 -9 -48 -28t-25 -50q-8 -30 -8 -73q0 -13 1 -24q2 -48 21 -84q20 -40 53 -66.5t76 -39t208 -12.5
q17 0 34 2q27 3 52 11q43 12 76 38.5t53 66.5t20 95v666z" />
    <glyph glyph-name="uniFEBE" unicode="&#x636;" horiz-adv-x="2214" arabic-form="final" 
d="M1178 1227q0 21 7.5 39t21 31.5t31.5 21t38 7.5q42 0 70.5 -28.5t28.5 -70.5q0 -20 -7.5 -38t-21 -31t-31.5 -20.5t-39 -7.5q-41 0 -69.5 28t-28.5 69zM1820 335l1 1h9q18 2 30 5q30 8 48 27t25.5 50t7.5 76v154q0 45 -7.5 76t-25.5 50t-48 28q-24 6 -56 8v1l-50 -4
l-29 -2q-244 0 -283 -17.5t-68.5 -47t-46 -68.5t-16.5 -82v-86l1 -168h474v-1h34zM2093 336h131v-185h-910v-12h-1q1 -5 1 -11q0 -20 -6.5 -37t-18.5 -29.5t-27.5 -19.5t-34.5 -7t-34.5 7t-27.5 19.5t-18.5 29.5t-6.5 37v23h-58q-7 -68 -34 -122q-36 -74 -95 -123.5
t-134.5 -75t-153.5 -25.5q-199 0 -274.5 25.5t-134 75t-93.5 123.5q-32 65 -36 148h1q-1 16 -1 34q1 162 88 250q82 81 219 88l12 -1l8 -2l20 -8q34 -16 41 -20q43 -23 80 -55q43 -35 81 -88h-140q-25 0 -47 -1l-46 -4q-32 -2 -56 -8q-30 -9 -48 -28t-25 -50q-8 -30 -8 -73
q0 -13 1 -24q2 -48 21 -84q20 -40 53 -66.5t76 -39t208 -12.5q17 0 34 2q27 3 52 11q43 12 76 38.5t53 66.5t20 95v666q0 20 7 37t19.5 29.5t29 19.5t36.5 7t36.5 -7t29 -19.5t19.5 -29.5t7 -37q0 -6 -1 -11h1v-517h57q1 111 1 170v63q0 80 25 155.5t74 134.5t121 94.5
t367 35.5h74l1 -1q146 -6 228 -87q88 -89 88 -253v-154q0 -91 -27 -158z" />
    <glyph glyph-name="uniFEBF" unicode="&#x636;" horiz-adv-x="1245" arabic-form="initial" 
d="M220 1245q0 42 28.5 70.5t69.5 28.5q21 0 39 -7.5t31.5 -21t21 -31.5t7.5 -39t-7.5 -38.5t-21 -31t-31.5 -21t-39 -7.5q-41 0 -69.5 28t-28.5 70zM795 807l-29 -2q-244 0 -283 -17.5t-68.5 -47t-46 -68.5t-16.5 -82v-86l1 -168h474v-1q50 -1 74 6q30 8 48 27t25.5 50
t7.5 76v154q0 45 -7.5 76t-25.5 50t-48 28q-24 6 -56 8v1zM123 151v-3l-6 3h-348v185h172v528q0 20 7 37t19.5 29.5t29 19.5t36.5 7t36.5 -7t29 -19.5t19.5 -29.5t7 -37q0 -6 -1 -11h1v-517h57q1 111 1 170v63q0 80 25 155.5t74 134.5t121 94.5t367 35.5h74l1 -1
q146 -6 228 -87q88 -89 88 -253v-154q0 -164 -88 -252q-81 -81 -226 -91h-492v-12h-1q1 -5 1 -11q0 -20 -6.5 -37t-18.5 -29.5t-27.5 -19.5t-34.5 -7t-34.5 7t-27.5 19.5t-18.5 29.5t-6.5 37v23h-58z" />
    <glyph glyph-name="uniFEC0" unicode="&#x636;" horiz-adv-x="1543" arabic-form="medial" 
d="M456 1245q0 42 28.5 70.5t69.5 28.5q21 0 39 -7.5t31.5 -21t21 -31.5t7.5 -39t-7.5 -38.5t-21 -31t-31.5 -21t-39 -7.5q-41 0 -69.5 28t-28.5 70zM591 336h518q18 2 30 5q30 8 48 27t25.5 50t7.5 76v154q0 45 -7.5 76t-25.5 50t-48 28q-24 6 -56 8v1l-50 -4l-29 -2
q-244 0 -283 -17.5t-68.5 -47t-46 -68.5t-16.5 -82v-86zM420 336q1 111 1 170v63q0 80 25 155.5t74 134.5t121 94.5t367 35.5h74l1 -1q146 -6 228 -87q88 -89 88 -253v-154q0 -91 -27 -158h211v-185h-990v-12h-1q1 -5 1 -11q0 -20 -6.5 -37t-18.5 -29.5t-27.5 -19.5
t-34.5 -7t-34.5 7t-27.5 19.5t-18.5 29.5t-6.5 37v23h-58v-3l-6 3h-388v185h212v528q0 20 7 37t19.5 29.5t29 19.5t36.5 7t36.5 -7t29 -19.5t19.5 -29.5t7 -37q0 -6 -1 -11h1v-517h57z" />
    <glyph glyph-name="uniFEC1" unicode="&#x637;" horiz-adv-x="1488" arabic-form="isolated" 
d="M553 626v-290h472v-1q50 -1 74 6q30 8 48 27t25.5 50t7.5 76v154q0 45 -7.5 76t-25.5 50t-48 28q-24 6 -56 8v1l-50 -4l-29 -2q-244 0 -283 -17.5t-68.5 -47t-45.5 -68.5q-10 -22 -14 -46zM369 1264q0 20 7 37t19.5 29.5t29 19.5t36.5 7t36.5 -7t29 -19.5t19.5 -29.5
t7 -37q0 -6 -1 -11h1v-328q23 16 48 29q72 35 367 35h74l1 -1q146 -6 228 -87q88 -89 88 -253v-154q0 -164 -88 -252q-81 -81 -226 -91h-492v-12h-1q1 -5 1 -11q0 -20 -6.5 -37t-18.5 -29.5t-27.5 -19.5t-34.5 -7t-34.5 7t-27.5 19.5t-18.5 29.5t-6.5 37v26q-23 6 -47 5
l-12 1l-8 2l-20 8q-34 16 -41 20q-43 23 -80 55q-43 35 -81 88h140q25 0 47 1l46 4q25 2 45 6z" />
    <glyph glyph-name="uniFEC2" unicode="&#x637;" horiz-adv-x="1554" arabic-form="final" 
d="M582 151v-12h-1q1 -5 1 -11q0 -20 -6.5 -37t-18.5 -29.5t-27.5 -19.5t-34.5 -7t-34.5 7t-27.5 19.5t-18.5 29.5t-6.5 37v26q-23 6 -47 5l-12 1l-8 2l-20 8q-34 16 -41 20q-43 23 -80 55q-43 35 -81 88h140q25 0 47 1l46 4q25 2 45 6l1 920q0 20 7 37t19.5 29.5t29 19.5
t36.5 7t36.5 -7t29 -19.5t19.5 -29.5t7 -37q0 -6 -1 -11h1v-328q23 16 48 29q72 35 367 35h74l1 -1q146 -6 228 -87q88 -89 88 -253v-154q0 -91 -27 -158h211v-185h-990zM1098 336q18 2 30 5q30 8 48 27t25.5 50t7.5 76v154q0 45 -7.5 76t-25.5 50t-48 28q-24 6 -56 8v1
l-50 -4l-29 -2q-244 0 -283 -17.5t-68.5 -47t-45.5 -68.5q-10 -22 -14 -46v-290h516z" />
    <glyph glyph-name="uniFEC3" unicode="&#x637;" horiz-adv-x="1245" arabic-form="initial" 
d="M325 925q23 16 48 29q72 35 367 35h74l1 -1q146 -6 228 -87q88 -89 88 -253v-154q0 -164 -88 -252q-81 -81 -226 -91h-492v-12h-1q1 -5 1 -11q0 -20 -6.5 -37t-18.5 -29.5t-27.5 -19.5t-34.5 -7t-34.5 7t-27.5 19.5t-18.5 29.5t-6.5 37v23h-182v185h172v928q0 20 7 37
t19.5 29.5t29 19.5t36.5 7t36.5 -7t29 -19.5t19.5 -29.5t7 -37q0 -6 -1 -11h1v-328zM325 626v-290h472v-1q50 -1 74 6q30 8 48 27t25.5 50t7.5 76v154q0 45 -7.5 76t-25.5 50t-48 28q-24 6 -56 8v1l-50 -4l-29 -2q-244 0 -283 -17.5t-68.5 -47t-45.5 -68.5q-10 -22 -14 -46z
" />
    <glyph glyph-name="uniFEC4" unicode="&#x637;" horiz-adv-x="1305" arabic-form="medial" 
d="M841 336q18 2 30 5q30 8 48 27t25.5 50t7.5 76v154q0 45 -7.5 76t-25.5 50t-48 28q-24 6 -56 8v1l-50 -4l-29 -2q-244 0 -283 -17.5t-68.5 -47t-45.5 -68.5q-10 -22 -14 -46v-290h516zM-31 151v185h172v928q0 20 7 37t19.5 29.5t29 19.5t36.5 7t36.5 -7t29 -19.5
t19.5 -29.5t7 -37q0 -6 -1 -11h1v-328q23 16 48 29q72 35 367 35h74l1 -1q146 -6 228 -87q88 -89 88 -253v-154q0 -91 -27 -158h255v-185h-1034v-12h-1q1 -5 1 -11q0 -20 -6.5 -37t-18.5 -29.5t-27.5 -19.5t-34.5 -7t-34.5 7t-27.5 19.5t-18.5 29.5t-6.5 37v23h-182z" />
    <glyph glyph-name="uniFEC5" unicode="&#x638;" horiz-adv-x="1508" arabic-form="isolated" 
d="M747 1245q0 42 28 70.5t69 28.5q21 0 39 -7.5t31.5 -21t21 -31.5t7.5 -39t-7.5 -38.5t-21 -31t-31.5 -21t-39 -7.5q-41 0 -69 28t-28 70zM573 626v-290h472v-1q50 -1 74 6q30 8 48 27t25.5 50t7.5 76v154q0 45 -7.5 76t-25.5 50t-48 28q-24 6 -56 8v1l-50 -4l-29 -2
q-244 0 -283 -17.5t-68.5 -47t-45.5 -68.5q-10 -22 -14 -46zM389 1264q0 20 7 37t19.5 29.5t29 19.5t36.5 7t36.5 -7t29 -19.5t19.5 -29.5t7 -37q0 -6 -1 -11h1v-328q23 16 48 29q72 35 367 35h74l1 -1q146 -6 228 -87q88 -89 88 -253v-154q0 -164 -88 -252
q-81 -81 -226 -91h-492v-12h-1q1 -5 1 -11q0 -20 -6.5 -37t-18.5 -29.5t-27.5 -19.5t-34.5 -7t-34.5 7t-27.5 19.5t-18.5 29.5t-6.5 37v26q-23 6 -47 5l-12 1l-8 2l-20 8q-34 16 -41 20q-43 23 -80 55q-43 35 -81 88h140q25 0 47 1l46 4q25 2 45 6z" />
    <glyph glyph-name="uniFEC6" unicode="&#x638;" horiz-adv-x="1387" arabic-form="final" 
d="M548 1245q0 42 28 70.5t70 28.5t70.5 -28.5t28.5 -70.5t-28.5 -70t-70.5 -28t-70 28t-28 70zM377 151v-12h-1q1 -5 1 -11q0 -20 -6.5 -37t-18.5 -29.5t-27.5 -19.5t-34.5 -7t-34.5 7t-27.5 19.5t-18.5 29.5t-6.5 37v26q-23 6 -47 5l-12 1l-8 2l-20 8q-34 16 -41 20
q-43 23 -80 55q-43 35 -81 88h140q25 0 47 1l46 4q25 2 45 6l1 920q0 20 7 37t19.5 29.5t29 19.5t36.5 7t36.5 -7t29 -19.5t19.5 -29.5t7 -37q0 -6 -1 -11h1v-328q23 16 48 29q72 35 367 35h74l1 -1q146 -6 228 -87q88 -89 88 -253v-154q0 -91 -27 -158h311v-185h-1090z
M893 336q18 2 30 5q30 8 48 27t25.5 50t7.5 76v154q0 45 -7.5 76t-25.5 50t-48 28q-24 6 -56 8v1l-50 -4l-29 -2q-244 0 -283 -17.5t-68.5 -47t-45.5 -68.5q-10 -22 -14 -46v-290h516z" />
    <glyph glyph-name="uniFEC7" unicode="&#x638;" horiz-adv-x="1245" arabic-form="initial" 
d="M580 1245q0 42 28 70.5t70 28.5t70.5 -28.5t28.5 -70.5t-28.5 -70t-70.5 -28t-70 28t-28 70zM325 925q23 16 48 29q72 35 367 35h74l1 -1q146 -6 228 -87q88 -89 88 -253v-154q0 -164 -88 -252q-81 -81 -226 -91h-492v-12h-1q1 -5 1 -11q0 -20 -6.5 -37t-18.5 -29.5
t-27.5 -19.5t-34.5 -7t-34.5 7t-27.5 19.5t-18.5 29.5t-6.5 37v23h-182v185h172v928q0 20 7 37t19.5 29.5t29 19.5t36.5 7t36.5 -7t29 -19.5t19.5 -29.5t7 -37q0 -6 -1 -11h1v-328zM325 626v-290h472v-1q50 -1 74 6q30 8 48 27t25.5 50t7.5 76v154q0 45 -7.5 76t-25.5 50
t-48 28q-24 6 -56 8v1l-50 -4l-29 -2q-244 0 -283 -17.5t-68.5 -47t-45.5 -68.5q-10 -22 -14 -46z" />
    <glyph glyph-name="uniFEC8" unicode="&#x638;" horiz-adv-x="1305" arabic-form="medial" 
d="M578 1245q0 42 28 70.5t70 28.5t70 -28.5t28 -70.5t-28 -70t-70 -28t-70 28t-28 70zM841 336q18 2 30 5q30 8 48 27t25.5 50t7.5 76v154q0 45 -7.5 76t-25.5 50t-48 28q-24 6 -56 8v1l-50 -4l-29 -2q-244 0 -283 -17.5t-68.5 -47t-45.5 -68.5q-10 -22 -14 -46v-290h516z
M-31 151v185h172v928q0 20 7 37t19.5 29.5t29 19.5t36.5 7t36.5 -7t29 -19.5t19.5 -29.5t7 -37q0 -6 -1 -11h1v-328q23 16 48 29q72 35 367 35h74l1 -1q146 -6 228 -87q88 -89 88 -253v-154q0 -91 -27 -158h255v-185h-1034v-12h-1q1 -5 1 -11q0 -20 -6.5 -37t-18.5 -29.5
t-27.5 -19.5t-34.5 -7t-34.5 7t-27.5 19.5t-18.5 29.5t-6.5 37v23h-182z" />
    <glyph glyph-name="uniFEC9" unicode="&#x639;" horiz-adv-x="1204" arabic-form="isolated" 
d="M406 150q-31 -3 -39 -7q-40 -20 -66.5 -53.5t-38.5 -76.5q-10 -30 -8.5 -68t7.5 -58q12 -43 38.5 -76t66.5 -53q36 -19 84 -21h5q9 -1 19 -1q43 0 73 8q31 7 50 25t28 48q6 24 8 56l4 46q1 22 1 47v140q53 -38 88 -81q32 -37 55 -80q4 -7 20 -41l8 -20l2 -8l1 -12
q-7 -137 -88 -219q-51 -50 -126 -72q-55 -16 -124 -16q-18 0 -34 1v-1q-83 4 -148 36q-74 35 -123.5 93.5t-74.5 134.5q-15 43 -19 98.5t0 81.5q6 39 20 78q25 75 74.5 134t123.5 95q27 13 57 23q1 119 1 175v65q0 79 25 154t74 134t121 95q63 31 144 35h69l1 -1
q146 -6 228 -87q88 -89 78 -173q-2 -25 -7 -37q-7 -17 -19.5 -29.5t-29 -19.5t-36.5 -7t-36.5 7t-29 19.5t-19.5 29.5q-3 8 -7 37q-7 34 -18 46q-18 19 -48 28q-15 4 -34 6h-32l-12 -1l-19 -2h-10q-44 0 -83 -17.5t-68.5 -47t-46 -68.5t-16.5 -82v-86l1 -168l600 -5
q-38 -55 -81 -91q-37 -33 -80 -57q-7 -4 -41 -21l-20 -8l-8 -2l-12 -1q-8 0 -15 1l-407 -1z" />
    <glyph glyph-name="uniFECA" unicode="&#x639;" horiz-adv-x="1208" arabic-form="final" 
d="M1218 336v-185h-428v1l-326 -1l-51 -1q-31 -3 -39 -7q-40 -20 -66.5 -53.5t-38.5 -76.5q-10 -30 -8.5 -68t7.5 -58q12 -43 38.5 -76t66.5 -53q36 -19 84 -21h5q9 -1 19 -1q43 0 73 8q31 7 50 25t28 48q6 24 8 56l4 46q1 22 1 47v140q53 -38 88 -81q32 -37 55 -80
q4 -7 20 -41l8 -20l2 -8l1 -12q-7 -137 -88 -219q-51 -50 -126 -72q-55 -16 -124 -16q-18 0 -34 1v-1q-83 4 -148 36q-74 35 -123.5 93.5t-74.5 134.5q-15 43 -19 98.5t0 81.5q6 39 20 78q25 75 74.5 134t123.5 95q27 13 57 23q1 119 1 175v65q0 79 25 154t74 134t121 95
q63 31 144 35h69l1 -1q146 -6 228 -87q88 -89 78 -173q-2 -25 -7 -37q-7 -17 -19.5 -29.5t-29 -19.5t-36.5 -7t-36.5 7t-29 19.5t-19.5 29.5q-3 8 -7 37q-7 34 -18 46q-18 19 -48 28q-15 4 -34 6h-32l-12 -1l-19 -2h-10q-44 0 -83 -17.5t-68.5 -47t-46 -68.5t-16.5 -82v-86
l1 -168h690z" />
    <glyph glyph-name="uniFECB" unicode="&#x639;" horiz-adv-x="1061" arabic-form="initial" 
d="M583 989h25l1 2l-28 1zM297 151h-104q-3 -1 -5 -2v2h-207v185l208 5l1 5q1 101 1 160v65q0 79 25 154t74 134t121 95q63 31 144 35h69l1 -1q146 -6 228 -87q88 -89 78 -173q-2 -25 -7 -37q-7 -17 -19.5 -29.5t-29 -19.5t-36.5 -7t-36.5 7t-29 19.5t-19.5 29.5q-3 8 -7 37
q-7 34 -18 46q-18 19 -48 28q-15 4 -34 6h-32l-12 -1l-19 -2h-10q-44 0 -83 -17.5t-68.5 -47t-46 -68.5t-16.5 -82v-86l1 -168l600 -5q-38 -55 -81 -91q-37 -33 -80 -57q-7 -4 -41 -21l-20 -8l-8 -2l-12 -1q-8 0 -15 1z" />
    <glyph glyph-name="uniFECC" unicode="&#x639;" horiz-adv-x="1066" arabic-form="medial" 
d="M583 989h25l1 2l-28 1zM361 336h763v-185h-931q-3 -1 -5 -2v2h-207v185h209q1 111 1 170v65q0 79 25 154t74 134t121 95q63 31 144 35h69l1 -1q146 -6 228 -87q88 -89 78 -173q-2 -25 -7 -37q-7 -17 -19.5 -29.5t-29 -19.5t-36.5 -7t-36.5 7t-29 19.5t-19.5 29.5
q-3 8 -7 37q-7 34 -18 46q-18 19 -48 28q-15 4 -34 6h-32l-12 -1l-19 -2h-10q-44 0 -83 -17.5t-68.5 -47t-46 -68.5t-16.5 -82v-86z" />
    <glyph glyph-name="uniFECD" unicode="&#x63a;" horiz-adv-x="1204" arabic-form="isolated" 
d="M581 1245q0 42 28 70.5t70 28.5t70 -28.5t28 -70.5t-28 -70t-70 -28t-70 28t-28 70zM416 150q-31 -3 -39 -7q-40 -20 -66.5 -53.5t-38.5 -76.5q-10 -30 -8.5 -68t7.5 -58q12 -43 38.5 -76t66.5 -53q36 -19 84 -21h5q9 -1 19 -1q43 0 73 8q31 7 50 25t28 48q6 24 8 56
l4 46q1 22 1 47v140q53 -38 88 -81q32 -37 55 -80q4 -7 20 -41l8 -20l2 -8l1 -12q-7 -137 -88 -219q-51 -50 -126 -72q-55 -16 -124 -16q-18 0 -34 1v-1q-83 4 -148 36q-74 35 -123.5 93.5t-74.5 134.5q-15 43 -19 98.5t0 81.5q6 39 20 78q25 75 74.5 134t123.5 95
q27 13 57 23q1 119 1 175v65q0 79 25 154t74 134t121 95q63 31 144 35h69l1 -1q146 -6 228 -87q88 -89 78 -173q-2 -25 -7 -37q-7 -17 -19.5 -29.5t-29 -19.5t-36.5 -7t-36.5 7t-29 19.5t-19.5 29.5q-3 8 -7 37q-7 34 -18 46q-18 19 -48 28q-15 4 -34 6h-32l-12 -1l-19 -2
h-10q-44 0 -83 -17.5t-68.5 -47t-46 -68.5t-16.5 -82v-86l1 -168l600 -5q-38 -55 -81 -91q-37 -33 -80 -57q-7 -4 -41 -21l-20 -8l-8 -2l-12 -1q-8 0 -15 1l-407 -1z" />
    <glyph glyph-name="uniFECE" unicode="&#x63a;" horiz-adv-x="1196" arabic-form="final" 
d="M512 1243q0 42 28.5 70t69.5 28q21 0 39 -7.5t31.5 -21t21 -31t7.5 -38.5t-7.5 -38.5t-21 -31t-31.5 -21t-39 -7.5q-41 0 -69.5 28t-28.5 70zM1221 336v-185h-438v1l-326 -1l-51 -1q-31 -3 -39 -7q-40 -20 -66.5 -53.5t-38.5 -76.5q-10 -30 -8.5 -68t7.5 -58
q12 -43 38.5 -76t66.5 -53q36 -19 84 -21h5q9 -1 19 -1q43 0 73 8q31 7 50 25t28 48q6 24 8 56l4 46q1 22 1 47v140q53 -38 88 -81q32 -37 55 -80q4 -7 20 -41l8 -20l2 -8l1 -12q-7 -137 -88 -219q-51 -50 -126 -72q-55 -16 -124 -16q-18 0 -34 1v-1q-83 4 -148 36
q-74 35 -123.5 93.5t-74.5 134.5q-15 43 -19 98.5t0 81.5q6 39 20 78q25 75 74.5 134t123.5 95q27 13 57 23q1 119 1 175v65q0 79 25 154t74 134t121 95q63 31 144 35h69l1 -1q146 -6 228 -87q88 -89 78 -173q-2 -25 -7 -37q-7 -17 -19.5 -29.5t-29 -19.5t-36.5 -7t-36.5 7
t-29 19.5t-19.5 29.5q-3 8 -7 37q-7 34 -18 46q-18 19 -48 28q-15 4 -34 6h-32l-12 -1l-19 -2h-10q-44 0 -83 -17.5t-68.5 -47t-46 -68.5t-16.5 -82v-86l1 -168h700z" />
    <glyph glyph-name="uniFECF" unicode="&#x63a;" horiz-adv-x="1061" arabic-form="initial" 
d="M583 989h25l1 2l-28 1zM399 1238q0 42 28 70t70 28t70.5 -28t28.5 -70t-28.5 -70t-70.5 -28t-70 28t-28 70zM327 151h-134q-3 -1 -5 -2v2h-207v185h209q1 111 1 170v65q0 79 25 154t74 134t121 95q63 31 144 35h69l1 -1q146 -6 228 -87q88 -89 78 -173q-2 -25 -7 -37
q-7 -17 -19.5 -29.5t-29 -19.5t-36.5 -7t-36.5 7t-29 19.5t-19.5 29.5q-3 8 -7 37q-7 34 -18 46q-18 19 -48 28q-15 4 -34 6h-32l-12 -1l-19 -2h-10q-44 0 -83 -17.5t-68.5 -47t-46 -68.5t-16.5 -82v-86l1 -168l600 -5q-38 -55 -81 -91q-37 -33 -80 -57q-7 -4 -41 -21
l-20 -8l-8 -2l-12 -1q-8 0 -15 1z" />
    <glyph glyph-name="uniFED0" unicode="&#x63a;" horiz-adv-x="1066" arabic-form="medial" 
d="M428 1243q0 42 28 70t70 28t70.5 -28t28.5 -70t-28.5 -70t-70.5 -28t-70 28t-28 70zM583 989h25l1 2l-28 1zM361 336h763v-185h-931q-3 -1 -5 -2v2h-207v185h209q1 111 1 170v65q0 79 25 154t74 134t121 95q63 31 144 35h69l1 -1q146 -6 228 -87q88 -89 78 -173
q-2 -25 -7 -37q-7 -17 -19.5 -29.5t-29 -19.5t-36.5 -7t-36.5 7t-29 19.5t-19.5 29.5q-3 8 -7 37q-7 34 -18 46q-18 19 -48 28q-15 4 -34 6h-32l-12 -1l-19 -2h-10q-44 0 -83 -17.5t-68.5 -47t-46 -68.5t-16.5 -82v-86z" />
    <glyph glyph-name="uniFED1" unicode="&#x641;" horiz-adv-x="1869" arabic-form="isolated" 
d="M1375 1245q0 42 28.5 70.5t69.5 28.5q21 0 39 -7.5t31.5 -21t21 -31.5t7.5 -39t-7.5 -38.5t-21 -31t-31.5 -21t-39 -7.5q-41 0 -69.5 28t-28.5 70zM1424 807l-29 -2q-44 0 -83 -17.5t-68.5 -47t-46 -68.5t-16.5 -82v-86l1 -168h274v-1q50 -1 74 6q30 8 48 27t25.5 50
t7.5 76v154q0 45 -7.5 76t-25.5 50t-48 28q-24 6 -56 8v1zM450 818q34 -16 41 -20q43 -23 80 -55q43 -35 81 -88h-140q-25 0 -47 -1l-46 -4q-32 -2 -56 -8q-30 -9 -48 -28t-25 -50q-8 -30 -8 -73t8 -73q7 -31 25 -50t48 -27q24 -7 74 -6v1h574q1 111 1 170v63q0 80 25 155.5
t74 134.5t121 94.5t167 35.5h74l1 -1q146 -6 228 -87q88 -89 88 -253v-154q0 -164 -88 -252q-81 -81 -226 -91h-1059q-145 10 -226 91q-87 87 -88 249q1 162 88 250q82 81 219 88l12 -1l8 -2z" />
    <glyph glyph-name="uniFED2" unicode="&#x641;" horiz-adv-x="1917" arabic-form="final" 
d="M1358 1245q0 42 28.5 70.5t69.5 28.5q21 0 39 -7.5t31.5 -21t21 -31.5t7.5 -39t-7.5 -38.5t-21 -31t-31.5 -21t-39 -7.5q-41 0 -69.5 28t-28.5 70zM1359 335v1h126q18 2 30 5q30 8 48 27t25.5 50t7.5 76v154q0 45 -7.5 76t-25.5 50t-48 28q-24 6 -56 8v1l-50 -4l-29 -2
q-44 0 -83 -17.5t-68.5 -47t-46 -68.5t-16.5 -82v-86l1 -168zM1748 336h179v-185h-1525q-145 10 -226 91q-87 87 -88 249q1 162 88 250q82 81 219 88l12 -1l8 -2l20 -8q34 -16 41 -20q43 -23 80 -55q43 -35 81 -88h-140q-25 0 -47 -1l-46 -4q-32 -2 -56 -8q-30 -9 -48 -28
t-25 -50q-8 -30 -8 -73t8 -73q7 -31 25 -50t48 -27q24 -7 74 -5h574v11q1 103 1 159v63q0 80 25 155.5t74 134.5t121 94.5t167 35.5h74l1 -1q146 -6 228 -87q88 -89 88 -253v-154q0 -91 -27 -158z" />
    <glyph glyph-name="uniFED3" unicode="&#x641;" horiz-adv-x="1027" arabic-form="initial" 
d="M512 1245q0 42 28 70.5t70 28.5t70.5 -28.5t28.5 -70.5t-28.5 -70t-70.5 -28t-70 28t-28 70zM575 807l-29 -2q-44 0 -83 -17.5t-68.5 -47t-46 -68.5t-16.5 -82v-86l1 -168h274v-1q50 -1 74 6q30 8 48 27t25.5 50t7.5 76v154q0 45 -7.5 76t-25.5 50t-48 28q-24 6 -56 8v1z
M-8 336h170q1 111 1 170v63q0 80 25 155.5t74 134.5t121 94.5t167 35.5h74l1 -1q146 -6 228 -87q88 -89 88 -253v-154q0 -164 -88 -252q-81 -81 -226 -91h-635v185z" />
    <glyph glyph-name="uniFED4" unicode="&#x641;" horiz-adv-x="1066" arabic-form="medial" 
d="M474 1245q0 42 28.5 70.5t69.5 28.5q21 0 39 -7.5t31.5 -21t21 -31.5t7.5 -39t-7.5 -38.5t-21 -31t-31.5 -21t-39 -7.5q-41 0 -69.5 28t-28.5 70zM525 335v1h126q18 2 30 5q30 8 48 27t25.5 50t7.5 76v154q0 45 -7.5 76t-25.5 50t-48 28q-24 6 -56 8v1l-50 -4l-29 -2
q-44 0 -83 -17.5t-68.5 -47t-46 -68.5t-16.5 -82v-86l1 -168zM-14 336h176v11q1 103 1 159v63q0 80 25 155.5t74 134.5t121 94.5t167 35.5h74l1 -1q146 -6 228 -87q88 -89 88 -253v-154q0 -91 -27 -158h179v-185h-1107v185z" />
    <glyph glyph-name="uniFED5" unicode="&#x642;" horiz-adv-x="1834" arabic-form="isolated" 
d="M1147 1245q0 42 28 70.5t70 28.5t70.5 -28.5t28.5 -70.5t-28.5 -70t-70.5 -28t-70 28t-28 70zM1390 807l-29 -2q-44 0 -83 -17.5t-68.5 -47t-46 -68.5t-16.5 -82v-86l1 -168h274v-1q50 -1 74 6q30 8 48 27t25.5 50t7.5 76v154q0 45 -7.5 76t-25.5 50t-48 28q-24 6 -56 8
v1zM416 818q34 -16 41 -20q43 -23 80 -55q43 -35 81 -88h-140q-25 0 -47 -1l-46 -4q-32 -2 -56 -8q-30 -9 -48 -28t-25 -50q-8 -30 -8 -73t8 -73q7 -31 25 -50t48 -27q24 -7 74 -6v1h574q1 111 1 170v63q0 80 25 155.5t74 134.5t121 94.5t167 35.5h74l1 -1q146 -6 228 -87
q88 -89 88 -253v-154q0 -164 -88 -252q-81 -81 -226 -91h-1059q-145 10 -226 91q-87 87 -88 249q1 162 88 250q82 81 219 88l12 -1l8 -2zM1423 1245q0 42 28 70.5t69 28.5q21 0 39 -7.5t31.5 -21t21 -31.5t7.5 -39t-7.5 -38.5t-21 -31t-31.5 -21t-39 -7.5q-41 0 -69 28
t-28 70z" />
    <glyph glyph-name="uniFED6" unicode="&#x642;" horiz-adv-x="1916" arabic-form="final" 
d="M1439 1245q0 42 28 70.5t69 28.5q21 0 39 -7.5t31.5 -21t21 -31.5t7.5 -39t-7.5 -38.5t-21 -31t-31.5 -21t-39 -7.5q-41 0 -69 28t-28 70zM1163 1245q0 42 28 70.5t70 28.5t70 -28.5t28 -70.5t-28 -70t-70 -28t-70 28t-28 70zM1358 335v1h126q18 2 30 5q30 8 48 27
t25.5 50t7.5 76v154q0 45 -7.5 76t-25.5 50t-48 28q-24 6 -56 8v1l-50 -4l-29 -2q-44 0 -83 -17.5t-68.5 -47t-46 -68.5t-16.5 -82v-86l1 -168zM1747 336h199v-185h-1545q-145 10 -226 91q-87 87 -88 249q1 162 88 250q82 81 219 88l12 -1l8 -2l20 -8q34 -16 41 -20
q43 -23 80 -55q43 -35 81 -88h-140q-25 0 -47 -1l-46 -4q-32 -2 -56 -8q-30 -9 -48 -28t-25 -50q-8 -30 -8 -73t8 -73q7 -31 25 -50t48 -27q24 -7 74 -5h574v11q1 103 1 159v63q0 80 25 155.5t74 134.5t121 94.5t167 35.5h74l1 -1q146 -6 228 -87q88 -89 88 -253v-154
q0 -91 -27 -158z" />
    <glyph glyph-name="uniFED7" unicode="&#x642;" horiz-adv-x="1027" arabic-form="initial" 
d="M593 1245q0 42 28.5 70.5t69.5 28.5q21 0 39 -7.5t31.5 -21t21 -31.5t7.5 -39t-7.5 -38.5t-21 -31t-31.5 -21t-39 -7.5q-41 0 -69.5 28t-28.5 70zM318 1245q0 42 28 70.5t69 28.5q21 0 39 -7.5t31.5 -21t21 -31.5t7.5 -39t-7.5 -38.5t-21 -31t-31.5 -21t-39 -7.5
q-41 0 -69 28t-28 70zM575 807l-29 -2q-44 0 -83 -17.5t-68.5 -47t-46 -68.5t-16.5 -82v-86l1 -168h274v-1q50 -1 74 6q30 8 48 27t25.5 50t7.5 76v154q0 45 -7.5 76t-25.5 50t-48 28q-24 6 -56 8v1zM-8 336h170q1 111 1 170v63q0 80 25 155.5t74 134.5t121 94.5t167 35.5
h74l1 -1q146 -6 228 -87q88 -89 88 -253v-154q0 -164 -88 -252q-81 -81 -226 -91h-635v185z" />
    <glyph glyph-name="uniFED8" unicode="&#x642;" horiz-adv-x="1076" arabic-form="medial" 
d="M335 1245q0 42 28 70.5t70 28.5q21 0 39 -7.5t31.5 -21t21 -31.5t7.5 -39t-7.5 -38.5t-21 -31t-31.5 -21t-39 -7.5q-42 0 -70 28t-28 70zM611 1245q0 42 28 70.5t70 28.5t70 -28.5t28 -70.5t-28 -70t-70 -28t-70 28t-28 70zM525 335v1h126q18 2 30 5q30 8 48 27t25.5 50
t7.5 76v154q0 45 -7.5 76t-25.5 50t-48 28q-24 6 -56 8v1l-50 -4l-29 -2q-44 0 -83 -17.5t-68.5 -47t-46 -68.5t-16.5 -82v-86l1 -168zM-14 336h176v11q1 103 1 159v63q0 80 25 155.5t74 134.5t121 94.5t167 35.5h74l1 -1q146 -6 228 -87q88 -89 88 -253v-154
q0 -91 -27 -158h179v-185h-1107v185z" />
    <glyph glyph-name="uniFED9" unicode="&#x643;" horiz-adv-x="1874" arabic-form="isolated" 
d="M1017 1090.5q-27 -13.5 -49.5 -33.5t-37.5 -48h136q112 7 129 5q43 -3 69 -28q28 -28 28 -80t-28 -80q-26 -26 -72 -29h-331l50 59h274q16 0 24 2q9 2 15 8t8 16q3 10 3 24q0 13 -3 23q-2 10 -8 16t-15 9q-8 2 -18 3l-15 1h-3q-128 -6 -170 -6h-86q-12 0 -21 4
t-14.5 10.5t-8.5 14.5t-3 18q0 19 10 39q17 33 44 59t60.5 43.5t70.5 26.5q34 8 75 9h4l3 -1l6 -3q11 -5 13 -6q14 -7 26 -18q14 -11 26 -28h-60q-45 -2 -74.5 -9t-56.5 -20.5zM1775 494q0 -164 -88 -252q-81 -81 -226 -91h-1059q-145 10 -226 91q-87 87 -88 249
q1 162 88 250q82 81 219 88l12 -1l8 -2l20 -8q34 -16 41 -20q43 -23 80 -55q43 -35 81 -88h-140q-25 0 -47 -1l-46 -4q-32 -2 -56 -8q-30 -9 -48 -28t-25 -50q-8 -30 -8 -73t8 -73q7 -31 25 -50t48 -27q24 -7 74 -6v1h1019v-1q50 -1 74 6q30 8 48 27t25.5 50t7.5 76l-1 770
q0 20 7 37t19.5 29.5t29 19.5t36.5 7t36.5 -7t29 -19.5t19.5 -29.5t7 -37z" />
    <glyph glyph-name="uniFEDA" unicode="&#x643;" horiz-adv-x="1359" arabic-form="final" 
d="M393.5 1057q-22.5 -20 -37.5 -48h136q112 7 129 5q43 -3 69 -28q28 -28 28 -80t-28 -80q-26 -26 -72 -29h-331l50 59h274q16 0 24 2q9 2 15 8t8 16q3 10 3 24q0 13 -3 23q-2 10 -8 16t-15 9q-8 2 -18 3l-15 1h-3q-128 -6 -170 -6h-86q-12 0 -21 4t-14.5 10.5t-8.5 14.5
t-3 18q0 19 10 39q17 33 44 59t60.5 43.5t70.5 26.5q34 8 75 9h4l3 -1l6 -3q11 -5 13 -6q14 -7 26 -18q14 -11 26 -28h-60q-45 -2 -74.5 -9t-56.5 -20.5t-49.5 -33.5zM1201 336h183v-185h-1556q-145 10 -226 91q-87 87 -88 249q1 162 88 250q82 81 219 88l12 -1l8 -2l20 -8
q34 -16 41 -20q43 -23 80 -55q43 -35 81 -88h-140q-25 0 -47 -1l-46 -4q-32 -2 -56 -8q-30 -9 -48 -28t-25 -50q-8 -30 -8 -73t8 -73q7 -31 25 -50t48 -27q24 -7 74 -6v1h1019v-1q50 -1 74 6q30 8 48 27t25.5 50t7.5 76l-1 770q0 20 7 37t19.5 29.5t29 19.5t36.5 7t36.5 -7
t29 -19.5t19.5 -29.5t7 -37z" />
    <glyph glyph-name="uniFEDB" unicode="&#x643;" horiz-adv-x="1250" arabic-form="initial" 
d="M360 835q-6 -10 -11 -20h425q349 20 404 14q134 -8 215 -88q87 -88 88 -250q-1 -162 -88 -249q-81 -81 -226 -91h-1190v185h1170v-1q50 -1 74 6q30 8 48 27t25 50q8 30 8 73t-8 73q-7 31 -25 50t-48 28q-24 6 -56 8l-46 4h-9q-402 -19 -533 -18q-133 1 -267 1
q-38 0 -66 12t-46 31.5t-27 45.5t-9 56v4q1 58 31 117q52 106 137.5 186.5t189.5 135t220 82.5q106 25 236 29l12 -1l8 -2l20 -8q34 -16 41 -20q43 -23 80 -55q43 -35 81 -88h-140q-25 0 -47 -1q-141 -7 -232.5 -28t-176 -63.5t-155.5 -105.5q-63 -56 -107 -129z" />
    <glyph glyph-name="uniFEDC" unicode="&#x643;" horiz-adv-x="1594" arabic-form="medial" 
d="M1454 336h178v-185h-1655v185h1213q19 1 31 5q30 8 48 27t25 50q8 30 8 73t-8 73q-7 31 -25 50t-48 28q-24 6 -56 8l-46 4h-9q-402 -19 -533 -18q-133 1 -267 1q-38 0 -66 12t-46 31.5t-27 45.5t-9 56q0 60 31 121q52 106 137.5 186.5t189.5 135t220 82.5q106 25 236 29
l12 -1l8 -2l20 -8q34 -16 41 -20q43 -23 80 -55q43 -35 81 -88h-140q-25 0 -47 -1q-141 -7 -232.5 -28t-176 -63.5t-156 -106t-117.5 -148.5h425q349 20 404 14q134 -8 215 -88q87 -88 88 -250q-1 -89 -27 -155z" />
    <glyph glyph-name="uniFEDD" unicode="&#x644;" horiz-adv-x="1139" arabic-form="isolated" 
d="M1037 961v-763q0 -96 -36 -169.5t-95 -123t-134 -74.5q-39 -14 -78 -20q-38 -6 -76 -6q-199 0 -274.5 25.5t-134 75t-93.5 123.5q-32 65 -36 148h1q-1 16 -1 34q0 69 16 124q22 75 72 126q82 81 219 88l12 -1l8 -2l20 -8q34 -16 41 -20q43 -23 80 -55q43 -35 81 -88h-140
q-25 0 -47 -1l-46 -4q-32 -2 -56 -8q-30 -9 -48 -28t-25 -50q-8 -30 -8 -73q0 -10 1 -19v-5q2 -48 21 -84q20 -40 53 -66.5t76 -38.5q23 -7 82 -10q50 -3 126 -3q45 0 88 12.5t76.5 39t53.5 66.5t20 95l-2 1066q0 20 7 37t19.5 29.5t29 19.5t36.5 7t36.5 -7t29 -19.5
t19.5 -29.5t7 -37z" />
    <glyph glyph-name="uniFEDE" unicode="&#x644;" horiz-adv-x="1106" arabic-form="final" 
d="M1005 336h105v-185h-107q-7 -68 -34 -122q-36 -74 -95 -123.5t-134 -74.5q-39 -14 -78 -20q-38 -6 -76 -6q-199 0 -274.5 25.5t-134 75t-93.5 123.5q-32 65 -36 148h1q-1 16 -1 34q0 69 16 124q22 75 72 126q82 81 219 88l12 -1l8 -2l20 -8q34 -16 41 -20q43 -23 80 -55
q43 -35 81 -88h-140q-25 0 -47 -1l-46 -4q-32 -2 -56 -8q-30 -9 -48 -28t-25 -50q-8 -30 -8 -73q0 -10 1 -19v-5q2 -48 21 -84q20 -40 53 -66.5t76 -38.5q23 -7 82 -10q50 -3 126 -3q45 0 88 12.5t76.5 39t53.5 66.5t20 95l-2 1066q0 20 7 37t19.5 29.5t29 19.5t36.5 7
t36.5 -7t29 -19.5t19.5 -29.5t7 -37l-1 -303v-625z" />
    <glyph glyph-name="uniFEDF" unicode="&#x644;" horiz-adv-x="476" arabic-form="initial" 
d="M192 336v928q0 20 7 37t19.5 29.5t29 19.5t36.5 7t36.5 -7t29 -19.5t19.5 -29.5t7 -37l-5 -1014q1 -4 1 -9q0 -38 -26.5 -64t-63.5 -26h-292v185h202z" />
    <glyph glyph-name="uniFEE0" unicode="&#x644;" horiz-adv-x="561" arabic-form="medial" 
d="M383 336h188v-185h-571v185h204v928q0 20 7 37t19.5 29.5t29 19.5t36.5 7t36.5 -7t29 -19.5t19.5 -29.5t7 -37z" />
    <glyph glyph-name="uniFEE1" unicode="&#x645;" horiz-adv-x="1230" arabic-form="isolated" 
d="M756 805h-10q-44 0 -83 -17.5t-68.5 -47t-46 -68.5t-16.5 -82v-86l1 -168h214v-1q57 1 93 18q39 17 68.5 46.5t46.5 88.5q9 54 6 72h1v88q0 45 -7.5 76t-25.5 50t-48 28q-24 6 -56 8v1l-50 -4zM285 35q-16 -83 -21 -199q-1 -22 -1 -47v-140q-53 38 -88 81q-32 37 -55 80
q-4 7 -20 41l-8 20l-2 8l-1 12q3 91 24 178q15 114 83 182q63 63 165 80l1 5q1 111 1 170v65q0 79 25 154t74 134t121 95q71 35 165 35h76l1 -1q146 -6 228 -87q86 -87 88 -247v-101h-1q-3 -71 -25 -138q-25 -75 -74 -134t-121 -94.5t-167 -35.5h-388q-28 -9 -45 -27
q-18 -19 -25 -50q-5 -17 -10 -39z" />
    <glyph glyph-name="uniFEE2" unicode="&#x645;" horiz-adv-x="1219" arabic-form="final" 
d="M756 805h-10q-44 0 -83 -17.5t-68.5 -47t-46 -68.5t-16.5 -82v-86l1 -168h214v-1q57 1 93 18q39 17 68.5 46.5t46.5 88.5q9 54 6 72h1v88q0 45 -7.5 76t-25.5 50t-48 28q-24 6 -56 8v1l-50 -4zM1079 336h178v-185h-892q-28 -9 -45 -27q-18 -19 -25 -50q-5 -17 -10 -39
q-16 -83 -21 -199q-1 -22 -1 -47v-140q-53 38 -88 81q-32 37 -55 80q-4 7 -20 41l-8 20l-2 8l-1 12q3 91 24 178q15 114 83 182q63 63 165 80l1 5q1 111 1 170v65q0 79 25 154t74 134t121 95q71 35 165 35h76l1 -1q146 -6 228 -87q86 -87 88 -247v-101h-1q-3 -71 -25 -138
q-14 -42 -36 -79z" />
    <glyph glyph-name="uniFEE3" unicode="&#x645;" horiz-adv-x="1014" arabic-form="initial" 
d="M729 648q0 45 -7.5 76t-25.5 50t-48 28q-24 6 -56 8v1l-50 -4l-12 -1l-10 -1h-7q-44 0 -83 -17.5t-68.5 -47t-46 -68.5t-16.5 -82v-86l1 -168h214v-1q57 1 93 18q39 17 68.5 46.5t46.5 88.5q9 54 6 72h1v88zM591 989l1 -1q146 -6 228 -87q88 -89 88 -253v-95h-1
q-3 -71 -25 -138q-25 -75 -74 -134t-121 -94.5t-167 -35.5h-561v185h170q1 111 1 170v65q0 79 25 154t74 134t121 94.5t167 35.5h74z" />
    <glyph glyph-name="uniFEE4" unicode="&#x645;" horiz-adv-x="1009" arabic-form="medial" 
d="M711 648q0 45 -7.5 76t-25.5 50t-48 28q-24 6 -56 8v1l-50 -4l-12 -1l-10 -1h-7q-44 0 -83 -17.5t-68.5 -47t-46 -68.5t-16.5 -82v-86l1 -168h214v-1q57 1 93 18q39 17 68.5 46.5t46.5 88.5q9 54 6 72h1v88zM828 336h234v-185h-1121v185h170q1 111 1 170v65q0 79 25 154
t74 134t121 94.5t167 35.5h74l1 -1q146 -6 228 -87q88 -89 88 -253v-95h-1q-3 -71 -25 -138q-14 -42 -36 -79z" />
    <glyph glyph-name="uniFEE5" unicode="&#x646;" horiz-adv-x="1095" arabic-form="isolated" 
d="M631 1167q0 42 28 70t69 28q21 0 39 -7.5t31.5 -21t21 -31t7.5 -38.5t-7.5 -38.5t-21 -31t-31.5 -21t-39 -7.5q-41 0 -69 28t-28 70zM1038 198q0 -96 -36 -169.5t-95 -123t-134.5 -75t-153.5 -25.5q-199 0 -274.5 25.5t-134 75t-93.5 123.5q-32 65 -36 148h1q-1 16 -1 34
q1 162 88 250q82 81 219 88l12 -1l8 -2l20 -8q34 -16 41 -20q43 -23 80 -55q43 -35 81 -88h-140q-25 0 -47 -1l-46 -4q-32 -2 -56 -8q-30 -9 -48 -28t-25 -50q-8 -30 -8 -73q0 -13 1 -24q2 -48 21 -84q20 -40 53 -66.5t76 -39t208 -12.5q45 0 88 12.5t76.5 39t53.5 66.5
t20 95l-3 666q0 20 7 37t19.5 29.5t29 19.5t36.5 7t36.5 -7t29 -19.5t19.5 -29.5t7 -37v-666z" />
    <glyph glyph-name="uniFEE6" unicode="&#x646;" horiz-adv-x="1061" arabic-form="final" 
d="M365 1167q0 42 28.5 70t69.5 28q21 0 39 -7.5t31.5 -21t21 -31t7.5 -38.5t-7.5 -38.5t-21 -31t-31.5 -21t-39 -7.5q-41 0 -69.5 28t-28.5 70zM925 336h149v-185h-151q-7 -68 -34 -122q-36 -74 -95 -123.5t-134.5 -75t-153.5 -25.5q-199 0 -274.5 25.5t-134 75
t-93.5 123.5q-32 65 -36 148h1q-1 16 -1 34q1 162 88 250q82 81 219 88l12 -1l8 -2l20 -8q34 -16 41 -20q43 -23 80 -55q43 -35 81 -88h-140q-25 0 -47 -1l-46 -4q-32 -2 -56 -8q-30 -9 -48 -28t-25 -50q-8 -30 -8 -73q0 -13 1 -24q2 -48 21 -84q20 -40 53 -66.5t76 -39
t208 -12.5q45 0 88 12.5t76.5 39t53.5 66.5t20 95l-3 666q0 20 7 37t19.5 29.5t29 19.5t36.5 7t36.5 -7t29 -19.5t19.5 -29.5t7 -37v-528z" />
    <glyph glyph-name="uniFEE7" unicode="&#x646;" horiz-adv-x="570" arabic-form="initial" 
d="M73 1248q0 42 28 70.5t70 28.5t70.5 -28.5t28.5 -70.5t-28.5 -70t-70.5 -28t-70 28t-28 70zM105 153v-2h-117v185h142v-1q50 -1 74 6q30 8 48 27t25.5 50t7.5 76l-6 355q-1 7 -1 15q0 20 7 37t19.5 29.5t29 19.5t36.5 7t36.5 -7t29 -19.5t19.5 -29.5t7 -37v-9h2v-378
q-5 -152 -88 -235q-73 -73 -198 -88z" />
    <glyph glyph-name="uniFEE8" unicode="&#x646;" horiz-adv-x="563" arabic-form="medial" 
d="M4 1248q0 42 28 70.5t69 28.5q21 0 39 -7.5t31.5 -21t21 -31.5t7.5 -39t-7.5 -38.5t-21 -31t-31.5 -21t-39 -7.5q-41 0 -69 28t-28 70zM384 336h207v-185h-614v185h228l-4 528q0 20 7 37t19.5 29.5t29 19.5t36.5 7t36.5 -7t29 -19.5t19.5 -29.5t7 -37z" />
    <glyph glyph-name="uniFEE9" unicode="&#x647;" horiz-adv-x="962" arabic-form="isolated" 
d="M465 805l-19 2l-50 4v-1q-32 -2 -56 -8q-30 -9 -48 -28t-25.5 -50t-7.5 -76v-88h1q-3 -18 6 -72q17 -59 46.5 -88.5t68.5 -46.5q36 -17 93 -18v1h214l1 168v86q0 43 -16.5 82t-46 68.5t-68.5 47t-83 17.5h-10zM860 331l1 -182q-2 1 -5 2h-388q-95 0 -167 35.5t-121 94.5
t-74 134q-22 67 -25 138h-1v101q2 160 88 247q82 81 228 87l1 1h76q94 0 165 -35q72 -36 121 -95t74 -134t25 -154v-65q0 -59 1 -170z" />
    <glyph glyph-name="uniFEEA" unicode="&#x647;" horiz-adv-x="1022" arabic-form="final" 
d="M465 805l-19 2l-50 4v-1q-32 -2 -56 -8q-30 -9 -48 -28t-25.5 -50t-7.5 -76v-88h1q-3 -18 6 -72q17 -59 46.5 -88.5t68.5 -46.5q36 -17 93 -18v1h214l1 168v86q0 43 -16.5 82t-46 68.5t-68.5 47t-83 17.5h-10zM859 336h170v-185h-168v-2q-2 1 -5 2h-388q-95 0 -167 35.5
t-121 94.5t-74 134q-22 67 -25 138h-1v101q2 160 88 247q82 81 228 87l1 1h76q94 0 165 -35q72 -36 121 -95t74 -134t25 -154v-65q0 -59 1 -170z" />
    <glyph glyph-name="uniFEEB" unicode="&#x647;" horiz-adv-x="1353" arabic-form="initial" 
d="M1039 528v62q0 43 -16.5 82t-46 68.5t-68.5 47t-83 17.5h-10l-19 2l-50 4v-1q-32 -2 -56 -8q-30 -9 -48 -28t-25.5 -50t-7.5 -76v-88h1q-3 -18 6 -72q17 -59 46.5 -88.5t68.5 -46.5q36 -17 207 -17q5 1 9 2q30 9 48 28t26 50q7 30 18 112zM146 336q-25 65 -26 150v11h1
q3 71 25 138q25 75 74 134t121 94.5t167 35.5h6v-2l4 4q82 81 228 87l1 1h76q94 0 165 -35q72 -36 121 -95t74 -134t25 -154v-78q-4 -168 -89 -254q-68 -68 -181 -83l-102 -5h-890v185h200zM389 336h103q-22 37 -36 79q-22 67 -25 138h-1v101q0 25 3 48q-6 -2 -12 -5
q-39 -17 -68.5 -46.5t-46.5 -88.5q-9 -54 -6 -72h-1q0 -30 3 -53q2 -11 5 -21q7 -31 25 -50t48 -28q4 -1 9 -2z" />
    <glyph glyph-name="uniFEEC" unicode="&#x647;" horiz-adv-x="1392" arabic-form="medial" 
d="M1069 528v62q0 43 -16.5 82t-46 68.5t-68.5 47t-83 17.5h-10l-19 2l-50 4v-1q-32 -2 -56 -8q-30 -9 -48 -28t-25.5 -50t-7.5 -76v-88h1q-3 -18 6 -72q17 -59 46.5 -88.5t68.5 -46.5q36 -17 207 -17q5 1 9 2q30 9 48 28t26 50q7 30 18 112zM176 336q-25 65 -26 150v11h1
q3 71 25 138q25 75 74 134t121 94.5t167 35.5h6v-2l4 4q82 81 228 87l1 1h76q94 0 165 -35q72 -36 121 -95t74 -134t25 -154v-78q-2 -90 -28 -157h225v-185h-1479v185h220zM419 336h103q-22 37 -36 79q-22 67 -25 138h-1v101q0 25 3 48q-6 -2 -12 -5q-39 -17 -68.5 -46.5
t-46.5 -88.5q-9 -54 -6 -72h-1q0 -30 3 -53q2 -11 5 -21q7 -31 25 -50t48 -28q4 -1 9 -2z" />
    <glyph glyph-name="uniFEED" unicode="&#x648;" horiz-adv-x="962" arabic-form="isolated" 
d="M680 336l8 4l1 164v86q0 43 -16.5 82t-46 68.5t-68.5 47t-83 17.5h-10l-19 2l-50 4v-1q-32 -2 -56 -8q-30 -9 -48 -28t-25.5 -50t-7.5 -76v-88h1q-3 -18 6 -72q17 -59 46.5 -88.5t68.5 -46.5q36 -17 93 -18v1h206zM858 238l-1 -31q-7 -56 -18 -90q-22 -62 -51 -116
q-26 -51 -57 -93.5t-68 -78.5q-33 -31 -70 -56t-77 -45q-48 -22 -98 -35l-17 -6q-6 -2 -12 -3q-16 -4 -32 -5l-12 1l-8 2l-20 8q-34 16 -41 20q-43 23 -80 55q-43 35 -81 88h116q109 0 194 41q68 32 132 96q54 56 89 161h-178q-95 0 -167 35.5t-121 94.5t-74 134
q-22 67 -25 138h-1v101q2 160 88 247q82 81 228 87l1 1h76q94 0 165 -35q72 -36 121 -95t74 -134t25 -154v-65q0 -59 1 -170l1 -5z" />
    <glyph glyph-name="uniFEEE" unicode="&#x648;" horiz-adv-x="1032" arabic-form="final" 
d="M700 336l8 4l1 164v86q0 43 -16.5 82t-46 68.5t-68.5 47t-83 17.5h-10l-19 2l-50 4v-1q-32 -2 -56 -8q-30 -9 -48 -28t-25.5 -50t-7.5 -76v-88h1q-3 -18 6 -72q17 -59 46.5 -88.5t68.5 -46.5q36 -17 93 -18v1h206zM879 336h175v-185h-186q-4 -19 -9 -34q-22 -62 -51 -116
q-26 -51 -57 -93.5t-68 -78.5q-33 -31 -70 -56t-77 -45q-48 -22 -98 -35l-17 -6q-6 -2 -12 -3q-16 -4 -32 -5l-12 1l-8 2l-20 8q-34 16 -41 20q-43 23 -80 55q-43 35 -81 88h116q109 0 194 41q68 32 132 96q54 56 89 161h-178q-95 0 -167 35.5t-121 94.5t-74 134
q-22 67 -25 138h-1v101q2 160 88 247q82 81 228 87l1 1h76q94 0 165 -35q72 -36 121 -95t74 -134t25 -154v-65q0 -59 1 -170z" />
    <glyph glyph-name="uniFEEF" unicode="&#x649;" horiz-adv-x="1814" arabic-form="isolated" 
d="M254 583h1q-3 -18 6 -72q17 -59 46.5 -88.5t68.5 -46.5q36 -17 93 -18v1h506v318q2 160 88 247q82 81 228 87l1 1h76q94 0 165 -35q72 -36 121 -95t74 -134q17 -51 23 -94v-6q1 -6 -1 -72q-1 -26 -7.5 -41.5t-17.5 -27t-26.5 -18t-33.5 -6.5t-33 6.5t-26.5 18t-18 27
t-6.5 33.5q0 7 1 14l1 56q-4 29 -15 57q-17 39 -46.5 68.5t-68.5 47.5q-33 14 -162 23v-1q-32 -2 -56 -8q-30 -9 -48 -28t-25.5 -50t-7.5 -76v-497l-1 1v-1h-690q-95 0 -167 35.5t-121 94.5t-74 134q-22 67 -25 138h-1v101q0 16 2 31q9 139 87 218q82 81 219 88l12 -1l8 -2
l20 -8q34 -16 41 -20q43 -23 80 -55q43 -35 81 -88h-140q-25 0 -47 -1l-46 -4q-32 -2 -56 -8q-30 -9 -48 -28t-25 -50q-7 -25 -9 -166z" />
    <glyph glyph-name="uniFEF0" unicode="&#x649;" horiz-adv-x="2042" arabic-form="final" 
d="M1901 555v-219h157v-185h-246q-38 0 -64 26t-26 64q0 293 -3 454q-15 39 -44.5 68.5t-68.5 47.5q-33 14 -162 23v-1q-32 -2 -56 -8q-30 -9 -48 -28t-25.5 -50t-7.5 -76v-497l-1 1v-1h-790q-95 0 -167 35.5t-121 94.5t-74 134q-22 67 -25 138h-1v101q0 16 2 31
q9 139 87 218q82 81 219 88l12 -1l8 -2l20 -8q34 -16 41 -20q43 -23 80 -55q43 -35 81 -88h-140q-25 0 -47 -1l-46 -4q-32 -2 -56 -8q-30 -9 -48 -28t-25 -50q-7 -25 -9 -166h1q-3 -18 6 -72q17 -59 46.5 -88.5t68.5 -46.5q36 -17 93 -18v1h606v318q2 160 88 247
q82 81 228 87l1 1h76q94 0 165 -35q72 -36 121 -95t74 -134q17 -51 23 -94v-6q1 -6 -1 -72q0 -12 -2 -21z" />
    <glyph glyph-name="uniFEF1" unicode="&#x64a;" horiz-adv-x="1870" arabic-form="isolated" 
d="M310 583h1q-3 -18 6 -72q17 -59 46.5 -88.5t68.5 -46.5q36 -17 93 -18v1h506v318q2 160 88 247q82 81 228 87l1 1h76q94 0 165 -35q72 -36 121 -95t74 -134q17 -51 23 -94v-6q1 -6 -1 -72q-1 -26 -7.5 -41.5t-17.5 -27t-26.5 -18t-33.5 -6.5t-33 6.5t-26.5 18t-18 27
t-6.5 33.5q0 7 1 14l1 56q-4 29 -15 57q-17 39 -46.5 68.5t-68.5 47.5q-33 14 -162 23v-1q-32 -2 -56 -8q-30 -9 -48 -28t-25.5 -50t-7.5 -76v-497l-1 1v-1h-690q-95 0 -167 35.5t-121 94.5t-74 134q-22 67 -25 138h-1v101q0 16 2 31q9 139 87 218q82 81 219 88l12 -1l8 -2
l20 -8q34 -16 41 -20q43 -23 80 -55q43 -35 81 -88h-140q-25 0 -47 -1l-46 -4q-32 -2 -56 -8q-30 -9 -48 -28t-25 -50q-7 -25 -9 -166zM535 -130q0 21 7.5 39t21 31.5t31 21t38.5 7.5t39 -7.5t31.5 -21t21 -31.5t7.5 -39q0 -41 -28.5 -69t-70.5 -28t-70 28t-28 69zM811 -130
q0 21 7.5 39t21 31.5t31 21t38.5 7.5t38.5 -7.5t31 -21t21 -31.5t7.5 -39q0 -41 -28 -69t-70 -28t-70 28t-28 69z" />
    <glyph glyph-name="uniFEF2" unicode="&#x64a;" horiz-adv-x="1998" arabic-form="final" 
d="M618 -130q0 21 7.5 39t21 31.5t31 21t38.5 7.5t39 -7.5t31.5 -21t21 -31.5t7.5 -39q0 -41 -28.5 -69t-70.5 -28t-70 28t-28 69zM894 -130q0 21 7.5 39t21 31.5t31 21t38.5 7.5t38.5 -7.5t31 -21t21 -31.5t7.5 -39q0 -41 -28 -69t-70 -28t-70 28t-28 69zM1857 555v-219
h157v-185h-246q-38 0 -64 26t-26 64q0 293 -3 454q-15 39 -44.5 68.5t-68.5 47.5q-33 14 -162 23v-1q-32 -2 -56 -8q-30 -9 -48 -28t-25.5 -50t-7.5 -76v-497l-1 1v-1h-790q-95 0 -167 35.5t-121 94.5t-74 134q-22 67 -25 138h-1v101q0 16 2 31q9 139 87 218q82 81 219 88
l12 -1l8 -2l20 -8q34 -16 41 -20q43 -23 80 -55q43 -35 81 -88h-140q-25 0 -47 -1l-46 -4q-32 -2 -56 -8q-30 -9 -48 -28t-25 -50q-7 -25 -9 -166h1q-3 -18 6 -72q17 -59 46.5 -88.5t68.5 -46.5q36 -17 93 -18v1h606v318q2 160 88 247q82 81 228 87l1 1h76q94 0 165 -35
q72 -36 121 -95t74 -134q17 -51 23 -94v-6q1 -6 -1 -72q0 -12 -2 -21z" />
    <glyph glyph-name="uniFEF3" unicode="&#x64a;" horiz-adv-x="619" arabic-form="initial" 
d="M-10 -150q0 42 28 70.5t70 28.5t70.5 -28.5t28.5 -70.5t-28.5 -70t-70.5 -28t-70 28t-28 70zM266 -150q0 42 28 70.5t70 28.5t70 -28.5t28 -70.5t-28 -70t-70 -28t-70 28t-28 70zM105 153v-2h-117v185h142v-1q50 -1 74 6q30 8 48 27t25.5 50t7.5 76l-6 355q-1 7 -1 15
q0 20 7 37t19.5 29.5t29 19.5t36.5 7t36.5 -7t29 -19.5t19.5 -29.5t7 -37v-9h2v-378q-5 -152 -88 -235q-73 -73 -198 -88z" />
    <glyph glyph-name="uniFEF4" unicode="&#x64a;" horiz-adv-x="580" arabic-form="medial" 
d="M52 -150q0 42 28.5 70.5t69.5 28.5q21 0 39 -7.5t31.5 -21t21 -31.5t7.5 -39t-7.5 -38.5t-21 -31t-31.5 -21t-39 -7.5q-41 0 -69.5 28t-28.5 70zM328 -150q0 42 28 70.5t70 28.5t70.5 -28.5t28.5 -70.5t-28.5 -70t-70.5 -28t-70 28t-28 70zM384 336h217v-185h-624v185
h228l-4 528q0 20 7 37t19.5 29.5t29 19.5t36.5 7t36.5 -7t29 -19.5t19.5 -29.5t7 -37z" />
    <glyph glyph-name="space" unicode=" " horiz-adv-x="435" 
 />
    <glyph glyph-name="exclam" unicode="!" horiz-adv-x="585" 
d="M174 1291q2 18 15.5 30.5t33.5 12.5h135q18 0 32 -13t17 -30l-49 -675q0 -20 -14 -35t-35 -15h-38q-20 0 -34 15t-14 35zM408 259q0 -24 -9.5 -45t-25 -37t-37 -25.5t-45.5 -9.5t-44.5 9.5t-36.5 25.5t-25 37t-9 45t9 45.5t25 37t36.5 25t44.5 9.5t45.5 -9.5t37 -25
t25 -37t9.5 -45.5z" />
    <glyph glyph-name="quotedbl" unicode="&#x22;" horiz-adv-x="622" 
d="M496 1540q1 -60 3 -114t3.5 -106.5t3 -106t3.5 -113.5q-2 -20 -23 -32t-48 -17q-11 56 -20.5 106.5t-19.5 100t-19.5 100.5t-20.5 107q0 31 23 53t56 22h59zM245 1540q2 -60 3.5 -114t3 -106.5t3 -106t3.5 -113.5q0 -20 -21.5 -32t-48.5 -17q-11 56 -21 106.5t-19.5 100
t-19.5 100.5t-21 107q1 31 24 53t55 22h59z" />
    <glyph glyph-name="numbersign" unicode="#" horiz-adv-x="1370" 
d="M804 1418l-141 -395h223l142 395h143l-139 -395h262l-45 -127h-263l-81 -227h280l-44 -128h-281l-141 -394h-143l140 394h-224l-141 -394h-144l138 394h-268l46 128h269l80 227h-287l45 127h289l140 395h145zM843 896h-226l-81 -229h227z" />
    <glyph glyph-name="dollar" unicode="$" horiz-adv-x="1020" 
d="M464 -44v169q-409 30 -409 412v21h162v-15q0 -124 64.5 -195t182.5 -78v479q-382 64 -382 358q0 79 27 144t76.5 112t120 74.5t158.5 32.5v129h95v-129q184 -15 280.5 -104.5t98.5 -245.5h-164q-22 192 -215 204v-426q228 -49 321 -136q92 -86 92 -246
q0 -167 -106 -267.5t-307 -121.5v-171h-95zM559 263q117 11 179 71t62 162q0 90 -56.5 144.5t-184.5 84.5v-462zM464 913v412q-50 0 -90.5 -14.5t-69 -41t-44 -64.5t-15.5 -85q0 -88 52.5 -138.5t166.5 -68.5z" />
    <glyph glyph-name="percent" unicode="%" horiz-adv-x="829" 
d="M679 1413q-54 -182 -105 -351t-101 -336t-101 -336t-106 -350q-43 -23 -83.5 -45t-82.5 -44q54 181 105 350.5t101.5 337t101.5 336.5t105 350zM133 1258q22 0 42 -8.5t35 -23t23.5 -34.5t8.5 -43t-8.5 -43t-23.5 -35t-35 -23.5t-42 -8.5t-42 8.5t-35 23.5t-24 35t-9 43
t9 43t24 34.5t35 23t42 8.5zM654 302q22 0 42 -8.5t35 -23.5t24 -35t9 -42q0 -23 -9 -42.5t-24 -34.5t-35 -23.5t-42 -8.5q-23 0 -42.5 8.5t-34.5 23.5t-23.5 34.5t-8.5 42.5q0 22 8.5 42t23.5 35t34.5 23.5t42.5 8.5z" />
    <glyph glyph-name="ampersand" unicode="&#x26;" horiz-adv-x="1294" 
d="M418 945q-79 85 -116 160.5t-37 153.5q0 67 24.5 124t68.5 97.5t104 63.5t132 23q75 0 136 -20.5t104 -59t66 -92.5t23 -120q0 -110 -62 -198t-195 -167l257 -314q24 45 37.5 100.5t19.5 128.5h161q0 -103 -26.5 -192t-78.5 -170l258 -310h-230l-135 166
q-167 -199 -423 -199q-90 0 -165.5 29.5t-130 82.5t-85 126t-30.5 160q0 130 75 231q74 99 248 196zM510 832q-64 -37 -109.5 -72.5t-74 -71.5t-41.5 -75t-13 -84q0 -54 19.5 -100t53.5 -79t81 -51.5t103 -18.5q84 0 160.5 40.5t145.5 119.5zM575 1006q99 61 145 124.5
t46 136.5q0 36 -11.5 66t-33 51.5t-52 33.5t-67.5 12q-82 0 -128 -43.5t-46 -121.5q0 -57 34.5 -119t112.5 -140z" />
    <glyph glyph-name="quotesingle" unicode="'" horiz-adv-x="385" 
d="M245 1540q2 -60 3.5 -114t3 -106.5t3 -106t3.5 -113.5q0 -20 -21.5 -32t-48.5 -17q-11 56 -21 106.5t-19.5 100t-19.5 100.5t-21 107q1 31 24 53t55 22h59z" />
    <glyph glyph-name="parenleft" unicode="(" horiz-adv-x="533" 
d="M467 1589q-87 -183 -130 -386.5t-43 -413.5q0 -209 42.5 -411t130.5 -384h-100q-140 206 -208.5 401.5t-68.5 388.5q0 198 70 396t208 409h99z" />
    <glyph glyph-name="parenright" unicode=")" horiz-adv-x="533" 
d="M179 1589q138 -211 208 -409t70 -396q0 -193 -69 -388.5t-208 -401.5h-100q87 182 130 384t43 411q0 210 -43 413.5t-130 386.5h99z" />
    <glyph glyph-name="asterisk" unicode="*" 
d="M444 976l-152 -219l-121 81l171 213l-247 68l44 138l239 -82v257h134v-257l236 82l48 -138l-251 -68l173 -211l-119 -88z" />
    <glyph glyph-name="plus" unicode="+" horiz-adv-x="1484" 
d="M804 1212v-470h459v-121h-459v-471h-124v471h-459v121h459v470h124z" />
    <glyph glyph-name="comma" unicode="," horiz-adv-x="488" 
d="M155 150v192h178v-208q0 -99 -46.5 -163t-131.5 -85v89q42 9 65 47t23 101v27h-88z" />
    <glyph glyph-name="hyphen" unicode="-" horiz-adv-x="884" 
d="M119 477l57 197h590l-57 -197h-590z" />
    <glyph glyph-name="period" unicode="." horiz-adv-x="497" 
d="M254 342q22 0 42 -8.5t35 -23t24 -34.5t9 -43t-9 -42.5t-24 -34.5t-35 -23.5t-42 -8.5q-23 0 -42.5 8.5t-34.5 23.5t-23.5 34.5t-8.5 42.5t8.5 43t23.5 34.5t34.5 23t42.5 8.5z" />
    <glyph glyph-name="slash" unicode="/" horiz-adv-x="658" 
d="M619 1413q-54 -182 -105.5 -351t-102 -336t-101.5 -336t-106 -350q-43 -23 -83.5 -45t-82.5 -44q55 181 106 350.5t101.5 337t102 336.5t105.5 350z" />
    <glyph glyph-name="zero" unicode="0" horiz-adv-x="1019" 
d="M66 717q0 150 31 271t88.5 206.5t139.5 131.5t184 46t183.5 -45.5t139.5 -130.5t89 -206.5t31 -272.5q0 -148 -30.5 -269t-88 -207t-139.5 -133t-185 -47t-185 46.5t-139.5 132t-88 207t-30.5 270.5zM314 717q0 -242 48.5 -356t146.5 -114t147 115.5t49 354.5
q0 238 -49 355t-147 117t-146.5 -115t-48.5 -357z" />
    <glyph glyph-name="one" unicode="1" horiz-adv-x="1019" 
d="M478 85v1031l-240 -166l-68 162l286 239h257v-1266h-235z" />
    <glyph glyph-name="two" unicode="2" horiz-adv-x="1019" 
d="M927 85h-827l10 189q43 47 98.5 100t113.5 109.5t114 116.5t99.5 120.5t70 121t26.5 118.5q0 54 -17.5 94t-48 66t-71 38.5t-85.5 12.5q-60 0 -123.5 -21t-118.5 -62l-75 169q94 61 188 89t197 28q92 0 167.5 -31.5t129 -84.5t83 -123t29.5 -147q0 -70 -25 -138
q-30 -81 -87.5 -159t-127.5 -149.5t-143 -134.5t-134 -114h557v-208z" />
    <glyph glyph-name="three" unicode="3" horiz-adv-x="1019" 
d="M435 61q-107 0 -187.5 18t-144.5 56l48 150q59 -29 113 -40t111 -11q67 0 118 15t85.5 40.5t51.5 59t17 69.5q0 41 -23 81.5t-68.5 73.5t-115 54t-162.5 23l-8 154q48 6 107.5 22.5t111.5 45t87.5 69.5t35.5 97q0 45 -18.5 77t-49 52.5t-71 30t-83.5 9.5q-48 0 -95 -10.5
t-87 -30.5l-60 151q51 26 127.5 41t160.5 15q45 0 88.5 -5t83 -15.5t73.5 -27t58 -39.5q52 -51 77 -106.5t25 -112.5q0 -90 -61 -170.5t-182 -134.5q279 -110 279 -344q0 -81 -30.5 -146.5t-87.5 -112.5t-139 -72.5t-185 -25.5z" />
    <glyph glyph-name="four" unicode="4" horiz-adv-x="1019" 
d="M587 85v296h-547v214q157 195 310 386t310 386h148v-771h126v-215h-126v-296h-221zM588 596v439l-357 -439h357z" />
    <glyph glyph-name="five" unicode="5" horiz-adv-x="1019" 
d="M197 260q41 -14 81.5 -20t82.5 -6q90 0 151.5 20t99.5 53.5t55 76.5t17 88q0 84 -40 129.5t-108 66.5t-157 24t-187 3l-2 656h652v-198h-453v-249q127 0 225.5 -28.5t166 -83.5t102.5 -135.5t35 -184.5q-2 -101 -43 -178t-109.5 -128.5t-157 -78t-184.5 -26.5
q-81 0 -148.5 10t-124.5 31z" />
    <glyph glyph-name="six" unicode="6" horiz-adv-x="1019" 
d="M95 520q0 114 37 232t105 229t163.5 209.5t213.5 173.5q7 -8 11 -13.5t8 -10.5t8 -10.5t10 -12.5v1q18 -23 35 -45.5t36 -45.5q-240 -157 -328 -364q66 27 140 27q73 0 144 -26.5t127.5 -78t91.5 -127.5t35 -175q0 -92 -31 -169.5t-86.5 -133t-132 -86.5t-168.5 -31
q-101 0 -179.5 33.5t-131.5 94.5t-80.5 144.5t-27.5 184.5zM539 265q46 0 82 19t60.5 47.5t37.5 62.5t13 65q0 51 -23.5 93t-61 72t-84.5 46.5t-93 16.5q-38 0 -75 -11t-69 -34q-13 -49 -13 -102q0 -54 15 -104t43.5 -88t71 -60.5t96.5 -22.5z" />
    <glyph glyph-name="seven" unicode="7" horiz-adv-x="1019" 
d="M255 131l388 1027h-552v193h795v-193l-429 -1104z" />
    <glyph glyph-name="eight" unicode="8" horiz-adv-x="1019" 
d="M509 1372q84 0 152 -30.5t116.5 -79.5t75 -111.5t26.5 -126.5q0 -39 -11 -77.5t-33.5 -73.5t-57.5 -65t-84 -52q125 -55 187.5 -138.5t62.5 -189.5q0 -83 -30.5 -150t-86.5 -118v1q-59 -48 -138 -74t-179 -26q-101 0 -180.5 26t-138.5 74v-1q-55 51 -85 119t-30 149
q0 53 16 100.5t45.5 88t69.5 72.5t88 53q-89 53 -131 131t-42 160q0 65 25.5 126t74.5 108.5t121.5 76t166.5 28.5zM502 628q-49 0 -86 -17.5t-61.5 -45.5t-37 -64t-12.5 -73t12 -71t36 -60t60.5 -41.5t84.5 -15.5q47 0 85.5 10t65.5 33.5t41.5 62.5t14.5 96q0 8 -2.5 25
t-10 38t-21.5 42.5t-36.5 39.5t-55 29.5t-77.5 11.5zM328 1020q0 -34 19 -67t47 -59t59 -42t54 -16q10 0 14 2q24 9 50.5 24.5t48.5 38t36.5 51t14.5 63.5q0 39 -16 69.5t-41.5 51.5t-57.5 32t-65 11q-32 0 -61 -10t-52 -29.5t-36.5 -49.5t-13.5 -70z" />
    <glyph glyph-name="nine" unicode="9" horiz-adv-x="1019" 
d="M932 908q0 -114 -37 -232t-105 -229.5t-164 -210t-214 -172.5q-13 16 -18.5 24t-17.5 23v-1q-19 23 -35.5 45t-36.5 45q121 79 202.5 170t125.5 194q-66 -27 -139 -27t-144 26.5t-127.5 78t-91.5 127.5t-35 175q0 93 31 170t86 133t131.5 87t168.5 31q102 0 180 -33.5
t131.5 -94.5t81 -145t27.5 -184zM487 1163q-46 0 -82 -19t-60.5 -47.5t-37.5 -62.5t-13 -65q0 -51 23.5 -93t61 -72t84 -46.5t93.5 -16.5q38 0 75 11t69 34q13 49 13 102q0 54 -15 104t-43.5 88t-71 60.5t-96.5 22.5z" />
    <glyph glyph-name="colon" unicode=":" horiz-adv-x="505" 
d="M250 438q22 0 42 -8.5t35 -23t24 -34.5t9 -43t-9 -42.5t-24 -34.5t-35 -23.5t-42 -8.5q-23 0 -42.5 8.5t-34.5 23.5t-23.5 34.5t-8.5 42.5t8.5 43t23.5 34.5t34.5 23t42.5 8.5zM250 917q22 0 42 -8.5t35 -23t24 -34.5t9 -43t-9 -42.5t-24 -34.5t-35 -23.5t-42 -8.5
q-23 0 -42.5 8.5t-34.5 23.5t-23.5 34.5t-8.5 42.5t8.5 43t23.5 34.5t34.5 23t42.5 8.5z" />
    <glyph glyph-name="semicolon" unicode=";" horiz-adv-x="529" 
d="M175 150v192h180v-208q0 -97 -46.5 -161.5t-133.5 -86.5v89q42 9 65.5 48t23.5 100v27h-89zM175 889v193h180v-193h-180z" />
    <glyph glyph-name="less" unicode="&#x3c;" horiz-adv-x="1484" 
d="M1255 1025l-843 -344l843 -342v-134l-1025 421v112l1025 420v-133z" />
    <glyph glyph-name="equal" unicode="=" horiz-adv-x="1484" 
d="M1263 915v-122h-1042v122h1042zM1263 568v-120h-1042v120h1042z" />
    <glyph glyph-name="greater" unicode="&#x3e;" horiz-adv-x="1484" 
d="M1255 738v-112l-1025 -421v134l844 342l-844 344v133z" />
    <glyph glyph-name="question" unicode="?" horiz-adv-x="959" 
d="M382 519q0 7 -1 20.5t-1 19.5q0 51 8 96.5t26 86.5t46.5 80t68.5 78l72 73q56 57 81.5 109.5t24.5 119.5q0 47 -16.5 85.5t-45.5 66t-70 42.5t-90 15q-125 0 -187 -75t-68 -228h-166v25q0 102 29 181.5t83.5 134.5t134 83.5t181.5 28.5q89 0 162 -26t124.5 -73t80 -113
t28.5 -147q0 -90 -34 -165.5t-106 -141.5l-78 -75q-38 -36 -61.5 -65.5t-36.5 -58t-18 -59.5t-5 -70q0 -19 0.5 -29t1.5 -18zM377 150v204h186v-204h-186z" />
    <glyph glyph-name="at" unicode="@" horiz-adv-x="1782" 
d="M1117 893l50 100h115l-128 -501q-4 -14 -5 -27t-1 -24q0 -82 87 -82q42 0 89 23t92 66q70 66 109 161.5t39 203.5q0 112 -43.5 205t-123 159.5t-190 103.5t-243.5 37q-117 0 -214 -24t-184 -75q-167 -99 -258 -261q-91 -160 -91 -356q0 -154 54 -268t167 -200
q88 -67 206 -103t250 -36q148 0 286 42t255 123l47 -71q-129 -97 -273 -145.5t-304 -48.5q-189 0 -339.5 54t-256 149.5t-161.5 225t-56 280.5q0 145 45 272.5t132 233.5q128 156 305 235.5t397 79.5q163 0 296 -48t227.5 -130t145.5 -190t51 -228q0 -115 -36 -219.5
t-100.5 -184t-154.5 -126.5t-199 -47q-174 0 -174 136v17q-48 -78 -112.5 -114.5t-149.5 -36.5q-134 0 -203.5 73t-69.5 215q0 102 32 189.5t88 152.5t132 102t163 37q73 0 126 -32t84 -98zM1035 563l52 206q-15 76 -59.5 118t-113.5 42q-60 0 -111.5 -30.5t-89.5 -83.5
t-60 -124.5t-22 -152.5q0 -91 42 -141t120 -50q42 0 81 16.5t71 45.5t55.5 68.5t34.5 85.5z" />
    <glyph glyph-name="A" unicode="A" horiz-adv-x="1188" 
d="M517 1449h190l467 -1297h-196l-130 386h-499l-140 -386h-192zM606 1255l-200 -569h388z" />
    <glyph glyph-name="B" unicode="B" horiz-adv-x="1188" 
d="M132 1448h563q82 0 149 -23.5t114 -66t72.5 -103t25.5 -134.5q0 -95 -44 -163t-126 -109q65 -26 109.5 -57t71.5 -69.5t38.5 -85t11.5 -103.5q0 -87 -31.5 -157.5t-88.5 -121t-137.5 -78t-177.5 -27.5h-550v1298zM304 301h369q135 0 203 62t68 174q0 110 -75 164.5
t-224 54.5h-341v-455zM304 899h313q139 0 203 50t64 160q0 94 -62.5 141.5t-202.5 47.5h-315v-399z" />
    <glyph glyph-name="C" unicode="C" horiz-adv-x="1286" 
d="M1212 1044h-184q-9 36 -16.5 61t-17.5 44t-23.5 35.5t-33.5 36.5q-96 90 -264 90q-98 0 -175.5 -34.5t-131.5 -100.5t-82.5 -162t-28.5 -218q0 -116 27 -209.5t79 -159t127 -101t170 -35.5q152 0 248.5 88.5t121.5 253.5h184q-26 -173 -111 -291q-158 -215 -438 -215
q-139 0 -249.5 46t-188 131.5t-118.5 207.5t-41 274q0 364 205 544q45 39 90.5 66.5t91.5 45.5q90 34 215 34q115 0 211.5 -30t167 -86t113.5 -136t52 -180z" />
    <glyph glyph-name="D" unicode="D" horiz-adv-x="1286" 
d="M157 1449h438q164 0 247 -18t156 -73q226 -171 226 -543q0 -221 -84 -387t-229 -232q-27 -12 -57 -20t-66 -13.5t-79.5 -8t-97.5 -2.5h-454v1297zM337 1287v-972h262q182 0 265 58q173 119 173 445q0 163 -54.5 275t-157.5 160q-69 34 -232 34h-256z" />
    <glyph glyph-name="E" unicode="E" horiz-adv-x="1188" 
d="M157 1449h935v-162h-755v-382h698v-163h-698v-427h764v-163h-944v1297z" />
    <glyph glyph-name="F" unicode="F" horiz-adv-x="1188" 
d="M157 1449h935v-162h-755v-382h698v-163h-698v-590h-180v1297z" />
    <glyph glyph-name="G" unicode="G" horiz-adv-x="1386" 
d="M1219 1048h-184q-10 35 -19 59.5t-19.5 44t-23.5 36.5t-31 35q-89 88 -262 88q-102 0 -181 -35t-134 -101t-83.5 -161.5t-28.5 -217.5q0 -117 29 -210.5t83.5 -159t133.5 -100.5t180 -35q66 0 125.5 17.5t108 50.5t84.5 81t56 110q18 55 18 152h-405v148h567v-690h-114
l-43 158q-88 -102 -185 -147q-96 -44 -226 -44q-137 0 -247.5 47.5t-188.5 134.5t-120.5 209.5t-42.5 272.5q0 157 43.5 283.5t124.5 215.5t195 137.5t255 48.5q270 0 410 -158q26 -30 45.5 -58.5t32.5 -57.5t25 -67.5t22 -86.5z" />
    <glyph glyph-name="H" unicode="H" horiz-adv-x="1286" 
d="M157 1449h180v-531h615v531h182v-1297h-182v602h-615v-602h-180v1297z" />
    <glyph glyph-name="I" unicode="I" horiz-adv-x="483" 
d="M157 1449h180v-1297h-180v1297z" />
    <glyph glyph-name="J" unicode="J" 
d="M27 585h178q0 -53 1 -88.5t5 -59.5t11.5 -41.5t21.5 -34.5q48 -70 148 -70q31 0 59.5 9t51.5 27t39 44t22 60q9 43 9 131v889h182v-889q0 -202 -63 -293q-48 -69 -127.5 -105.5t-176.5 -36.5q-68 0 -127 18t-105 51t-76.5 79.5t-40.5 103.5q-12 64 -12 206z" />
    <glyph glyph-name="K" unicode="K" horiz-adv-x="1188" 
d="M157 1451h180v-631l613 631h240l-524 -529l522 -770h-215l-429 650l-207 -198v-452h-180v1299z" />
    <glyph glyph-name="L" unicode="L" horiz-adv-x="990" 
d="M157 1449h180v-1134h656v-163h-836v1297z" />
    <glyph glyph-name="M" unicode="M" horiz-adv-x="1466" 
d="M116 152v1296h219l406 -1077l394 1077h219v-1296h-159v1039l-379 -1039h-146l-396 1039v-1039h-158z" />
    <glyph glyph-name="N" unicode="N" horiz-adv-x="1286" 
d="M157 1449h201l594 -1019v1019h182v-1297h-204l-593 1028v-1028h-180v1297z" />
    <glyph glyph-name="O" unicode="O" horiz-adv-x="1386" 
d="M66 788q0 158 44 285t126 216.5t199 138t264 48.5q142 0 257.5 -46.5t197.5 -132.5t126 -208.5t44 -273.5q0 -145 -42 -270.5t-123 -218.5t-199 -146t-270 -53q-143 0 -258 46.5t-196.5 133t-125.5 208.5t-44 273zM255 793q0 -116 30.5 -209t87.5 -158t139.5 -100
t186.5 -35q103 0 184 35t137.5 102t86.5 164t30 221q0 118 -30 210.5t-86.5 156.5t-138 97.5t-183.5 33.5q-107 0 -189.5 -34.5t-139 -101t-86 -163t-29.5 -219.5z" />
    <glyph glyph-name="P" unicode="P" horiz-adv-x="1122" 
d="M137 150v1298h472q58 0 100.5 -2.5t74.5 -8.5t57.5 -15.5t49.5 -23.5q78 -42 120 -126.5t42 -198.5q0 -69 -17.5 -130t-52 -108.5t-85.5 -80t-117 -45.5q-62 -12 -205 -12h-265v-547h-174zM311 854h293q77 0 129 11.5t84 38t46 68t14 101.5q0 57 -14.5 98t-45.5 67.5
t-80.5 38.5t-119.5 12h-306v-435z" />
    <glyph glyph-name="Q" unicode="Q" horiz-adv-x="1356" 
d="M1033 208q-78 -42 -162 -61.5t-178 -19.5q-148 0 -265 45.5t-198.5 132t-125 210.5t-43.5 281t43.5 281t125 210.5t198.5 132t265 45.5q147 0 263.5 -46t197.5 -132.5t124.5 -210.5t43.5 -280q0 -155 -42.5 -277t-130.5 -222l160 -128l-88 -108zM887 324l-146 116l89 107
l177 -138q63 64 95.5 164t32.5 227q0 121 -30 216.5t-87 162t-139 101.5t-186 35t-186.5 -35t-140 -101.5t-88 -162t-30.5 -216.5t30.5 -217t87.5 -162.5t139.5 -101.5t187.5 -35q55 0 103 9.5t91 30.5z" />
    <glyph glyph-name="R" unicode="R" horiz-adv-x="1286" 
d="M157 1449h540q62 0 106.5 -1.5t78 -6.5t60 -13.5t52.5 -22.5q169 -91 169 -313q0 -57 -10.5 -101.5t-33 -80t-57 -63.5t-82.5 -51q48 -17 79.5 -38t50 -54t25.5 -82t7 -121v-150q0 -105 50 -187l9 -12h-214q-16 51 -23 97t-7 88v162q0 170 -124 196q-44 9 -147 9h-349
v-552h-180v1297zM337 1287v-419h340q50 0 82 1t54 4.5t38.5 9.5t34.5 17q90 49 90 177q0 66 -27 114.5t-78 71.5q-51 24 -179 24h-355z" />
    <glyph glyph-name="S" unicode="S" horiz-adv-x="1188" 
d="M80 585h187v-37q0 -36 3 -61.5t10.5 -45.5t21 -36t33.5 -32q92 -82 274 -82q71 0 129.5 14.5t100.5 41.5t65 65t23 85q0 26 -7 53.5t-24 52.5t-46 47t-73 38l-400 100q-133 48 -190.5 126t-57.5 191q0 83 33 151.5t93.5 117t146 75.5t191.5 27q83 0 156 -16t131.5 -46.5
t100 -74.5t62.5 -99q10 -26 15.5 -60.5t5.5 -79.5l3 -43h-188q0 31 -2 52.5t-6 38t-10 30t-14 28.5q-17 24 -43 43.5t-59.5 33t-73 21t-81.5 7.5q-58 0 -107.5 -13.5t-86 -39t-57 -62t-20.5 -83.5q0 -31 5.5 -54t21 -41t42.5 -33t70 -30l415 -106q239 -86 239 -317
q0 -80 -28.5 -153t-90 -129t-158.5 -89.5t-233 -33.5q-259 0 -390.5 105.5t-131.5 313.5v39z" />
    <glyph glyph-name="T" unicode="T" horiz-adv-x="1088" 
d="M29 1449h1038v-162h-431v-1135h-180v1135h-427v162z" />
    <glyph glyph-name="U" unicode="U" horiz-adv-x="1286" 
d="M139 1451h182v-809q0 -43 2.5 -77t9.5 -61.5t17.5 -50t27.5 -43.5q40 -55 112.5 -87t157.5 -32q70 0 129 20.5t102 63.5t66.5 107.5t23.5 153.5v815h182v-816q0 -105 -20 -179q-22 -79 -67.5 -140.5t-109 -103.5t-143 -63.5t-168.5 -21.5q-116 0 -209.5 30.5t-159 92.5
t-100.5 154.5t-35 217.5v829z" />
    <glyph glyph-name="V" unicode="V" horiz-adv-x="1088" 
d="M456 150l-456 1298h180l369 -1087l358 1087h181l-450 -1298h-182z" />
    <glyph glyph-name="W" unicode="W" horiz-adv-x="1682" 
d="M14 1449h193l196 -775l48 -260q16 74 24.5 115.5t14 65.5t10 40t12.5 39l231 775h185l230 -775q9 -23 16.5 -55.5t17.5 -74.5l30 -130q11 67 22.5 133t27.5 127l204 775h194l-355 -1297h-181l-301 1052l-295 -1052h-189z" />
    <glyph glyph-name="X" unicode="X" horiz-adv-x="1078" 
d="M0 150l440 665l-417 633h214l305 -480l310 480h202l-416 -630l440 -668h-214l-330 525l-322 -525h-212z" />
    <glyph glyph-name="Y" unicode="Y" horiz-adv-x="1188" 
d="M2 1449h226l376 -615l370 615h216l-498 -786v-511h-184v511z" />
    <glyph glyph-name="Z" unicode="Z" horiz-adv-x="1088" 
d="M43 310l783 977h-726v162h951v-157l-787 -977h787v-163h-1008v158z" />
    <glyph glyph-name="bracketleft" unicode="[" horiz-adv-x="631" 
d="M216 -207v1639h347v-122h-191v-1395h191v-122h-347z" />
    <glyph glyph-name="backslash" unicode="\" horiz-adv-x="536" 
d="M428 -15l-430 1480h107l433 -1480h-110z" />
    <glyph glyph-name="bracketright" unicode="]" horiz-adv-x="631" 
d="M415 1432v-1639h-347v122h190v1395h-190v122h347z" />
    <glyph glyph-name="underscore" unicode="_" 
d="M891 -146v-124h-891v124h891z" />
    <glyph glyph-name="grave" unicode="`" 
d="M570 1209h-105l-248 303h175z" />
    <glyph glyph-name="a" unicode="a" horiz-adv-x="990" 
d="M119 806q0 79 26.5 139t76 100.5t119.5 60.5t158 20q90 0 158 -15.5t113.5 -51t68.5 -92.5t23 -140v-453q0 -98 58 -98l47 4v-125q-18 -6 -32 -9.5t-25.5 -6t-21.5 -3t-22 -0.5q-133 0 -152 144q-138 -153 -326 -153q-69 0 -126 19.5t-97.5 56.5t-62.5 89t-22 118
q0 179 158 253q108 50 371 80l95 13v46q0 52 -13.5 86t-39.5 54.5t-64 29t-88 8.5q-101 0 -155.5 -43t-54.5 -131h-170zM702 628q-33 -5 -60.5 -9t-55.5 -8.5t-59.5 -10.5t-72.5 -15q-54 -13 -92 -27.5t-62 -33.5t-34.5 -44.5t-10.5 -60.5q0 -69 44.5 -107t125.5 -38
q57 0 107.5 18t88 48t59.5 70t22 85v133z" />
    <glyph glyph-name="b" unicode="b" horiz-adv-x="1059" 
d="M123 150v1298h155v-485q108 161 306 161q93 0 169.5 -36t131 -102.5t84.5 -159.5t30 -207q0 -112 -29 -204t-83 -157t-130.5 -101t-170.5 -36q-102 0 -175 36t-133 112v-119h-155zM272 628q0 -176 72 -271t207 -95q65 0 117 24t89 69t56.5 109t19.5 144q0 181 -73 277.5
t-208 96.5q-280 0 -280 -354z" />
    <glyph glyph-name="c" unicode="c" 
d="M729 490h167q-12 -95 -46 -164t-85.5 -113.5t-117.5 -66t-141 -21.5q-105 0 -187 33t-138.5 95t-85.5 152.5t-29 205.5q0 123 29.5 219t85.5 161.5t137 100t185 34.5q83 0 151 -24t118.5 -69.5t82 -111.5t41.5 -149h-167q-45 206 -226 206q-126 0 -194.5 -89.5
t-68.5 -252.5q0 -176 67.5 -269.5t197.5 -93.5q169 0 224 217z" />
    <glyph glyph-name="d" unicode="d" horiz-adv-x="990" 
d="M713 1005v446h164v-1298h-156v121q-36 -43 -67 -71.5t-63 -45t-67.5 -23.5t-79.5 -7q-87 0 -156.5 34.5t-119 98t-76 153t-26.5 200.5q0 114 28 208.5t79 162.5t122.5 106t158.5 38q39 0 72 -6t63 -20.5t60 -38t64 -58.5zM483 274q117 0 178.5 90.5t61.5 263.5
q0 169 -61.5 259.5t-178.5 90.5q-118 0 -180.5 -89.5t-62.5 -260.5q0 -173 62.5 -263.5t180.5 -90.5z" />
    <glyph glyph-name="e" unicode="e" horiz-adv-x="990" 
d="M927 574h-689q0 -147 69.5 -223.5t197.5 -76.5q194 0 238 191h171q-18 -80 -55 -142.5t-90 -106t-121 -66.5t-149 -23q-101 0 -181 34.5t-136 99.5t-86 157.5t-30 209.5q0 116 33 208t92 156t141 98t180 34q92 0 168.5 -29t131.5 -87.5t85.5 -148t30.5 -210.5zM763 722
q0 60 -19 107.5t-52.5 80.5t-80.5 50.5t-103 17.5q-228 0 -264 -256h519z" />
    <glyph glyph-name="f" unicode="f" horiz-adv-x="471" 
d="M153 150v807h-153v125h153v137q0 232 211 232q16 0 41.5 -3t73.5 -10v-140q-25 4 -42 6t-27 2q-27 0 -46 -6.5t-30.5 -23t-17 -45t-5.5 -71.5v-78h168v-125h-168v-807h-158z" />
    <glyph glyph-name="g" unicode="g" horiz-adv-x="990" 
d="M713 975v127h162v-806q0 -122 -9 -192q-22 -173 -124 -257.5t-277 -84.5q-169 0 -257.5 70t-105.5 221h163q10 -39 25 -66t38.5 -44.5t55.5 -25t77 -7.5q73 0 120.5 22t74.5 66t37.5 110.5t10.5 155.5q-30 -36 -60.5 -62t-62.5 -42.5t-68 -24.5t-78 -8q-87 0 -155.5 33
t-116 95.5t-72.5 151.5t-25 202q0 120 25.5 216t74 162.5t118 102.5t156.5 36q173 0 273 -151zM240 628q0 -80 16.5 -145t47.5 -111.5t75 -72t99 -25.5q54 0 97 25t73.5 71.5t46.5 111.5t16 146q0 79 -16.5 144t-47 110.5t-73.5 70.5t-96 25q-55 0 -99 -25t-75 -70.5
t-47.5 -110.5t-16.5 -144z" />
    <glyph glyph-name="h" unicode="h" horiz-adv-x="992" 
d="M116 1449h164v-449q65 66 132 96t154 30q75 0 133 -18t97 -59.5t59 -108.5t20 -164v-624h-164v586q0 65 -10 111t-31.5 74.5t-55.5 41.5t-83 13q-42 0 -81 -13t-71.5 -37t-55.5 -59t-33 -78q-10 -44 -10 -135v-504h-164v1297z" />
    <glyph glyph-name="i" unicode="i" horiz-adv-x="395" 
d="M116 1102h164v-950h-164v950zM116 1449h164v-185h-164v185z" />
    <glyph glyph-name="j" unicode="j" horiz-adv-x="395" 
d="M-36 -78q45 -12 66 -12q26 0 42.5 6.5t26.5 24t13.5 47.5t3.5 78v1036h164v-1061q0 -148 -54.5 -213.5t-164.5 -65.5h-56q-14 2 -24 4t-17 3v153zM116 1449h164v-185h-164v185z" />
    <glyph glyph-name="k" unicode="k" 
d="M117 1449h165v-734l388 387h217l-365 -352l371 -598h-198l-283 484l-130 -122v-362h-165v1297z" />
    <glyph glyph-name="l" unicode="l" horiz-adv-x="395" 
d="M116 1458h164v-1306h-164v1306z" />
    <glyph glyph-name="m" unicode="m" horiz-adv-x="1529" 
d="M1283 150v588q0 73 -9 121.5t-30 77.5t-54.5 40.5t-81.5 11.5q-117 0 -181 -71.5t-64 -202.5v-565h-163v588q0 73 -9.5 121.5t-30.5 77t-54 40.5t-81 12q-57 0 -102.5 -19t-77 -54t-48.5 -86t-17 -115v-565h-161v955h153v-135q54 81 126.5 120.5t172.5 39.5
q90 0 152.5 -36t108.5 -114q62 77 136 113.5t171 36.5q121 0 199 -55.5t97 -162.5q9 -51 9 -161v-601h-161z" />
    <glyph glyph-name="n" unicode="n" horiz-adv-x="990" 
d="M116 1102h164v-124q73 84 138 116q64 32 155 32q62 0 116.5 -18.5t95.5 -53.5t64.5 -86.5t23.5 -117.5l2 -93v-605h-164v574q0 132 -32 179q-48 73 -155 73q-145 0 -211 -121q-30 -46 -31 -117l-2 -90v-498h-164v950z" />
    <glyph glyph-name="o" unicode="o" horiz-adv-x="990" 
d="M66 628q0 118 29.5 210.5t85 156.5t135.5 97.5t181 33.5q100 0 180 -33.5t136 -97.5t85.5 -156.5t29.5 -210.5q0 -117 -29 -209.5t-84.5 -157.5t-135.5 -99.5t-182 -34.5q-101 0 -180.5 34.5t-135.5 99t-85.5 157.5t-29.5 210zM240 628q0 -82 17 -147.5t50 -111.5
t80.5 -70.5t109.5 -24.5q124 0 190 93t66 266q0 81 -17 145.5t-50 108.5t-80.5 67.5t-108.5 23.5q-124 0 -190.5 -91t-66.5 -259z" />
    <glyph glyph-name="p" unicode="p" horiz-adv-x="1059" 
d="M223 -222h-152v1304h152v-126q55 81 128.5 118.5t173.5 37.5q93 0 169 -35t129 -99.5t82 -155.5t29 -203q0 -113 -29 -205t-82 -157t-129 -100.5t-169 -35.5q-103 0 -180 38.5t-122 113.5v-495zM772 629q0 79 -19.5 142.5t-56 107.5t-88.5 68t-116 24q-131 0 -203 -92.5
t-72 -261.5q0 -173 70 -265.5t199 -92.5q138 0 212 95.5t74 274.5z" />
    <glyph glyph-name="q" unicode="q" horiz-adv-x="1059" 
d="M782 273q-45 -75 -121.5 -113.5t-181.5 -38.5q-93 0 -168.5 35.5t-128.5 100.5t-82 157t-29 205q0 112 29 203t82 155.5t128.5 99.5t168.5 35q100 0 173 -37.5t130 -118.5v126h152v-1304h-152v495zM233 629q0 -179 74 -274.5t212 -95.5q129 0 198.5 92.5t69.5 265.5
q0 169 -71.5 261.5t-202.5 92.5q-64 0 -116 -23.5t-88.5 -67.5t-56 -107.5t-19.5 -143.5z" />
    <glyph glyph-name="r" unicode="r" horiz-adv-x="592" 
d="M117 1102h165v-158q50 100 110.5 141t137.5 41q9 0 20 -1t33 -6v-175l-52 5q-91 0 -154 -46.5t-83 -137.5q-10 -47 -10 -141v-472h-167v950z" />
    <glyph glyph-name="s" unicode="s" 
d="M65 463h173q0 -28 1.5 -47.5t5 -34t11 -26t19.5 -23.5q57 -58 173 -58q93 0 149 37.5t56 100.5q0 30 -19.5 54t-73.5 48l-299 93q-165 75 -165 243q0 61 26 112t72.5 87.5t111.5 56.5t144 20q78 0 142 -19t110.5 -56.5t72 -94t25.5 -131.5h-167q0 44 -15.5 73.5t-42 47.5
t-61 26t-71.5 8t-69.5 -8.5t-57 -24t-39 -37t-14.5 -46.5q0 -78 82 -109l278 -86q51 -22 89 -44.5t63.5 -50t38.5 -61.5t13 -79q0 -66 -26.5 -122t-75.5 -97t-120 -64.5t-159 -23.5q-186 0 -283.5 85t-97.5 251z" />
    <glyph glyph-name="t" unicode="t" horiz-adv-x="525" 
d="M26 1102h125v233h163v-233h158v-138h-158v-576q0 -34 4.5 -56.5t16.5 -36t32 -19t51 -5.5l54 2v-139l-122 -7q-148 0 -183 107q-16 41 -16 166v564h-125v138z" />
    <glyph glyph-name="u" unicode="u" horiz-adv-x="990" 
d="M116 1102h164v-603q0 -68 11 -111.5t33.5 -68.5t57 -35t81.5 -10q40 0 78.5 13t70.5 38t55 61.5t33 83.5q11 53 11 149v483h164v-947h-152v146q-87 -174 -301 -174q-72 0 -129 18.5t-96 61t-60 111.5t-21 170v614z" />
    <glyph glyph-name="v" unicode="v" horiz-adv-x="857" 
d="M355 150l-353 955h172l267 -765l261 765h172l-349 -955h-170z" />
    <glyph glyph-name="w" unicode="w" horiz-adv-x="1286" 
d="M14 1102h180l139 -554l39 -186q6 31 10.5 54t8.5 43t8.5 41t10.5 48l144 554h182l141 -547q8 -28 15 -64l24 -120q4 24 5 35.5t4 26.5t10 41.5t22 80.5l146 547h172l-281 -950h-168l-183 731l-185 -731h-167z" />
    <glyph glyph-name="x" unicode="x" horiz-adv-x="869" 
d="M0 150l333 492l-317 463h188l235 -343l230 343h185l-321 -462l342 -493h-194l-250 369l-243 -369h-188z" />
    <glyph glyph-name="y" unicode="y" 
d="M197 1102l255 -756l250 756h178l-383 -1057q-28 -84 -56.5 -139t-59.5 -88t-65 -46t-73 -13l-66 6q-23 0 -34.5 1.5t-17.5 4t-9.5 4.5t-10.5 3v153l18 -7q20 -8 41 -11t33 -3q31 0 52 8t39 31.5t35.5 67.5t40.5 116l-350 969h183z" />
    <glyph glyph-name="z" unicode="z" 
d="M66 282l534 672h-491v148h705v-131l-536 -671h550v-148h-762v130z" />
    <glyph glyph-name="braceleft" unicode="{" 
d="M753 1304h-35q-52 0 -86 -7.5t-54 -29.5t-28 -60.5t-8 -101.5v-210q0 -69 -9 -117.5t-29 -81t-54 -52.5t-83 -33q49 -12 82.5 -31.5t54 -51.5t29.5 -81t9 -119v-210q0 -62 8 -101t28 -61t54 -29.5t87 -7.5h34v-129h-37q-113 0 -177.5 16t-97 53t-41 96t-8.5 145v214
q0 64 -11 109t-35.5 73t-64.5 40.5t-97 12.5q-7 0 -19.5 -0.5t-18.5 -0.5v129q7 0 20 -1t19 -1q57 0 96 12.5t64 40.5t36 72.5t11 108.5v214q0 66 4.5 110t15 74t27 49t40.5 34q39 24 94.5 34.5t147.5 10.5h32v-131z" />
    <glyph glyph-name="bar" unicode="|" 
d="M512 1512v-1782h-131v1782h131z" />
    <glyph glyph-name="braceright" unicode="}" 
d="M500 1123v-214q0 -64 11 -108.5t36 -72.5t64 -40.5t96 -12.5q6 0 19 1t20 1v-129q-6 0 -19 0.5t-18 0.5q-58 0 -98 -12.5t-64.5 -40t-35.5 -72.5t-11 -110v-214q0 -65 -4.5 -109t-15 -74.5t-27 -50t-40.5 -34.5q-18 -11 -39.5 -19t-49.5 -13t-64 -7.5t-83 -2.5h-38v129
h34q53 0 87.5 8.5t54.5 30.5t28 61t8 101v208q0 71 9 119.5t29.5 80.5t53.5 51t82 32q-49 13 -82.5 32.5t-53.5 52t-29 80.5t-9 119v210q0 61 -8 100t-28.5 61t-55 30t-86.5 8h-34v131h32q112 0 177.5 -16.5t99 -53.5t43 -96.5t9.5 -145.5z" />
    <glyph glyph-name="asciitilde" unicode="~" horiz-adv-x="1484" 
d="M1331 684q-91 -63 -173.5 -92.5t-164.5 -29.5q-79 0 -223 50q-10 3 -17.5 5.5t-12.5 4.5l-13 5q-152 52 -237 52q-73 0 -152.5 -32t-182.5 -105v135q183 125 337 125q29 0 59 -3t65 -10.5t76.5 -21t93.5 -33.5q139 -50 208 -50q77 0 156.5 32.5t180.5 103.5v-136z" />
    <glyph glyph-name="uni007F" horiz-adv-x="1392" 
d="M498 520q0 -128 -62 -193t-177 -65h-183v510h175q60 0 106 -13t77.5 -43t47.5 -78t16 -118zM428 521q0 103 -41 147t-136 44h-108v-390h109q52 0 86 13t54 38.5t28 62.5t8 85zM940 262h-381v510h368v-60h-301v-156h282v-60h-282v-174h314v-60zM1322 262h-318v510h68v-450
h250v-60z" />
    <glyph glyph-name="copyright" unicode="&#xa9;" horiz-adv-x="1484" 
d="M741 1424q89 0 171 -23t153.5 -65t130.5 -100.5t100.5 -130t64.5 -153.5t23 -170q0 -92 -25 -175.5t-69 -154.5t-104.5 -128.5t-132 -98t-151 -62.5t-161.5 -22q-85 0 -165.5 23.5t-151.5 65.5t-130 101t-102 130.5t-66.5 152.5t-23.5 168q0 85 22.5 166t64 152
t99.5 130.5t129 102.5t153 67t171 24zM1299 782q0 118 -44.5 220t-120.5 177t-177 118t-214 43q-116 0 -218 -45.5t-177.5 -122.5t-119 -178t-43.5 -212q0 -110 44.5 -210.5t120.5 -177t177.5 -122t215.5 -45.5q70 0 138.5 18.5t130.5 53.5t114.5 84.5t91 111t60 134
t21.5 153.5zM916 939q-11 67 -57 103t-121 36q-46 0 -82.5 -20t-61.5 -58.5t-38.5 -93.5t-13.5 -124q0 -137 53.5 -212.5t150.5 -75.5q72 0 119.5 40.5t59.5 112.5h126q-4 -56 -28.5 -103t-65.5 -80.5t-96 -52t-120 -18.5q-80 0 -142.5 27t-106 78t-66.5 124.5t-23 165.5
q0 86 24.5 157.5t69.5 122.5t108.5 79t140.5 28q61 0 113.5 -17t91.5 -48.5t63.5 -75t29.5 -95.5h-128z" />
    <glyph glyph-name="guillemotleft" unicode="&#xab;" horiz-adv-x="880" 
d="M763 22h-72q-82 97 -164 192.5t-164 192.5q84 97 164.5 189.5t164.5 189.5h64l-217 -378zM461 22h-68q-82 97 -163 192.5t-164 192.5q84 97 164.5 189.5t165.5 189.5h65l-219 -378z" />
    <glyph glyph-name="registered" unicode="&#xae;" horiz-adv-x="1484" 
d="M741 1424q88 0 170 -23t153.5 -65t130 -100.5t101 -130t65.5 -153.5t23 -170q0 -91 -24.5 -174t-68.5 -154.5t-104.5 -129t-132 -98.5t-151 -63t-162.5 -22q-86 0 -167 23.5t-152 66.5t-129.5 102t-101 130.5t-66 152t-23.5 166.5q0 83 22 162.5t62.5 151t97.5 131.5
t128 104t154 68.5t175 24.5zM1299 777q0 121 -44.5 224t-120.5 178.5t-177 118t-214 42.5q-82 0 -155 -22t-135 -60.5t-111.5 -91t-84.5 -114.5t-53.5 -131t-18.5 -139q0 -74 20.5 -143.5t57 -131t87.5 -113t112.5 -89t131 -58t144.5 -20.5q111 0 212.5 42t179 116
t123.5 174.5t46 217.5zM759 1158q303 0 303 -199q0 -78 -43.5 -129t-122.5 -67l163 -331h-154l-148 310h-135v-310h-137v726h274zM734 1070h-112v-241h116q98 0 140.5 27t42.5 88q0 66 -44 96t-143 30z" />
    <glyph glyph-name="paragraph" unicode="&#xb6;" 
d="M830 1379h-106v-1229h-80v1229h-173v-1229h-82v690q-78 3 -139 25.5t-103 61.5t-64 92.5t-22 118.5q0 67 24.5 122.5t69 95t106.5 61t137 21.5h432v-59z" />
    <glyph glyph-name="guillemotright" unicode="&#xbb;" horiz-adv-x="880" 
d="M335 408q-54 94 -108 189t-109 189h65q81 -95 163.5 -189.5t165.5 -189.5q-84 -99 -165 -193t-163 -192h-74zM632 408q-54 94 -109.5 189t-109.5 189h65q83 -95 165.5 -189.5t164.5 -189.5q-83 -99 -163 -193t-164 -192h-68z" />
    <glyph glyph-name="multiply" unicode="&#xd7;" horiz-adv-x="1484" 
d="M748 767l408 408l85 -86l-408 -408l408 -408l-85 -84l-408 406l-408 -406l-85 84l408 408l-408 408l85 86z" />
    <glyph glyph-name="ccedilla" unicode="&#xe7;" horiz-adv-x="935" 
d="M738 772q-7 97 -69 148t-170 51q-129 0 -197.5 -90.5t-68.5 -261.5q0 -172 65.5 -263.5t189.5 -91.5q109 0 174.5 56t82.5 165h149q-4 -78 -32.5 -143t-78 -112.5t-118.5 -76t-153 -32.5v-68h22q90 0 137.5 -35t47.5 -101q0 -153 -207 -153q-45 0 -99.5 8t-114.5 25v81
q69 -16 124 -24.5t88 -8.5q45 0 68.5 17t23.5 48q0 69 -105 69q-15 0 -27 -0.5t-23 -0.5v143q-89 8 -158.5 46.5t-118.5 102.5t-74.5 151t-25.5 192q0 115 30 207.5t85.5 157t135 99.5t178.5 35q87 0 158 -24t122 -68.5t79.5 -107t30.5 -140.5h-151z" />
    <glyph glyph-name="divide" unicode="&#xf7;" horiz-adv-x="1484" 
d="M1263 742v-121h-1042v121h1042zM743 1112q22 0 41.5 -9t34.5 -24t24 -35t9 -42q0 -23 -8.5 -42.5t-23.5 -34.5t-35 -23.5t-42 -8.5q-23 0 -42.5 8.5t-34.5 23t-23.5 34.5t-8.5 43t9 43t24.5 35t35 23.5t40.5 8.5zM743 469q22 0 41.5 -9t34.5 -24t24 -34.5t9 -40.5
q0 -23 -8.5 -43t-23.5 -34.5t-35 -23t-42 -8.5q-23 0 -43 8t-34.5 22.5t-23 34.5t-8.5 44q0 22 9 41.5t24 34.5t34.5 23.5t41.5 8.5z" />
    <glyph glyph-name="oe" unicode="&#x153;" horiz-adv-x="1656" 
d="M828 308q-52 -94 -134 -141t-199 -47q-100 0 -178.5 33t-133 95t-83.5 151.5t-29 202.5q0 122 29 217t84.5 160t136 99t184.5 34q229 0 336 -176q129 176 337 176q98 0 175.5 -32.5t131.5 -93t82.5 -148t28.5 -196.5q0 -20 -3 -65v-5h-675q1 -72 20 -129.5t53.5 -97.5
t84 -61.5t111.5 -21.5q94 0 156 49t80 140h156q-13 -77 -48 -138t-88 -104t-121.5 -66t-147.5 -23q-121 0 -209 47.5t-137 140.5zM237 617q0 -171 68 -264t194 -93q61 0 110 26.5t83 76t52.5 119.5t18.5 156q0 76 -18 138t-51.5 105.5t-81 67.5t-106.5 24q-129 0 -199 -92.5
t-70 -263.5zM920 701h509v5q0 62 -17.5 111.5t-49.5 84t-79 53t-105 18.5q-56 0 -101.5 -19.5t-79 -55t-53.5 -85.5t-24 -112z" />
    <glyph glyph-name="uni060C" unicode="&#x60c;" horiz-adv-x="471" 
d="M303 158q-5 -1 -9 -1h-7q-32 0 -64 11.5t-57 35.5t-40.5 60.5t-15.5 86.5q0 40 13.5 86.5t37.5 91.5t57 86t72 70q-37 -66 -50 -113.5t-13 -93.5q0 -65 30.5 -110.5t94.5 -70.5z" />
    <glyph glyph-name="uni061B" unicode="&#x61b;" horiz-adv-x="565" 
d="M399 259q0 -24 -9.5 -45t-25 -37t-36.5 -25.5t-45 -9.5q-23 0 -44 9.5t-37 25.5t-25 37t-9 45t9 45.5t25 37t37 25t44 9.5q24 0 45 -9.5t36.5 -25t25 -37t9.5 -45.5zM309 539q-5 -1 -10 -1h-10q-26 0 -49.5 13t-41.5 35.5t-29 52.5t-11 64q0 36 12 72.5t32 79.5v-1
q17 32 37 58.5t43 48.5q-20 -45 -30 -82t-10 -69q0 -60 25 -99t82 -60z" />
    <glyph glyph-name="uni061F" unicode="&#x61f;" horiz-adv-x="961" 
d="M710 1331q66 -17 94 -45.5t28 -57.5q0 -17 -6.5 -33.5t-17 -29.5t-23.5 -20.5t-27 -7.5q-7 0 -13.5 1.5t-11.5 3.5q-42 12 -93 25t-99 13q-36 0 -67.5 -8t-57.5 -27t-44.5 -50.5t-28.5 -78.5q5 -42 19 -76.5t34 -64t43.5 -55.5t47.5 -50q20 -21 39 -41.5t33.5 -41.5
t23.5 -42.5t9 -43.5q0 -18 -7 -33t-19 -25.5t-27 -16t-31 -5.5q-17 0 -36.5 9t-38.5 28q-41 35 -87 81t-88 103.5t-73.5 125.5t-42.5 148q23 171 113 257t249 86q45 0 96.5 -7t109.5 -21zM619 259q0 -24 -9.5 -45t-25 -37t-37 -25.5t-45.5 -9.5q-23 0 -44 9.5t-37 25.5
t-25 37t-9 45t9 45.5t25 37t37 25t44 9.5q24 0 45.5 -9.5t37 -25t25 -37t9.5 -45.5z" />
    <glyph glyph-name="uni0621" unicode="&#x621;" horiz-adv-x="1002" 
d="M855 639q6 -21 3 -42q-2 -19 -6 -29q-5 -13 -14.5 -22.5t-22.5 -15t-28 -5.5q-16 0 -28.5 5.5t-22.5 15t-15 22.5q-2 6 -6 29q0 2 -1 5q-5 22 -12 30q-14 15 -38 22q-11 3 -26 5q-90 -3 -120.5 -16.5t-53 -36t-35.5 -53t-13 -63.5v-28q0 -33 13 -63.5t35.5 -53t53 -36
t64.5 -13.5l299 -6q-29 -43 -63 -71q-28 -25 -62 -44q-5 -3 -31 -16l-16 -6l-6 -2h-436q-12 -1 -23 0h-1q-18 2 -28 6q-13 5 -22.5 14.5t-15 22.5t-5.5 28q0 16 5.5 28.5t15 22.5t22.5 15q6 2 119 5q-18 30 -29 64q-15 42 -19 87h-1v64h1q4 45 19 87q19 58 57 103.5t94 73.5
q48 24 111 27h53l1 -1q113 -5 176 -67q47 -47 58 -92z" />
    <glyph glyph-name="uni0622" unicode="&#x622;" horiz-adv-x="506" 
d="M44 1400q-8 -2 -13.5 4.5t-5.5 14.5l3 49q0 11 6 17.5t14 8.5l384 68q17 3 19 -19l-3 -49q0 -9 -6 -17t-14 -9zM344 375q1 -7 1 -15l-1 -12l-2 -8l-8 -20q-17 -34 -21 -41q-24 -43 -57 -80q-36 -43 -91 -81l-5 1146q0 20 7 37t19.5 29.5t29 19.5t36.5 7t36.5 -7t29 -19.5
t19.5 -29.5t7 -37v-889z" />
    <glyph glyph-name="uni0623" unicode="&#x623;" horiz-adv-x="506" 
d="M130 1568q-5 11 -6.5 23t-1.5 24q0 25 8 48.5t23.5 42t39 29.5t53.5 11h111v-83l-111 1q-27 0 -39 -15.5t-12 -33.5q0 -17 11 -31t35 -16h125v-83h-274v83h38zM344 375q1 -7 1 -15l-1 -12l-2 -8l-8 -20q-17 -34 -21 -41q-24 -43 -57 -80q-36 -43 -91 -81l-5 1146
q0 20 7 37t19.5 29.5t29 19.5t36.5 7t36.5 -7t29 -19.5t19.5 -29.5t7 -37v-889z" />
    <glyph glyph-name="uni0624" unicode="&#x624;" horiz-adv-x="962" 
d="M623 1356q3 -12 1 -24q-1 -11 -3 -16q-3 -8 -8.5 -13.5t-12.5 -8.5t-16 -3t-16 3t-12.5 8.5t-8.5 13.5q-1 3 -4 16v3q-3 12 -7 17q-8 8 -21 12q-7 2 -15 3q-51 -2 -68.5 -9.5t-30 -20t-20 -30t-7.5 -36.5v-15q0 -19 7.5 -36.5t20 -30t30 -20t36.5 -7.5l169 -4
q-16 -24 -35 -40q-16 -14 -35 -25q-3 -1 -18 -9l-9 -3l-3 -1h-247q-7 -1 -13 0h-1q-10 1 -15 3q-8 3 -13 8.5t-8.5 12.5t-3.5 16t3.5 16t8.5 12.5t13 8.5q3 1 67 3q-10 17 -16 36q-9 24 -11 49h-1v37h1q2 25 11 49q10 33 31.5 58.5t53.5 41.5q27 13 63 15h30v0
q64 -3 100 -38q26 -27 33 -52zM680 336l8 4l1 164v86q0 43 -16.5 82t-46 68.5t-68.5 47t-83 17.5h-10l-19 2l-50 4v-1q-32 -2 -56 -8q-30 -9 -48 -28t-25.5 -50t-7.5 -76v-88h1q-3 -18 6 -72q17 -59 46.5 -88.5t68.5 -46.5q36 -17 93 -18v1h206zM858 238l-1 -31
q-7 -56 -18 -90q-22 -62 -51 -116q-26 -51 -57 -93.5t-68 -78.5q-33 -31 -70 -56t-77 -45q-48 -22 -98 -35l-17 -6q-6 -2 -12 -3q-16 -4 -32 -5l-12 1l-8 2l-20 8q-34 16 -41 20q-43 23 -80 55q-43 35 -81 88h116q109 0 194 41q68 32 132 96q54 56 89 161h-178
q-95 0 -167 35.5t-121 94.5t-74 134q-22 67 -25 138h-1v101q2 160 88 247q82 81 228 87l1 1h76q94 0 165 -35q72 -36 121 -95t74 -134t25 -154v-65q0 -59 1 -170l1 -5z" />
    <glyph glyph-name="uni0625" unicode="&#x625;" horiz-adv-x="506" 
d="M130 -153q-5 11 -6.5 23t-1.5 24q0 25 8 48.5t23.5 42t39 29.5t53.5 11h111v-83l-111 1q-27 0 -39 -15.5t-12 -33.5q0 -17 11 -31t35 -16h125v-83h-274v83h38zM344 375q1 -7 1 -15l-1 -12l-2 -8l-8 -20q-17 -34 -21 -41q-24 -43 -57 -80q-36 -43 -91 -81l-5 1146
q0 20 7 37t19.5 29.5t29 19.5t36.5 7t36.5 -7t29 -19.5t19.5 -29.5t7 -37v-889z" />
    <glyph glyph-name="uni0626" unicode="&#x626;" horiz-adv-x="1878" 
d="M318 563h1q-3 -18 6 -72q17 -59 46.5 -88.5t68.5 -46.5q36 -17 93 -18v1h506v318q2 160 88 247q82 81 228 87l1 1h76q94 0 165 -35q72 -36 121 -95t74 -134q17 -51 23 -94v-6q1 -6 -1 -72q-1 -26 -7.5 -41.5t-17.5 -27t-26.5 -18t-33.5 -6.5t-33 6.5t-26.5 18t-18 27
t-6.5 33.5q0 7 1 14l1 56q-4 29 -15 57q-17 39 -46.5 68.5t-68.5 47.5q-33 14 -162 23v-1q-32 -2 -56 -8q-30 -9 -48 -28t-25.5 -50t-7.5 -76v-497l-1 1v-1h-690q-95 0 -167 35.5t-121 94.5t-74 134q-22 67 -25 138h-1v101q0 16 2 31q9 139 87 218q82 81 219 88l12 -1l8 -2
l20 -8q34 -16 41 -20q43 -23 80 -55q43 -35 81 -88h-140q-25 0 -47 -1l-46 -4q-32 -2 -56 -8q-30 -9 -48 -28t-25 -50q-7 -25 -9 -166zM1053 1256q3 -12 1 -24q-1 -11 -3 -16q-3 -8 -8.5 -13.5t-12.5 -8.5t-16 -3t-16 3t-12.5 8.5t-8.5 13.5q-1 3 -4 16v3q-3 12 -7 17
q-8 8 -21 12q-7 2 -15 3q-51 -2 -68.5 -9.5t-30 -20t-20 -30t-7.5 -36.5v-15q0 -19 7.5 -36.5t20 -30t30 -20t36.5 -7.5l169 -4q-16 -24 -35 -40q-16 -14 -35 -25q-3 -1 -18 -9l-9 -3l-3 -1h-247q-7 -1 -13 0h-1q-10 1 -15 3q-8 3 -13 8.5t-8.5 12.5t-3.5 16t3.5 16
t8.5 12.5t13 8.5q3 1 67 3q-10 17 -16 36q-9 24 -11 49h-1v37h1q2 25 11 49q10 33 31.5 58.5t53.5 41.5q27 13 63 15h30v0q64 -3 100 -38q26 -27 33 -52z" />
    <glyph glyph-name="uni0627" unicode="&#x627;" horiz-adv-x="506" 
d="M344 375q1 -7 1 -15l-1 -12l-2 -8l-8 -20q-17 -34 -21 -41q-24 -43 -57 -80q-36 -43 -91 -81l-5 1146q0 20 7 37t19.5 29.5t29 19.5t36.5 7t36.5 -7t29 -19.5t19.5 -29.5t7 -37v-889z" />
    <glyph glyph-name="uni0628" unicode="&#x628;" horiz-adv-x="1275" 
d="M629 -145q0 21 7.5 39t21 31.5t31 21t38.5 7.5t39 -7.5t31.5 -21t21 -31.5t7.5 -39q0 -42 -28.5 -70t-70.5 -28t-70 28t-28 70zM1201 494q0 -164 -88 -252q-81 -81 -226 -91h-659q-145 10 -226 91q-87 87 -88 249q1 162 88 250q82 81 219 88l12 -1l8 -2l20 -8
q34 -16 41 -20q43 -23 80 -55q43 -35 81 -88h-140q-25 0 -47 -1l-46 -4q-32 -2 -56 -8q-30 -9 -48 -28t-25 -50q-8 -30 -8 -73t8 -73q7 -31 25 -50t48 -27q24 -7 74 -6v1h619v-1q50 -1 74 6q30 8 48 27t25.5 50t7.5 76l-1 380q0 20 7 37t19.5 29.5t29 19.5t36.5 7t36.5 -7
t29 -19.5t19.5 -29.5t7 -37z" />
    <glyph glyph-name="uni0629" unicode="&#x629;" horiz-adv-x="962" 
d="M558 1245q0 42 28.5 70.5t69.5 28.5q21 0 39 -7.5t31.5 -21t21 -31.5t7.5 -39t-7.5 -38.5t-21 -31t-31.5 -21t-39 -7.5q-41 0 -69.5 28t-28.5 70zM283 1245q0 42 28 70.5t69 28.5q21 0 39 -7.5t31.5 -21t21 -31.5t7.5 -39t-7.5 -38.5t-21 -31t-31.5 -21t-39 -7.5
q-41 0 -69 28t-28 70zM465 805l-19 2l-50 4v-1q-32 -2 -56 -8q-30 -9 -48 -28t-25.5 -50t-7.5 -76v-88h1q-3 -18 6 -72q17 -59 46.5 -88.5t68.5 -46.5q36 -17 93 -18v1h214l1 168v86q0 43 -16.5 82t-46 68.5t-68.5 47t-83 17.5h-10zM860 331l1 -182q-2 1 -5 2h-388
q-95 0 -167 35.5t-121 94.5t-74 134q-22 67 -25 138h-1v101q2 160 88 247q82 81 228 87l1 1h76q94 0 165 -35q72 -36 121 -95t74 -134t25 -154v-65q0 -59 1 -170z" />
    <glyph glyph-name="uni062A" unicode="&#x62a;" horiz-adv-x="1275" 
d="M682 1163q0 21 7.5 39t20.5 31.5t31 21t38 7.5q42 0 70.5 -28.5t28.5 -70.5q0 -20 -7.5 -38t-21 -31t-31.5 -20.5t-39 -7.5q-41 0 -69 28t-28 69zM406 1163q0 21 7.5 39t21 31.5t31 21t38.5 7.5t38.5 -7.5t31 -21t21 -31.5t7.5 -39q0 -41 -28 -69t-70 -28t-70 28t-28 69z
M1201 494q0 -164 -88 -252q-81 -81 -226 -91h-659q-145 10 -226 91q-87 87 -88 249q1 162 88 250q82 81 219 88l12 -1l8 -2l20 -8q34 -16 41 -20q43 -23 80 -55q43 -35 81 -88h-140q-25 0 -47 -1l-46 -4q-32 -2 -56 -8q-30 -9 -48 -28t-25 -50q-8 -30 -8 -73t8 -73
q7 -31 25 -50t48 -27q24 -7 74 -6v1h619v-1q50 -1 74 6q30 8 48 27t25.5 50t7.5 76l-1 380q0 20 7 37t19.5 29.5t29 19.5t36.5 7t36.5 -7t29 -19.5t19.5 -29.5t7 -37z" />
    <glyph glyph-name="uni062B" unicode="&#x62b;" horiz-adv-x="1275" 
d="M490 1436q0 21 7.5 39t21 31.5t31 21t38.5 7.5t39 -7.5t31.5 -21t21 -31.5t7.5 -39q0 -41 -28.5 -69.5t-70.5 -28.5t-70 28.5t-28 69.5zM325 1170q0 42 28 70t69 28q21 0 39 -7.5t31.5 -21t21 -31t7.5 -38.5t-7.5 -38.5t-21 -31t-31.5 -21t-39 -7.5q-41 0 -69 28t-28 70z
M655 1170q0 42 28 70t70 28t70 -28t28 -70t-28 -70t-70 -28t-70 28t-28 70zM1201 494q0 -164 -88 -252q-81 -81 -226 -91h-659q-145 10 -226 91q-87 87 -88 249q1 162 88 250q82 81 219 88l12 -1l8 -2l20 -8q34 -16 41 -20q43 -23 80 -55q43 -35 81 -88h-140q-25 0 -47 -1
l-46 -4q-32 -2 -56 -8q-30 -9 -48 -28t-25 -50q-8 -30 -8 -73t8 -73q7 -31 25 -50t48 -27q24 -7 74 -6v1h619v-1q50 -1 74 6q30 8 48 27t25.5 50t7.5 76l-1 380q0 20 7 37t19.5 29.5t29 19.5t36.5 7t36.5 -7t29 -19.5t19.5 -29.5t7 -37z" />
    <glyph glyph-name="uni062C" unicode="&#x62c;" horiz-adv-x="1250" 
d="M482 -150q0 42 28.5 70.5t69.5 28.5q21 0 39 -7.5t31.5 -21t21 -31.5t7.5 -39t-7.5 -38.5t-21 -31t-31.5 -21t-39 -7.5q-41 0 -69.5 28t-28.5 70zM460 325h476q-46 174 -143 275q-64 64 -132 96q-85 41 -194.5 41t-110 89.5t138.5 89.5q28 0 54 -1.5t50 -5.5
q80 -13 153 -47q40 -20 77 -45t70 -56q37 -36 68 -78.5t57 -93.5q29 -54 51 -116t37 -135v-183h-407q-233 -9 -238 -12q-40 -20 -66.5 -53.5t-38.5 -76.5q-10 -30 -8.5 -68t7.5 -58q12 -43 38.5 -76t66.5 -53q36 -19 84 -21h5q9 -1 19 -1q43 0 73 8q31 7 50 25t28 48
q6 24 8 56l4 46q1 22 1 47v140q53 -38 88 -81q32 -37 55 -80q4 -7 20 -41l8 -20l2 -8l1 -12q-7 -137 -88 -219q-51 -50 -126 -72q-55 -16 -124 -16q-18 0 -34 1v-1q-83 4 -148 36q-74 35 -123.5 93.5t-74.5 134.5q-15 43 -19 98.5t0 81.5q6 39 20 78q25 75 74.5 134
t123.5 95q17 8 67 17z" />
    <glyph glyph-name="uni062D" unicode="&#x62d;" horiz-adv-x="1250" 
d="M460 325h476q-46 174 -143 275q-64 64 -132 96q-85 41 -194.5 41t-110 89.5t138.5 89.5q28 0 54 -1.5t50 -5.5q80 -13 153 -47q40 -20 77 -45t70 -56q37 -36 68 -78.5t57 -93.5q29 -54 51 -116t37 -135v-183h-407q-233 -9 -238 -12q-40 -20 -66.5 -53.5t-38.5 -76.5
q-10 -30 -8.5 -68t7.5 -58q12 -43 38.5 -76t66.5 -53q36 -19 84 -21h5q9 -1 19 -1q43 0 73 8q31 7 50 25t28 48q6 24 8 56l4 46q1 22 1 47v140q53 -38 88 -81q32 -37 55 -80q4 -7 20 -41l8 -20l2 -8l1 -12q-7 -137 -88 -219q-51 -50 -126 -72q-55 -16 -124 -16q-18 0 -34 1
v-1q-83 4 -148 36q-74 35 -123.5 93.5t-74.5 134.5q-15 43 -19 98.5t0 81.5q6 39 20 78q25 75 74.5 134t123.5 95q17 8 67 17z" />
    <glyph glyph-name="uni062E" unicode="&#x62e;" horiz-adv-x="1250" 
d="M380 1243q0 42 28 70t69 28q21 0 39 -7.5t31.5 -21t21 -31t7.5 -38.5t-7.5 -38.5t-21 -31t-31.5 -21t-39 -7.5q-41 0 -69 28t-28 70zM460 325h476q-46 174 -143 275q-64 64 -132 96q-85 41 -194.5 41t-110 89.5t138.5 89.5q28 0 54 -1.5t50 -5.5q80 -13 153 -47
q40 -20 77 -45t70 -56q37 -36 68 -78.5t57 -93.5q29 -54 51 -116t37 -135v-183h-407q-233 -9 -238 -12q-40 -20 -66.5 -53.5t-38.5 -76.5q-10 -30 -8.5 -68t7.5 -58q12 -43 38.5 -76t66.5 -53q36 -19 84 -21h5q9 -1 19 -1q43 0 73 8q31 7 50 25t28 48q6 24 8 56l4 46
q1 22 1 47v140q53 -38 88 -81q32 -37 55 -80q4 -7 20 -41l8 -20l2 -8l1 -12q-7 -137 -88 -219q-51 -50 -126 -72q-55 -16 -124 -16q-18 0 -34 1v-1q-83 4 -148 36q-74 35 -123.5 93.5t-74.5 134.5q-15 43 -19 98.5t0 81.5q6 39 20 78q25 75 74.5 134t123.5 95q17 8 67 17z
" />
    <glyph glyph-name="uni062F" unicode="&#x62f;" horiz-adv-x="957" 
d="M414 808h-188q-20 0 -37 7t-29.5 19.5t-19.5 29t-7 36.5t7 36.5t19.5 29t29.5 19.5t37 7l194 -1l1 -2h32q94 0 165 -35q72 -36 121 -95t74 -134t25 -154v-65q0 -59 1 -170l1 -5l1 -182q-2 1 -5 2l-511 1q-7 -1 -15 -1l-12 1l-8 2l-20 8q-34 17 -41 21q-43 24 -80 57
q-43 36 -81 91l600 5l1 168v86q0 43 -16.5 82t-46 68.5t-68.5 47t-83 17.5h-10l-19 2z" />
    <glyph glyph-name="uni0630" unicode="&#x630;" horiz-adv-x="957" 
d="M195 1248q0 42 28 70.5t70 28.5t70 -28.5t28 -70.5t-28 -70t-70 -28t-70 28t-28 70zM414 808h-188q-20 0 -37 7t-29.5 19.5t-19.5 29t-7 36.5t7 36.5t19.5 29t29.5 19.5t37 7l194 -1l1 -2h32q94 0 165 -35q72 -36 121 -95t74 -134t25 -154v-65q0 -59 1 -170l1 -5l1 -182
q-2 1 -5 2l-511 1q-7 -1 -15 -1l-12 1l-8 2l-20 8q-34 17 -41 21q-43 24 -80 57q-43 36 -81 91l600 5l1 168v86q0 43 -16.5 82t-46 68.5t-68.5 47t-83 17.5h-10l-19 2z" />
    <glyph glyph-name="uni0631" unicode="&#x631;" horiz-adv-x="624" 
d="M555 335l-1 -100q-6 -63 -25 -118q-22 -62 -51 -116q-26 -51 -57 -93.5t-68 -78.5q-33 -31 -70 -56t-77 -45q-48 -22 -98 -35l-17 -6q-6 -2 -12 -3q-16 -4 -32 -5l-12 1l-8 2l-20 8q-34 16 -41 20q-43 23 -80 55q-43 35 -81 88h116q109 0 194 41q68 32 132 96
q86 89 124 301v463q0 20 7 37t19.5 29.5t29 19.5t36.5 7t36.5 -7t29 -19.5t19.5 -29.5t7 -37q0 -6 -1 -11h1v-408z" />
    <glyph glyph-name="uni0632" unicode="&#x632;" horiz-adv-x="624" 
d="M353 1182q0 21 7.5 39t21 31.5t31 21t38.5 7.5t39 -7.5t31.5 -21t21 -31.5t7.5 -39q0 -42 -28.5 -70t-70.5 -28t-70 28t-28 70zM555 335l-1 -100q-6 -63 -25 -118q-22 -62 -51 -116q-26 -51 -57 -93.5t-68 -78.5q-33 -31 -70 -56t-77 -45q-48 -22 -98 -35l-17 -6
q-6 -2 -12 -3q-16 -4 -32 -5l-12 1l-8 2l-20 8q-34 16 -41 20q-43 23 -80 55q-43 35 -81 88h116q109 0 194 41q68 32 132 96q86 89 124 301v463q0 20 7 37t19.5 29.5t29 19.5t36.5 7t36.5 -7t29 -19.5t19.5 -29.5t7 -37q0 -6 -1 -11h1v-408z" />
    <glyph glyph-name="uni0633" unicode="&#x633;" horiz-adv-x="1850" 
d="M701 864q0 20 7 37t19.5 29.5t29 19.5t36.5 7t36.5 -7t29 -19.5t19.5 -29.5t7 -37q0 -6 -1 -11h1v-517h269l-4 513q-1 7 -1 15q0 20 7 37t19.5 29.5t29 19.5t36.5 7t36.5 -7t29 -19.5t19.5 -29.5t7 -37v-528h117v-1q50 -1 74 6q30 8 48 27t25.5 50t7.5 76l-6 355
q-1 7 -1 15q0 20 7 37t19.5 29.5t29 19.5t36.5 7t36.5 -7t29 -19.5t19.5 -29.5t7 -37v-9h2v-378q-5 -152 -88 -235q-73 -73 -198 -88l-615 -3q-7 -68 -34 -122q-36 -74 -95 -123.5t-134.5 -75t-153.5 -25.5q-199 0 -274.5 25.5t-134 75t-93.5 123.5q-32 65 -36 148h1
q-1 16 -1 34q1 162 88 250q82 81 219 88l12 -1l8 -2l20 -8q34 -16 41 -20q43 -23 80 -55q43 -35 81 -88h-140q-25 0 -47 -1l-46 -4q-32 -2 -56 -8q-30 -9 -48 -28t-25 -50q-8 -30 -8 -73q0 -13 1 -24q2 -48 21 -84q20 -40 53 -66.5t76 -39t208 -12.5q17 0 34 2q27 3 52 11
q43 12 76 38.5t53 66.5t20 95v666z" />
    <glyph glyph-name="uni0634" unicode="&#x634;" horiz-adv-x="1850" 
d="M1141 1511q0 21 7.5 39t21 31.5t31.5 21t38 7.5q42 0 70.5 -28.5t28.5 -70.5q0 -20 -7.5 -38t-21 -31.5t-31.5 -21t-39 -7.5q-41 0 -69.5 28.5t-28.5 69.5zM976 1245q0 42 28 70.5t69 28.5q21 0 39 -7.5t31.5 -21t21 -31.5t7.5 -39t-7.5 -38.5t-21 -31t-31.5 -21
t-39 -7.5q-41 0 -69 28t-28 70zM1306 1245q0 42 28 70.5t70 28.5t70 -28.5t28 -70.5t-28 -70t-70 -28t-70 28t-28 70zM701 864q0 20 7 37t19.5 29.5t29 19.5t36.5 7t36.5 -7t29 -19.5t19.5 -29.5t7 -37q0 -6 -1 -11h1v-517h269l-4 513q-1 7 -1 15q0 20 7 37t19.5 29.5
t29 19.5t36.5 7t36.5 -7t29 -19.5t19.5 -29.5t7 -37v-528h117v-1q50 -1 74 6q30 8 48 27t25.5 50t7.5 76l-6 355q-1 7 -1 15q0 20 7 37t19.5 29.5t29 19.5t36.5 7t36.5 -7t29 -19.5t19.5 -29.5t7 -37v-9h2v-378q-5 -152 -88 -235q-73 -73 -198 -88l-615 -3q-7 -68 -34 -122
q-36 -74 -95 -123.5t-134.5 -75t-153.5 -25.5q-199 0 -274.5 25.5t-134 75t-93.5 123.5q-32 65 -36 148h1q-1 16 -1 34q1 162 88 250q82 81 219 88l12 -1l8 -2l20 -8q34 -16 41 -20q43 -23 80 -55q43 -35 81 -88h-140q-25 0 -47 -1l-46 -4q-32 -2 -56 -8q-30 -9 -48 -28
t-25 -50q-8 -30 -8 -73q0 -13 1 -24q2 -48 21 -84q20 -40 53 -66.5t76 -39t208 -12.5q17 0 34 2q27 3 52 11q43 12 76 38.5t53 66.5t20 95v666z" />
    <glyph glyph-name="uni0635" unicode="&#x635;" horiz-adv-x="2242" 
d="M1754 807l-29 -2q-244 0 -283 -17.5t-68.5 -47t-46 -68.5t-16.5 -82v-86l1 -168h474v-1q50 -1 74 6q30 8 48 27t25.5 50t7.5 76v154q0 45 -7.5 76t-25.5 50t-48 28q-24 6 -56 8v1zM900 864q0 20 7 37t19.5 29.5t29 19.5t36.5 7t36.5 -7t29 -19.5t19.5 -29.5t7 -37
q0 -6 -1 -11h1v-517h57q1 111 1 170v63q0 80 25 155.5t74 134.5t121 94.5t367 35.5h74l1 -1q146 -6 228 -87q88 -89 88 -253v-154q0 -164 -88 -252q-81 -81 -226 -91h-492v-12h-1q1 -5 1 -11q0 -20 -6.5 -37t-18.5 -29.5t-27.5 -19.5t-34.5 -7t-34.5 7t-27.5 19.5
t-18.5 29.5t-6.5 37v23h-58q-7 -68 -34 -122q-36 -74 -95 -123.5t-134.5 -75t-153.5 -25.5q-199 0 -274.5 25.5t-134 75t-93.5 123.5q-32 65 -36 148h1q-1 16 -1 34q1 162 88 250q82 81 219 88l12 -1l8 -2l20 -8q34 -16 41 -20q43 -23 80 -55q43 -35 81 -88h-140
q-25 0 -47 -1l-46 -4q-32 -2 -56 -8q-30 -9 -48 -28t-25 -50q-8 -30 -8 -73q0 -13 1 -24q2 -48 21 -84q20 -40 53 -66.5t76 -39t208 -12.5q17 0 34 2q27 3 52 11q43 12 76 38.5t53 66.5t20 95v666z" />
    <glyph glyph-name="uni0636" unicode="&#x636;" horiz-adv-x="2223" 
d="M1509 1227q0 21 7.5 39t20.5 31.5t31 21t38 7.5q42 0 70.5 -28.5t28.5 -70.5q0 -20 -7.5 -38t-21 -31t-31.5 -20.5t-39 -7.5q-41 0 -69 28t-28 69zM1782 807l-29 -2q-244 0 -283 -17.5t-68.5 -47t-46 -68.5t-16.5 -82v-86l1 -168h474v-1q50 -1 74 6q30 8 48 27t25.5 50
t7.5 76v154q0 45 -7.5 76t-25.5 50t-48 28q-24 6 -56 8v1zM928 864q0 20 7 37t19.5 29.5t29 19.5t36.5 7t36.5 -7t29 -19.5t19.5 -29.5t7 -37q0 -6 -1 -11h1v-517h57q1 111 1 170v63q0 80 25 155.5t74 134.5t121 94.5t367 35.5h74l1 -1q146 -6 228 -87q88 -89 88 -253v-154
q0 -164 -88 -252q-81 -81 -226 -91h-492v-12h-1q1 -5 1 -11q0 -20 -6.5 -37t-18.5 -29.5t-27.5 -19.5t-34.5 -7t-34.5 7t-27.5 19.5t-18.5 29.5t-6.5 37v23h-58q-7 -68 -34 -122q-36 -74 -95 -123.5t-134.5 -75t-153.5 -25.5q-199 0 -274.5 25.5t-134 75t-93.5 123.5
q-32 65 -36 148h1q-1 16 -1 34q1 162 88 250q82 81 219 88l12 -1l8 -2l20 -8q34 -16 41 -20q43 -23 80 -55q43 -35 81 -88h-140q-25 0 -47 -1l-46 -4q-32 -2 -56 -8q-30 -9 -48 -28t-25 -50q-8 -30 -8 -73q0 -13 1 -24q2 -48 21 -84q20 -40 53 -66.5t76 -39t208 -12.5
q17 0 34 2q27 3 52 11q43 12 76 38.5t53 66.5t20 95v666z" />
    <glyph glyph-name="uni0637" unicode="&#x637;" horiz-adv-x="1461" 
d="M526 626v-290h472v-1q50 -1 74 6q30 8 48 27t25.5 50t7.5 76v154q0 45 -7.5 76t-25.5 50t-48 28q-24 6 -56 8v1l-50 -4l-29 -2q-244 0 -283 -17.5t-68.5 -47t-45.5 -68.5q-10 -22 -14 -46zM342 1264q0 20 7 37t19.5 29.5t29 19.5t36.5 7t36.5 -7t29 -19.5t19.5 -29.5
t7 -37q0 -6 -1 -11h1v-328q23 16 48 29q72 35 367 35h74l1 -1q146 -6 228 -87q88 -89 88 -253v-154q0 -164 -88 -252q-81 -81 -226 -91h-492v-12h-1q1 -5 1 -11q0 -20 -6.5 -37t-18.5 -29.5t-27.5 -19.5t-34.5 -7t-34.5 7t-27.5 19.5t-18.5 29.5t-6.5 37v26q-23 6 -47 5
l-12 1l-8 2l-20 8q-34 16 -41 20q-43 23 -80 55q-43 35 -81 88h140q25 0 47 1l46 4q25 2 45 6zM526 626v-290h472v-1q50 -1 74 6q30 8 48 27t25.5 50t7.5 76v154q0 45 -7.5 76t-25.5 50t-48 28q-24 6 -56 8v1l-50 -4l-29 -2q-244 0 -283 -17.5t-68.5 -47t-45.5 -68.5
q-10 -22 -14 -46zM342 1264q0 20 7 37t19.5 29.5t29 19.5t36.5 7t36.5 -7t29 -19.5t19.5 -29.5t7 -37q0 -6 -1 -11h1v-328q23 16 48 29q72 35 367 35h74l1 -1q146 -6 228 -87q88 -89 88 -253v-154q0 -164 -88 -252q-81 -81 -226 -91h-492v-12h-1q1 -5 1 -11q0 -20 -6.5 -37
t-18.5 -29.5t-27.5 -19.5t-34.5 -7t-34.5 7t-27.5 19.5t-18.5 29.5t-6.5 37v26q-23 6 -47 5l-12 1l-8 2l-20 8q-34 16 -41 20q-43 23 -80 55q-43 35 -81 88h140q25 0 47 1l46 4q25 2 45 6z" />
    <glyph glyph-name="uni0638" unicode="&#x638;" horiz-adv-x="1498" 
d="M817 1245q0 42 28 70.5t69 28.5q21 0 39 -7.5t31.5 -21t21 -31.5t7.5 -39t-7.5 -38.5t-21 -31t-31.5 -21t-39 -7.5q-41 0 -69 28t-28 70zM563 626v-290h472v-1q50 -1 74 6q30 8 48 27t25.5 50t7.5 76v154q0 45 -7.5 76t-25.5 50t-48 28q-24 6 -56 8v1l-50 -4l-29 -2
q-244 0 -283 -17.5t-68.5 -47t-45.5 -68.5q-10 -22 -14 -46zM379 1264q0 20 7 37t19.5 29.5t29 19.5t36.5 7t36.5 -7t29 -19.5t19.5 -29.5t7 -37q0 -6 -1 -11h1v-328q23 16 48 29q72 35 367 35h74l1 -1q146 -6 228 -87q88 -89 88 -253v-154q0 -164 -88 -252
q-81 -81 -226 -91h-492v-12h-1q1 -5 1 -11q0 -20 -6.5 -37t-18.5 -29.5t-27.5 -19.5t-34.5 -7t-34.5 7t-27.5 19.5t-18.5 29.5t-6.5 37v26q-23 6 -47 5l-12 1l-8 2l-20 8q-34 16 -41 20q-43 23 -80 55q-43 35 -81 88h140q25 0 47 1l46 4q25 2 45 6z" />
    <glyph glyph-name="uni0639" unicode="&#x639;" horiz-adv-x="1204" 
d="M416 150q-31 -3 -39 -7q-40 -20 -66.5 -53.5t-38.5 -76.5q-10 -30 -8.5 -68t7.5 -58q12 -43 38.5 -76t66.5 -53q36 -19 84 -21h5q9 -1 19 -1q43 0 73 8q31 7 50 25t28 48q6 24 8 56l4 46q1 22 1 47v140q53 -38 88 -81q32 -37 55 -80q4 -7 20 -41l8 -20l2 -8l1 -12
q-7 -137 -88 -219q-51 -50 -126 -72q-55 -16 -124 -16q-18 0 -34 1v-1q-83 4 -148 36q-74 35 -123.5 93.5t-74.5 134.5q-15 43 -19 98.5t0 81.5q6 39 20 78q25 75 74.5 134t123.5 95q27 13 57 23q1 119 1 175v65q0 79 25 154t74 134t121 95q63 31 144 35h69l1 -1
q146 -6 228 -87q88 -89 78 -173q-2 -25 -7 -37q-7 -17 -19.5 -29.5t-29 -19.5t-36.5 -7t-36.5 7t-29 19.5t-19.5 29.5q-3 8 -7 37q-7 34 -18 46q-18 19 -48 28q-15 4 -34 6h-32l-12 -1l-19 -2h-10q-44 0 -83 -17.5t-68.5 -47t-46 -68.5t-16.5 -82v-86l1 -168l600 -5
q-38 -55 -81 -91q-37 -33 -80 -57q-7 -4 -41 -21l-20 -8l-8 -2l-12 -1q-8 0 -15 1l-407 -1z" />
    <glyph glyph-name="uni063A" unicode="&#x63a;" horiz-adv-x="1211" 
d="M581 1245q0 42 28 70.5t70 28.5t70 -28.5t28 -70.5t-28 -70t-70 -28t-70 28t-28 70zM426 150q-31 -3 -39 -7q-40 -20 -66.5 -53.5t-38.5 -76.5q-10 -30 -8.5 -68t7.5 -58q12 -43 38.5 -76t66.5 -53q36 -19 84 -21h5q9 -1 19 -1q43 0 73 8q31 7 50 25t28 48q6 24 8 56
l4 46q1 22 1 47v140q53 -38 88 -81q32 -37 55 -80q4 -7 20 -41l8 -20l2 -8l1 -12q-7 -137 -88 -219q-51 -50 -126 -72q-55 -16 -124 -16q-18 0 -34 1v-1q-83 4 -148 36q-74 35 -123.5 93.5t-74.5 134.5q-15 43 -19 98.5t0 81.5q6 39 20 78q25 75 74.5 134t123.5 95
q27 13 57 23q1 119 1 175v65q0 79 25 154t74 134t121 95q63 31 144 35h69l1 -1q146 -6 228 -87q88 -89 78 -173q-2 -25 -7 -37q-7 -17 -19.5 -29.5t-29 -19.5t-36.5 -7t-36.5 7t-29 19.5t-19.5 29.5q-3 8 -7 37q-7 34 -18 46q-18 19 -48 28q-15 4 -34 6h-32l-12 -1l-19 -2
h-10q-44 0 -83 -17.5t-68.5 -47t-46 -68.5t-16.5 -82v-86l1 -168l600 -5q-38 -55 -81 -91q-37 -33 -80 -57q-7 -4 -41 -21l-20 -8l-8 -2l-12 -1q-8 0 -15 1l-407 -1z" />
    <glyph glyph-name="uni0640" unicode="&#x640;" horiz-adv-x="407" 
d="M-11 151v180h428v-180h-428z" />
    <glyph glyph-name="uni0641" unicode="&#x641;" horiz-adv-x="1909" 
d="M1416 1245q0 42 28.5 70.5t69.5 28.5q21 0 39 -7.5t31.5 -21t21 -31.5t7.5 -39t-7.5 -38.5t-21 -31t-31.5 -21t-39 -7.5q-41 0 -69.5 28t-28.5 70zM1465 807l-29 -2q-44 0 -83 -17.5t-68.5 -47t-46 -68.5t-16.5 -82v-86l1 -168h274v-1q50 -1 74 6q30 8 48 27t25.5 50
t7.5 76v154q0 45 -7.5 76t-25.5 50t-48 28q-24 6 -56 8v1zM491 818q34 -16 41 -20q43 -23 80 -55q43 -35 81 -88h-140q-25 0 -47 -1l-46 -4q-32 -2 -56 -8q-30 -9 -48 -28t-25 -50q-8 -30 -8 -73t8 -73q7 -31 25 -50t48 -27q24 -7 74 -6v1h574q1 111 1 170v63q0 80 25 155.5
t74 134.5t121 94.5t167 35.5h74l1 -1q146 -6 228 -87q88 -89 88 -253v-154q0 -164 -88 -252q-81 -81 -226 -91h-1059q-145 10 -226 91q-87 87 -88 249q1 162 88 250q82 81 219 88l12 -1l8 -2z" />
    <glyph glyph-name="uni0642" unicode="&#x642;" horiz-adv-x="1881" 
d="M1194 1245q0 42 28 70.5t70 28.5t70.5 -28.5t28.5 -70.5t-28.5 -70t-70.5 -28t-70 28t-28 70zM1470 1245q0 42 28 70.5t69 28.5q21 0 39 -7.5t31.5 -21t21 -31.5t7.5 -39t-7.5 -38.5t-21 -31t-31.5 -21t-39 -7.5q-41 0 -69 28t-28 70zM1437 807l-29 -2q-44 0 -83 -17.5
t-68.5 -47t-46 -68.5t-16.5 -82v-86l1 -168h274v-1q50 -1 74 6q30 8 48 27t25.5 50t7.5 76v154q0 45 -7.5 76t-25.5 50t-48 28q-24 6 -56 8v1zM463 818q34 -16 41 -20q43 -23 80 -55q43 -35 81 -88h-140q-25 0 -47 -1l-46 -4q-32 -2 -56 -8q-30 -9 -48 -28t-25 -50
q-8 -30 -8 -73t8 -73q7 -31 25 -50t48 -27q24 -7 74 -6v1h574q1 111 1 170v63q0 80 25 155.5t74 134.5t121 94.5t167 35.5h74l1 -1q146 -6 228 -87q88 -89 88 -253v-154q0 -164 -88 -252q-81 -81 -226 -91h-1059q-145 10 -226 91q-87 87 -88 249q1 162 88 250q82 81 219 88
l12 -1l8 -2z" />
    <glyph glyph-name="uni0643" unicode="&#x643;" horiz-adv-x="1300" 
d="M1022 1353h179v-859q0 -164 -88 -252q-81 -81 -226 -91h-1059q-145 10 -226 91q-87 87 -88 249q1 162 88 250q82 81 219 88l12 -1l8 -2l20 -8q34 -16 41 -20q43 -23 80 -55q43 -35 81 -88h-140q-25 0 -47 -1l-46 -4q-32 -2 -56 -8q-30 -9 -48 -28t-25 -50q-8 -30 -8 -73
t8 -73q7 -31 25 -50t48 -27q24 -7 74 -6v1h1019v-1q50 -1 74 6q30 8 48 27t25.5 50t7.5 76v859zM499.5 1111q-29.5 -7 -56.5 -20.5t-49.5 -33.5t-37.5 -48h136q112 7 129 5q43 -3 69 -28q28 -28 28 -80t-28 -80q-26 -26 -72 -29h-331l50 59h274v0q16 0 24 2q9 2 15 8t8 16
q3 10 3 24q0 13 -3 23q-2 10 -8 16t-15 9q-8 2 -18 3l-15 1h-3q-128 -6 -170 -6h-86q-12 0 -21 4t-14.5 10.5t-8.5 14.5t-3 18q0 19 10 39q17 33 44 59t60.5 43.5t70.5 26.5q34 8 75 9h4l3 -1l6 -3q11 -5 13 -6q14 -7 26 -18q14 -11 26 -28h-45h-15q-45 -2 -74.5 -9z" />
    <glyph glyph-name="uni0644" unicode="&#x644;" horiz-adv-x="1027" 
d="M925 961v-763q0 -96 -36 -169.5t-95 -123t-134 -74.5q-39 -14 -78 -20q-38 -6 -76 -6q-199 0 -274.5 25.5t-134 75t-93.5 123.5q-32 65 -36 148h1q-1 16 -1 34q0 69 16 124q22 75 72 126q82 81 219 88l12 -1l8 -2l20 -8q34 -16 41 -20q43 -23 80 -55q43 -35 81 -88h-140
q-25 0 -47 -1l-46 -4q-32 -2 -56 -8q-30 -9 -48 -28t-25 -50q-8 -30 -8 -73q0 -10 1 -19v-5q2 -48 21 -84q20 -40 53 -66.5t76 -38.5q23 -7 82 -10q50 -3 126 -3q45 0 88 12.5t76.5 39t53.5 66.5t20 95l-2 1066q0 20 7 37t19.5 29.5t29 19.5t36.5 7t36.5 -7t29 -19.5
t19.5 -29.5t7 -37z" />
    <glyph glyph-name="uni0645" unicode="&#x645;" horiz-adv-x="1230" 
d="M756 805h-10q-44 0 -83 -17.5t-68.5 -47t-46 -68.5t-16.5 -82v-86l1 -168h214v-1q57 1 93 18q39 17 68.5 46.5t46.5 88.5q9 54 6 72h1v88q0 45 -7.5 76t-25.5 50t-48 28q-24 6 -56 8v1l-50 -4zM285 35q-16 -83 -21 -199q-1 -22 -1 -47v-140q-53 38 -88 81q-32 37 -55 80
q-4 7 -20 41l-8 20l-2 8l-1 12q3 91 24 178q15 114 83 182q63 63 165 80l1 5q1 111 1 170v65q0 79 25 154t74 134t121 95q71 35 165 35h76l1 -1q146 -6 228 -87q86 -87 88 -247v-101h-1q-3 -71 -25 -138q-25 -75 -74 -134t-121 -94.5t-167 -35.5h-388q-28 -9 -45 -27
q-18 -19 -25 -50q-5 -17 -10 -39z" />
    <glyph glyph-name="uni0646" unicode="&#x646;" horiz-adv-x="982" 
d="M368 1167q0 42 28 70t69 28q21 0 39 -7.5t31.5 -21t21 -31t7.5 -38.5t-7.5 -38.5t-21 -31t-31.5 -21t-39 -7.5q-41 0 -69 28t-28 70zM925 198q0 -96 -36 -169.5t-95 -123t-134.5 -75t-153.5 -25.5q-199 0 -274.5 25.5t-134 75t-93.5 123.5q-32 65 -36 148h1q-1 16 -1 34
q1 162 88 250q82 81 219 88l12 -1l8 -2l20 -8q34 -16 41 -20q43 -23 80 -55q43 -35 81 -88h-140q-25 0 -47 -1l-46 -4q-32 -2 -56 -8q-30 -9 -48 -28t-25 -50q-8 -30 -8 -73q0 -13 1 -24q2 -48 21 -84q20 -40 53 -66.5t76 -39t208 -12.5q45 0 88 12.5t76.5 39t53.5 66.5
t20 95l-3 666q0 20 7 37t19.5 29.5t29 19.5t36.5 7t36.5 -7t29 -19.5t19.5 -29.5t7 -37v-666z" />
    <glyph glyph-name="uni0647" unicode="&#x647;" horiz-adv-x="962" 
d="M465 805l-19 2l-50 4v-1q-32 -2 -56 -8q-30 -9 -48 -28t-25.5 -50t-7.5 -76v-88h1q-3 -18 6 -72q17 -59 46.5 -88.5t68.5 -46.5q36 -17 93 -18v1h214l1 168v86q0 43 -16.5 82t-46 68.5t-68.5 47t-83 17.5h-10zM860 331l1 -182q-2 1 -5 2h-388q-95 0 -167 35.5t-121 94.5
t-74 134q-22 67 -25 138h-1v101q2 160 88 247q82 81 228 87l1 1h76q94 0 165 -35q72 -36 121 -95t74 -134t25 -154v-65q0 -59 1 -170z" />
    <glyph glyph-name="uni0648" unicode="&#x648;" horiz-adv-x="962" 
d="M680 336l8 4l1 164v86q0 43 -16.5 82t-46 68.5t-68.5 47t-83 17.5h-10l-19 2l-50 4v-1q-32 -2 -56 -8q-30 -9 -48 -28t-25.5 -50t-7.5 -76v-88h1q-3 -18 6 -72q17 -59 46.5 -88.5t68.5 -46.5q36 -17 93 -18v1h206zM858 238l-1 -31q-7 -56 -18 -90q-22 -62 -51 -116
q-26 -51 -57 -93.5t-68 -78.5q-33 -31 -70 -56t-77 -45q-48 -22 -98 -35l-17 -6q-6 -2 -12 -3q-16 -4 -32 -5l-12 1l-8 2l-20 8q-34 16 -41 20q-43 23 -80 55q-43 35 -81 88h116q109 0 194 41q68 32 132 96q54 56 89 161h-178q-95 0 -167 35.5t-121 94.5t-74 134
q-22 67 -25 138h-1v101q2 160 88 247q82 81 228 87l1 1h76q94 0 165 -35q72 -36 121 -95t74 -134t25 -154v-65q0 -59 1 -170l1 -5z" />
    <glyph glyph-name="uni0649" unicode="&#x649;" horiz-adv-x="1915" 
d="M355 583h1q-3 -18 6 -72q17 -59 46.5 -88.5t68.5 -46.5q36 -17 93 -18v1h506v318q2 160 88 247q82 81 228 87l1 1h76q94 0 165 -35q72 -36 121 -95t74 -134q17 -51 23 -94v-6q1 -6 -1 -72q-1 -26 -7.5 -41.5t-17.5 -27t-26.5 -18t-33.5 -6.5t-33 6.5t-26.5 18t-18 27
t-6.5 33.5q0 7 1 14l1 56q-4 29 -15 57q-17 39 -46.5 68.5t-68.5 47.5q-33 14 -162 23v-1q-32 -2 -56 -8q-30 -9 -48 -28t-25.5 -50t-7.5 -76v-497l-1 1v-1h-690q-95 0 -167 35.5t-121 94.5t-74 134q-22 67 -25 138h-1v101q0 16 2 31q9 139 87 218q82 81 219 88l12 -1l8 -2
l20 -8q34 -16 41 -20q43 -23 80 -55q43 -35 81 -88h-140q-25 0 -47 -1l-46 -4q-32 -2 -56 -8q-30 -9 -48 -28t-25 -50q-7 -25 -9 -166z" />
    <glyph glyph-name="uni064A" unicode="&#x64a;" horiz-adv-x="1878" 
d="M549 -364q0 42 28 70.5t70 28.5t70.5 -28.5t28.5 -70.5t-28.5 -70t-70.5 -28t-70 28t-28 70zM825 -364q0 42 28 70.5t70 28.5t70 -28.5t28 -70.5t-28 -70t-70 -28t-70 28t-28 70zM318 583h1q-3 -18 6 -72q17 -59 46.5 -88.5t68.5 -46.5q36 -17 93 -18v1h506v318
q2 160 88 247q82 81 228 87l1 1h76q94 0 165 -35q72 -36 121 -95t74 -134q17 -51 23 -94v-6q1 -6 -1 -72q-1 -26 -7.5 -41.5t-17.5 -27t-26.5 -18t-33.5 -6.5t-33 6.5t-26.5 18t-18 27t-6.5 33.5q0 7 1 14l1 56q-4 29 -15 57q-17 39 -46.5 68.5t-68.5 47.5q-33 14 -162 23
v-1q-32 -2 -56 -8q-30 -9 -48 -28t-25.5 -50t-7.5 -76v-497l-1 1v-1h-690q-95 0 -167 35.5t-121 94.5t-74 134q-22 67 -25 138h-1v101q0 16 2 31q9 139 87 218q82 81 219 88l12 -1l8 -2l20 -8q34 -16 41 -20q43 -23 80 -55q43 -35 81 -88h-140q-25 0 -47 -1l-46 -4
q-32 -2 -56 -8q-30 -9 -48 -28t-25 -50q-7 -25 -9 -166z" />
    <glyph glyph-name="uni064B" unicode="&#x64b;" horiz-adv-x="408" 
d="M389 1675l-340 -193l17 91l340 193zM403 1842l-340 -193l17 91l340 193z" />
    <glyph glyph-name="uni064C" unicode="&#x64c;" horiz-adv-x="469" 
d="M409 1632q-8 -18 -28 -45.5t-47 -53t-58 -43.5t-62 -18t-46 16t-15 36q0 23 8 47t8 41q0 12 -6.5 19.5t-26.5 7.5q-14 0 -36.5 -4.5t-54.5 -15.5q23 34 55.5 51t61.5 17t49 -16.5t20 -51.5q0 -34 -23 -80q46 20 85.5 44t71.5 62q-45 11 -64 35.5t-19 53.5q0 26 12 51
t30.5 45t42 32.5t47.5 12.5q20 -2 27 -23t7 -47q0 -29 -5 -58t-9 -40l38 -12l-17 -76zM388 1793q-6 6 -12.5 8t-12.5 2q-15 0 -22 -11t-7 -24q0 -20 19 -30t43 -21q0 5 1 10q0 5 0.5 10.5t0.5 12.5q0 14 -2 27.5t-8 17.5v-2z" />
    <glyph glyph-name="uni064D" unicode="&#x64d;" horiz-adv-x="408" 
d="M405 -148l-340 -193l17 91l340 193zM378 -316l-340 -193l17 91l340 193z" />
    <glyph glyph-name="uni064E" unicode="&#x64e;" horiz-adv-x="408" 
d="M389 1675l-340 -193l17 91l340 193z" />
    <glyph glyph-name="uni064F" unicode="&#x64f;" horiz-adv-x="414" 
d="M366 1664q-11 -23 -36.5 -51.5t-60.5 -53.5t-76 -42.5t-83 -17.5q-56 0 -77 4t-21 3q0 1 1 1q61 25 105.5 43t79 36t62.5 39.5t56 54.5q-52 12 -73.5 38t-21.5 58q0 27 12.5 54t33 48.5t46.5 35.5t52 14t35.5 -22t9.5 -54t-6 -63t-11 -44l44 -13l-19 -80zM341 1841
q-6 7 -14.5 8.5t-13.5 1.5q-17 0 -25.5 -11.5t-8.5 -25.5q0 -23 21 -34t50 -22q0 5 1 11q0 5 0.5 12t0.5 15q0 15 -2 28.5t-9 18.5v-2z" />
    <glyph glyph-name="uni0650" unicode="&#x650;" horiz-adv-x="408" 
d="M395 -148l-340 -193l17 91l340 193z" />
    <glyph glyph-name="uni0651" unicode="&#x651;" horiz-adv-x="425" 
d="M398 1823q17 -26 25 -57.5t8 -61.5q0 -28 -6.5 -54.5t-19 -47t-31 -33t-43.5 -12.5t-37.5 9t-27.5 23q-6 -11 -16 -25t-24.5 -26.5t-34.5 -21t-45 -8.5t-42 9.5t-27 25t-14 35.5t-4 41q0 37 9 70t18 47q0 -1 1 -1t5.5 3.5t9.5 7t9.5 7t6.5 3.5q1 0 1 -1
q-8 -17 -12.5 -39.5t-4.5 -43.5q0 -29 11.5 -48.5t40.5 -19.5t44.5 16t23.5 37.5t12.5 44.5t12.5 38q0 -2 2 -2q4 0 12.5 9.5t12.5 9.5q2 0 2 -1q-4 -15 -4 -32q0 -34 17 -57t44 -23q6 0 14 1.5t15.5 5t13 10.5t5.5 19q0 19 -9.5 40.5t-20.5 36.5q13 18 24.5 34t22.5 32z
" />
    <glyph glyph-name="uni0652" unicode="&#x652;" horiz-adv-x="328" 
d="M347 1696q1 -4 1 -8v-8q0 -31 -14.5 -65t-37.5 -78v1q0 1 1 2l-3 -5q-13 -8 -30 -15.5t-36.5 -13.5t-40.5 -9.5t-40 -3.5q-40 0 -65 19.5t-25 69.5q0 37 12 78t32.5 75t48.5 56.5t60 22.5q25 0 48.5 -12t42.5 -29.5t31 -38t15 -38.5zM283 1628q-3 13 -12.5 28.5t-23 28.5
t-29.5 21.5t-32 8.5q-32 0 -48 -21t-16 -43q0 -28 20.5 -40t48.5 -12q23 0 47.5 7.5t43.5 20.5z" />
    <glyph glyph-name="uni0660" unicode="&#x660;" horiz-adv-x="1149" 
d="M426 873q0 8 6.5 14.5t15.5 6.5h254q9 0 15 -6.5t6 -14.5v-254q0 -8 -6 -14t-15 -6h-254q-9 0 -15.5 6t-6.5 14v254z" />
    <glyph glyph-name="uni0661" unicode="&#x661;" horiz-adv-x="652" 
d="M238 1317q0 8 7 14t15 6h142q8 0 14 -6t6 -14v-1150q0 -8 -6 -14t-14 -6h-142q-8 0 -15 6t-7 14v1150z" />
    <glyph glyph-name="uni0662" unicode="&#x662;" horiz-adv-x="1149" 
d="M867 1157l-232 1q-49 -6 -89 -17t-68.5 -31t-44 -51t-15.5 -76q0 -14 1.5 -28t3.5 -28q43 -192 88.5 -386.5t89.5 -386.5q-4 -11 -17 -11h-162q-3 0 -4.5 4.5t-2.5 10.5q-44 170 -87.5 340.5t-87.5 340.5l1 -2q-5 31 -7.5 59t-2.5 54q0 104 34.5 177t91.5 119t130.5 67.5
t151.5 23.5h16q13 0 31 0.5t38.5 1.5t40.5 2q38 1 69.5 2t38.5 1q8 0 17.5 -1.5t17.5 -4.5t13.5 -7.5t5.5 -10.5v-141q0 -9 -6.5 -15.5t-14.5 -6.5h-39z" />
    <glyph glyph-name="uni0663" unicode="&#x663;" horiz-adv-x="1149" 
d="M674 978h182v338q0 9 5.5 15t14.5 6h143q8 0 14 -6t6 -15v-278q0 -130 -55.5 -186.5t-159.5 -56.5h-514v-628q0 -8 -6 -14t-15 -6h-142q-8 0 -14.5 6t-6.5 14v1150q0 8 6.5 14t14.5 6h142q9 0 15 -6t6 -14v-339h182v338q0 9 5.5 15t13.5 6h143q8 0 14 -6t6 -15l-1 -312z
" />
    <glyph glyph-name="uni0664" unicode="&#x664;" horiz-adv-x="1149" 
d="M476 1160q-29 -18 -42.5 -38.5t-13.5 -42.5q0 -23 11 -48t30 -52.5t44.5 -57t53.5 -60.5h239q10 0 16 -6t6 -15v-141q0 -9 -6 -15t-16 -6l-247 -1q-39 -10 -71 -30.5t-54 -47.5t-34 -58.5t-12 -62.5q0 -48 27 -88.5t87 -62.5h403q9 0 15.5 -6t6.5 -14v-142q0 -9 -6.5 -15
t-15.5 -6h-405q-60 0 -114 26t-94.5 69.5t-64 101.5t-23.5 123q0 81 45.5 167t151.5 166q-24 31 -49 61t-47 62.5t-38.5 68t-24.5 76.5q1 64 22 115.5t56.5 87.5t81.5 55.5t98 19.5h405q9 0 15.5 -6.5t6.5 -15.5v-142q0 -8 -6.5 -13.5t-15.5 -5.5h-421z" />
    <glyph glyph-name="uni0665" unicode="&#x665;" horiz-adv-x="1149" 
d="M400 145q-78 2 -132.5 31t-89 77.5t-50 113t-15.5 137.5q0 83 18 172t50.5 175t76.5 163.5t95.5 137t108.5 96t115 40.5q58 -4 115 -40.5t108.5 -96t95.5 -137t76.5 -163.5t50.5 -175t18 -172q0 -72 -16.5 -136t-51.5 -112t-89.5 -77.5t-129.5 -33.5h-354zM862 534
q0 55 -13.5 118t-35.5 124.5t-51.5 117.5t-61 99t-63.5 68.5t-60 25.5t-60 -25.5t-63.5 -68.5t-61 -99t-51.5 -117.5t-35.5 -124.5t-13.5 -118q0 -44 9 -82t29 -65.5t52 -43t77 -15.5h236q45 0 77 15.5t52 43t29 65.5t9 82z" />
    <glyph glyph-name="uni0666" unicode="&#x666;" horiz-adv-x="1149" 
d="M197 1157q-8 0 -14.5 6.5t-6.5 15.5v141q0 6 5.5 10.5t13.5 7.5t17.5 4.5t17.5 1.5t27 -0.5t43.5 -1.5t51 -2t51 -1.5t43 -1t25.5 -0.5q89 -17 162.5 -58t126 -104.5t81.5 -149t29 -191.5q1 -170 2 -338.5t2 -337.5q-1 -6 -2.5 -10.5t-4.5 -4.5h-162q-7 0 -12 4t-5 10
v775q-14 56 -39 94.5t-56.5 63.5t-68.5 38t-75 19.5t-76 7.5t-72 1h-35q-16 0 -30 1h-39z" />
    <glyph glyph-name="uni0667" unicode="&#x667;" horiz-adv-x="1149" 
d="M503 484q16 -71 36 -112t43 -40t41.5 42t32.5 113l185 825q1 10 7 17.5t16 7.5h142q8 0 13.5 -4.5t5.5 -11.5q-51 -231 -101.5 -460t-101.5 -459q-28 -112 -84 -173t-159 -75q-91 10 -153 71.5t-89 175.5q-26 115 -51 230t-51 230q-26 114 -51 229.5t-51 230.5
q0 7 5.5 11.5t13.5 4.5h142q10 0 16 -7.5t7 -17.5z" />
    <glyph glyph-name="uni0668" unicode="&#x668;" horiz-adv-x="1149" 
d="M317 180q-1 -11 -7 -18.5t-16 -7.5h-142q-8 0 -13.5 4.5t-5.5 12.5q26 115 51 230t51 230t51 229.5t51 230.5q27 114 89 175t153 71q103 -13 159 -74t84 -173q50 -227 101 -459t102 -460q0 -8 -5.5 -12.5t-13.5 -4.5h-142q-10 0 -16 7.5t-7 18.5q-46 202 -93 412.5
t-92 412.5q-14 72 -32.5 116.5t-41.5 45.5q-11 0 -22 -11.5t-21 -32.5t-19 -50.5t-17 -64.5z" />
    <glyph glyph-name="uni0669" unicode="&#x669;" horiz-adv-x="1149" 
d="M904 167q0 -8 -6 -14t-15 -6h-141q-9 0 -15.5 6t-6.5 14v320h-281q-105 0 -160 56.5t-55 185.5v367q0 129 55 185t160 56h253q105 0 160 -56t55 -185v-28v-38t-0.5 -61t-0.5 -95v-141v-196zM407 670h313l3 485h-316v-485z" />
    <glyph glyph-name="uni066A" unicode="&#x66a;" horiz-adv-x="829" 
d="M679 1413q-54 -182 -105 -351t-101 -336t-101 -336t-106 -350q-43 -23 -83.5 -45t-82.5 -44q54 181 105 350.5t101.5 337t101.5 336.5t105 350zM133 1258q22 0 42 -8.5t35 -23t23.5 -34.5t8.5 -43t-8.5 -43t-23.5 -35t-35 -23.5t-42 -8.5t-42 8.5t-35 23.5t-24 35t-9 43
t9 43t24 34.5t35 23t42 8.5zM654 302q22 0 42 -8.5t35 -23.5t24 -35t9 -42q0 -23 -9 -42.5t-24 -34.5t-35 -23.5t-42 -8.5q-23 0 -42.5 8.5t-34.5 23.5t-23.5 34.5t-8.5 42.5q0 22 8.5 42t23.5 35t34.5 23.5t42.5 8.5z" />
    <glyph glyph-name="uni066D" unicode="&#x66d;" horiz-adv-x="815" 
d="M374 1445h68l17 -213l163 139l49 -49l-140 -162l214 -18v-68l-214 -17l140 -163l-49 -48l-163 139l-17 -214h-68l-17 214l-164 -139l-47 48l139 163l-214 17v68l214 18l-139 162l47 49l164 -139z" />
    <glyph glyph-name="uni06F9" unicode="&#x6f9;" horiz-adv-x="1033" 
d="M93 1109h934v-934h-934v934zM223 304h675v675h-675v-675z" />
    <glyph glyph-name="uni200C" unicode="&#x200c;" horiz-adv-x="45" 
d="M35 -80h-25v1631h25v-1631z" />
    <glyph glyph-name="uni200D" unicode="&#x200d;" horiz-adv-x="45" 
d="M148 1427l-16 -16l-97 96v-1587h-25v1586l-96 -95l-16 16l109 109l-109 108l16 16l109 -108l109 108l16 -16l-109 -108z" />
    <glyph glyph-name="uni200E" unicode="&#x200e;" horiz-adv-x="45" 
d="M291 1537q-32 -33 -62.5 -63.5l-62.5 -62.5l-17 17l97 97h-213v-1605h-25v1631h234l-93 93l17 17z" />
    <glyph glyph-name="uni200F" unicode="&#x200f;" horiz-adv-x="45" 
d="M37 -80h-25v1605h-213l97 -97l-17 -17q-32 32 -62.5 63t-62.5 63l125 124l17 -17l-93 -93h234v-1631z" />
    <glyph glyph-name="endash" unicode="&#x2013;" 
d="M0 574v95h891v-95h-891z" />
    <glyph glyph-name="emdash" unicode="&#x2014;" horiz-adv-x="1782" 
d="M0 669h1782v-95h-1782v95z" />
    <glyph glyph-name="quoteleft" unicode="&#x2018;" horiz-adv-x="385" 
d="M245 1540q2 -60 3.5 -114t3 -106.5t3 -106t3.5 -113.5q0 -20 -21.5 -32t-48.5 -17q-11 56 -21 106.5t-19.5 100t-19.5 100.5t-21 107q1 31 24 53t55 22h59z" />
    <glyph glyph-name="quoteright" unicode="&#x2019;" horiz-adv-x="385" 
d="M199 1540q33 0 56 -22t23 -53q-11 -56 -21 -107t-19.5 -100.5t-19.5 -100t-21 -106.5q-27 5 -48 17t-22 32q2 60 3.5 113.5t3 106t3 106.5t3.5 114h59z" />
    <glyph glyph-name="quotesinglbase" unicode="&#x201a;" horiz-adv-x="447" 
d="M137 150v177h173v-206q0 -94 -44 -152t-129 -76v82q40 5 63.5 41.5t23.5 96.5v37h-87z" />
    <glyph glyph-name="quotedblleft" unicode="&#x201c;" horiz-adv-x="622" 
d="M496 1540q1 -60 3 -114t3.5 -106.5t3 -106t3.5 -113.5q-2 -20 -23 -32t-48 -17q-11 56 -20.5 106.5t-19.5 100t-19.5 100.5t-20.5 107q0 31 23 53t56 22h59zM245 1540q2 -60 3.5 -114t3 -106.5t3 -106t3.5 -113.5q0 -20 -21.5 -32t-48.5 -17q-11 56 -21 106.5t-19.5 100
t-19.5 100.5t-21 107q1 31 24 53t55 22h59z" />
    <glyph glyph-name="quotedblright" unicode="&#x201d;" horiz-adv-x="622" 
d="M203 1540q32 0 55 -22t24 -53q-11 -56 -21 -107t-19.5 -100.5t-19 -100t-20.5 -106.5q-28 5 -49 17t-23 32q2 60 3.5 113.5t3.5 106t3.5 106.5t3.5 114h59zM453 1540q33 0 56 -22t23 -53q-11 -56 -21 -107t-19.5 -100.5t-19 -100t-20.5 -106.5q-28 5 -49 17t-22 32
q2 60 3.5 113.5t3 106t3 106.5t3.5 114h59z" />
    <glyph glyph-name="bullet" unicode="&#x2022;" horiz-adv-x="613" 
d="M303 820q63 0 118.5 -24t96.5 -65t64.5 -96.5t23.5 -119.5q0 -63 -23.5 -118t-64.5 -96t-96.5 -64.5t-118.5 -23.5q-64 0 -119.5 23.5t-96.5 64.5t-64.5 96t-23.5 118q0 64 23.5 119.5t65 97t97 65t118.5 23.5z" />
    <glyph glyph-name="trademark" unicode="&#x2122;" horiz-adv-x="1484" 
d="M838 1418l131 -334l123 334h130v-468h-85v387l-144 -387h-49l-151 387v-387h-86v468h131zM604 1418v-69h-150v-399h-94v399h-149v69h393z" />
    <glyph glyph-name="fathalow" unicode="&#xe820;" horiz-adv-x="408" 
d="M401 1225l-340 -193l17 91l340 193z" />
    <glyph glyph-name="dammalow" unicode="&#xe821;" horiz-adv-x="414" 
d="M346 1204q-11 -23 -36.5 -51.5t-60.5 -53.5t-76 -42.5t-83 -17.5q-56 0 -77 4t-21 3q0 1 1 1q61 25 105.5 43t79 36t62.5 39.5t56 54.5q-52 12 -73.5 38t-21.5 58q0 27 12.5 54t33 48.5t46.5 35.5t52 14t35.5 -22t9.5 -54t-6 -63t-11 -44l44 -13l-19 -80zM321 1381
q-6 7 -14.5 8.5t-13.5 1.5q-17 0 -25.5 -11.5t-8.5 -25.5q0 -23 21 -34t50 -22q0 5 1 11q0 5 0.5 12t0.5 15q0 15 -2 28.5t-9 18.5v-2z" />
    <glyph glyph-name="sukunlow" unicode="&#xe822;" horiz-adv-x="328" 
d="M344 1249q1 -4 1 -8v-8q0 -31 -14.5 -65t-37.5 -78v1q0 1 1 2l-3 -5q-13 -8 -30 -15.5t-36.5 -13.5t-40.5 -9.5t-40 -3.5q-40 0 -65 19.5t-25 69.5q0 37 12 78t32.5 75t48.5 56.5t60 22.5q25 0 48.5 -12t42.5 -29.5t31 -38t15 -38.5zM280 1181q-3 13 -12.5 28.5t-23 28.5
t-29.5 21.5t-32 8.5q-32 0 -48 -21t-16 -43q0 -28 20.5 -40t48.5 -12q23 0 47.5 7.5t43.5 20.5z" />
    <glyph glyph-name="fathatanlow" unicode="&#xe823;" horiz-adv-x="408" 
d="M391 1222l-340 -193l17 91l340 193zM405 1389l-340 -193l17 91l340 193z" />
    <glyph glyph-name="dammatanlow" unicode="&#xe824;" horiz-adv-x="469" 
d="M408 1207q-8 -18 -28 -45.5t-47 -53t-58 -43.5t-62 -18t-46 16t-15 36q0 23 8 47t8 41q0 12 -6.5 19.5t-26.5 7.5q-14 0 -36.5 -4.5t-54.5 -15.5q23 34 55.5 51t61.5 17t49 -16.5t20 -51.5q0 -34 -23 -80q46 20 85.5 44t71.5 62q-45 11 -64 35.5t-19 53.5q0 26 12 51
t30.5 45t42 32.5t47.5 12.5q20 -2 27 -23t7 -47q0 -29 -5 -58t-9 -40l38 -12l-17 -76zM387 1368q-6 6 -12.5 8t-12.5 2q-15 0 -22 -11t-7 -24q0 -20 19 -30t43 -21q0 5 1 10q0 5 0.5 10.5t0.5 12.5q0 14 -2 27.5t-8 17.5v-2z" />
    <glyph glyph-name="shaddalow" unicode="&#xe825;" horiz-adv-x="425" 
d="M396 1364q17 -26 25 -57.5t8 -61.5q0 -28 -6.5 -54.5t-19 -47t-31 -33t-43.5 -12.5t-37.5 9t-27.5 23q-6 -11 -16 -25t-24.5 -26.5t-34.5 -21t-45 -8.5t-42 9.5t-27 25t-14 35.5t-4 41q0 37 9 70t18 47q0 -1 1 -1t5.5 3.5t9.5 7t9.5 7t6.5 3.5q1 0 1 -1
q-8 -17 -12.5 -39.5t-4.5 -43.5q0 -29 11.5 -48.5t40.5 -19.5t44.5 16t23.5 37.5t12.5 44.5t12.5 38q0 -2 2 -2q4 0 12.5 9.5t12.5 9.5q2 0 2 -1q-4 -15 -4 -32q0 -34 17 -57t44 -23q6 0 14 1.5t15.5 5t13 10.5t5.5 19q0 19 -9.5 40.5t-20.5 36.5q13 18 24.5 34t22.5 32z
" />
    <glyph glyph-name="kasralow" unicode="&#xe826;" horiz-adv-x="408" 
d="M395 -148l-340 -193l17 91l340 193z" />
    <glyph glyph-name="kasratanlow" unicode="&#xe827;" horiz-adv-x="408" 
d="M405 -148l-340 -193l17 91l340 193zM378 -316l-340 -193l17 91l340 193z" />
    </font>
</defs>
</svg>
